<svg width="3131" height="7564" xmlns="http://www.w3.org/2000/svg" xmlns:xlink="http://www.w3.org/1999/xlink" xml:space="preserve" overflow="hidden"><g transform="translate(-940 -338)"><rect x="2647.5" y="4290.5" width="822" height="2078" stroke="#ED7D31" stroke-width="3.4375" stroke-linejoin="round" stroke-miterlimit="10" stroke-dasharray="27.5 10.3125" fill="none"/><text fill="#ED7D31" font-family="Calibri,Calibri_MSFontService,sans-serif" font-weight="700" font-size="55" transform="matrix(1 0 0 1 2869.1 6336)">Failed during submission</text><rect x="1293" y="1347" width="1780" height="593" fill="#70AD47" fill-opacity="0.501961"/><text fill="#FFFFFF" font-family="Calibri,Calibri_MSFontService,sans-serif" font-weight="700" font-size="55" transform="matrix(1 0 0 1 1326.27 1414)">Preparer</text><rect x="1293" y="2232" width="1780" height="1216" fill="#70AD47" fill-opacity="0.501961"/><text fill="#FFFFFF" font-family="Calibri,Calibri_MSFontService,sans-serif" font-weight="700" font-size="55" transform="matrix(1 0 0 1 1326.27 2299)">Throttler</text><rect x="1293" y="3739" width="1780" height="1261" fill="#70AD47" fill-opacity="0.501961"/><text fill="#FFFFFF" font-family="Calibri,Calibri_MSFontService,sans-serif" font-weight="700" font-size="55" transform="matrix(1 0 0 1 1326.27 3806)">Submitter</text><rect x="1293" y="5313" width="1780" height="599" fill="#70AD47" fill-opacity="0.501961"/><text fill="#FFFFFF" font-family="Calibri,Calibri_MSFontService,sans-serif" font-weight="700" font-size="55" transform="matrix(1 0 0 1 1326.27 5380)">Poller</text><text fill="#FFFFFF" font-family="Calibri,Calibri_MSFontService,sans-serif" font-weight="700" font-size="55" transform="matrix(1 0 0 1 1458.86 5380)">/Receiver</text><rect x="1294" y="6587" width="1780" height="1028" fill="#70AD47" fill-opacity="0.501961"/><text fill="#FFFFFF" font-family="Calibri,Calibri_MSFontService,sans-serif" font-weight="700" font-size="55" transform="matrix(1 0 0 1 1327.28 6654)">Finisher</text><path d="M1886.5 489 2005.3 340.5 2361.7 340.5 2480.5 489 2361.7 637.5 2005.3 637.5Z" stroke="#2F528F" stroke-width="4.58333" stroke-miterlimit="8" fill="#4472C4" fill-rule="evenodd"/><text fill="#FFFFFF" font-family="Calibri,Calibri_MSFontService,sans-serif" font-weight="400" font-size="55" transform="matrix(1 0 0 1 2133.82 474)">Rule </text><text fill="#FFFFFF" font-family="Calibri,Calibri_MSFontService,sans-serif" font-weight="400" font-size="55" transform="matrix(1 0 0 1 2066.42 540)">evaluation</text><path d="M2065.49 7698.5 2301.51 7698.5C2332.43 7698.5 2357.5 7743.5 2357.5 7799 2357.5 7854.5 2332.43 7899.5 2301.51 7899.5L2065.49 7899.5C2034.57 7899.5 2009.5 7854.5 2009.5 7799 2009.5 7743.5 2034.57 7698.5 2065.49 7698.5Z" stroke="#2F528F" stroke-width="4.58333" stroke-miterlimit="8" fill="#4472C4" fill-rule="evenodd"/><text fill="#FFFFFF" font-family="Calibri,Calibri_MSFontService,sans-serif" font-weight="400" font-size="55" transform="matrix(1 0 0 1 2122.64 7817)">finish</text><rect x="1844.5" y="3632.5" width="678" height="107" stroke="#AE5A21" stroke-width="4.58333" stroke-miterlimit="8" fill="#ED7D31"/><text fill="#FFFFFF" font-family="Calibri,Calibri_MSFontService,sans-serif" font-weight="400" font-size="55" transform="matrix(1 0 0 1 2052.05 3703)">Queued (Q)</text><rect x="2676.5" y="4367.5" width="678" height="107" stroke="#AE5A21" stroke-width="4.58333" stroke-miterlimit="8" fill="#ED7D31"/><text fill="#FFFFFF" font-family="Calibri,Calibri_MSFontService,sans-serif" font-weight="400" font-size="55" transform="matrix(1 0 0 1 2853.4 4439)">Submitting (G)</text><rect x="1844.5" y="5204.5" width="678" height="107" stroke="#AE5A21" stroke-width="4.58333" stroke-miterlimit="8" fill="#ED7D31"/><text fill="#FFFFFF" font-family="Calibri,Calibri_MSFontService,sans-serif" font-weight="400" font-size="55" transform="matrix(1 0 0 1 2032.23 5276)">Submitted (S)</text><rect x="1929.5" y="6262.5" width="678" height="107" stroke="#AE5A21" stroke-width="4.58333" stroke-miterlimit="8" fill="#ED7D31"/><text fill="#FFFFFF" font-family="Calibri,Calibri_MSFontService,sans-serif" font-weight="400" font-size="55" transform="matrix(1 0 0 1 2166.72 6333)">Failed (F)</text><rect x="1216.5" y="6399.5" width="678" height="107" stroke="#AE5A21" stroke-width="4.58333" stroke-miterlimit="8" fill="#ED7D31"/><text fill="#FFFFFF" font-family="Calibri,Calibri_MSFontService,sans-serif" font-weight="400" font-size="55" transform="matrix(1 0 0 1 1455.63 6470)">Done (D)</text><rect x="2676.5" y="6125.5" width="678" height="107" stroke="#AE5A21" stroke-width="4.58333" stroke-miterlimit="8" fill="#ED7D31"/><text fill="#FFFFFF" font-family="Calibri,Calibri_MSFontService,sans-serif" font-weight="400" font-size="55" transform="matrix(1 0 0 1 2934.67 6196)">Lost (L)</text><rect x="3204.5" y="6585.5" width="679" height="107" stroke="#AE5A21" stroke-width="4.58333" stroke-miterlimit="8" fill="#ED7D31"/><text fill="#FFFFFF" font-family="Calibri,Calibri_MSFontService,sans-serif" font-weight="400" font-size="55" transform="matrix(1 0 0 1 3377.35 6656)">No Sources (N)</text><rect x="3204.5" y="6729.5" width="679" height="106" stroke="#AE5A21" stroke-width="4.58333" stroke-miterlimit="8" fill="#ED7D31"/><text fill="#FFFFFF" font-family="Calibri,Calibri_MSFontService,sans-serif" font-weight="400" font-size="55" transform="matrix(1 0 0 1 3292.17 6800)">Scheme Mismatch (M)</text><rect x="3204.5" y="6891.5" width="679" height="107" stroke="#AE5A21" stroke-width="4.58333" stroke-miterlimit="8" fill="#ED7D31"/><text fill="#FFFFFF" font-family="Calibri,Calibri_MSFontService,sans-serif" font-weight="400" font-size="55" transform="matrix(1 0 0 1 3314.09 6963)">Only tape source (O)</text><rect x="2676.5" y="5963.5" width="678" height="107" stroke="#AE5A21" stroke-width="4.58333" stroke-miterlimit="8" fill="#ED7D31"/><text fill="#FFFFFF" font-family="Calibri,Calibri_MSFontService,sans-serif" font-weight="400" font-size="55" transform="matrix(1 0 0 1 2781.36 6034)">Submission failed (A)</text><rect x="1844.5" y="2123.5" width="678" height="107" stroke="#AE5A21" stroke-width="4.58333" stroke-miterlimit="8" fill="#ED7D31"/><text fill="#FFFFFF" font-family="Calibri,Calibri_MSFontService,sans-serif" font-weight="400" font-size="55" transform="matrix(1 0 0 1 2050.26 2195)">Waiting (W)</text><rect x="1844.5" y="1238.5" width="678" height="107" stroke="#AE5A21" stroke-width="4.58333" stroke-miterlimit="8" fill="#ED7D31"/><text fill="#FFFFFF" font-family="Calibri,Calibri_MSFontService,sans-serif" font-weight="400" font-size="55" transform="matrix(1 0 0 1 2038.21 1309)">Preparing (P)</text><path d="M1820.5 978.5 2183.5 813.5 2546.5 978.5 2183.5 1143.5Z" stroke="#2F528F" stroke-width="4.58333" stroke-miterlimit="8" fill="#4472C4" fill-rule="evenodd"/><text fill="#FFFFFF" font-family="Calibri,Calibri_MSFontService,sans-serif" font-weight="400" font-size="55" transform="matrix(1 0 0 1 2144.13 962)">use </text><text fill="#FFFFFF" font-family="Calibri,Calibri_MSFontService,sans-serif" font-weight="400" font-size="55" transform="matrix(1 0 0 1 2073.53 1028)">preparer?</text><path d="M0 4.58333-1199.69 4.58333-1195.1 0-1195.1 2707.71-1199.69 2703.13 0.89339 2703.13 0.89339 2712.3-1204.27 2712.3-1204.27-4.58333 0-4.58333ZM-3.69085 2693.96 23.8092 2707.71-3.69085 2721.46Z" fill="#4472C4" transform="matrix(-1 0 0 1 2546.31 978.5)"/><path d="M1820.5 1685.5 2183.5 1520.5 2546.5 1685.5 2183.5 1850.5Z" stroke="#2F528F" stroke-width="4.58333" stroke-miterlimit="8" fill="#4472C4" fill-rule="evenodd"/><text fill="#FFFFFF" font-family="Calibri,Calibri_MSFontService,sans-serif" font-weight="400" font-size="55" transform="matrix(1 0 0 1 2073.92 1670)">Throttling </text><text fill="#FFFFFF" font-family="Calibri,Calibri_MSFontService,sans-serif" font-weight="400" font-size="55" transform="matrix(1 0 0 1 2075.54 1736)">required?</text><path d="M1820.5 1690.08 1738 1690.08 1742.58 1685.5 1742.58 1987.33 1738 1982.74 2188.08 1982.74 2188.08 2101.24 2178.92 2101.24 2178.92 1987.33 2183.5 1991.91 1733.42 1991.91 1733.42 1680.92 1820.5 1680.92ZM2197.25 2096.66 2183.5 2124.16 2169.75 2096.66Z" fill="#4472C4"/><path d="M0 4.58333-838.749 4.58333-834.166 0-834.166 1950.4-838.751 1945.82 0.959185 1945.47 0.963049 1954.63-843.333 1954.99-843.333-4.58333 0-4.58333ZM-4.67042 1936.7 23.8095 1948.28-2.54622 1964.11Z" fill="#4472C4" transform="matrix(-1 0 0 1 2546.31 1685.5)"/><path d="M1820.5 2609.08 1542.06 2609.08 1546.65 2604.5 1546.65 3496.74 1542.06 3492.16 2188.08 3492.16 2188.08 3609.82 2178.92 3609.82 2178.92 3496.74 2183.5 3501.32 1537.48 3501.32 1537.48 2599.92 1820.5 2599.92ZM2197.25 3605.23 2183.5 3632.73 2169.75 3605.23Z" fill="#4472C4"/><path d="M1820.5 4033.08 1738 4033.08 1742.58 4028.5 1742.58 4280.55 1738 4275.97 3019.86 4275.97 3019.86 4344.69 3010.69 4344.69 3010.69 4280.55 3015.27 4285.14 1733.42 4285.14 1733.42 4023.92 1820.5 4023.92ZM3029.02 4340.1 3015.27 4367.6 3001.52 4340.1Z" fill="#4472C4"/><path d="M1820.5 4762.5 2183.5 4597.5 2546.5 4762.5 2183.5 4927.5Z" stroke="#2F528F" stroke-width="4.58333" stroke-miterlimit="8" fill="#4472C4" fill-rule="evenodd"/><text fill="#FFFFFF" font-family="Calibri,Calibri_MSFontService,sans-serif" font-weight="400" font-size="55" transform="matrix(1 0 0 1 2055.15 4780)">Submitted?</text><path d="M3019.86 4474.5 3019.86 4540.43 2183.5 4540.43 2188.08 4535.84 2188.08 4574.27 2178.92 4574.27 2178.92 4531.26 3015.27 4531.26 3010.69 4535.84 3010.69 4474.5ZM2197.25 4569.69 2183.5 4597.19 2169.75 4569.69Z" fill="#4472C4"/><path d="M2546.5 4757.92 3441.55 4757.92 3441.55 6021.47 3377.38 6021.47 3377.38 6012.3 3436.97 6012.3 3432.38 6016.89 3432.38 4762.5 3436.97 4767.08 2546.5 4767.08ZM3381.96 6030.64 3354.46 6016.89 3381.96 6003.14Z" fill="#4472C4"/><path d="M1820.5 4028.5 2183.5 3863.5 2546.5 4028.5 2183.5 4193.5Z" stroke="#2F528F" stroke-width="4.58333" stroke-miterlimit="8" fill="#4472C4" fill-rule="evenodd"/><text fill="#FFFFFF" font-family="Calibri,Calibri_MSFontService,sans-serif" font-weight="400" font-size="55" transform="matrix(1 0 0 1 2093.81 4013)">Found a </text><text fill="#FFFFFF" font-family="Calibri,Calibri_MSFontService,sans-serif" font-weight="400" font-size="55" transform="matrix(1 0 0 1 2049.21 4079)">source RSE?</text><path d="M1820.5 2604.5 2183.5 2439.5 2546.5 2604.5 2183.5 2769.5Z" stroke="#2F528F" stroke-width="4.58333" stroke-miterlimit="8" fill="#4472C4" fill-rule="evenodd"/><text fill="#FFFFFF" font-family="Calibri,Calibri_MSFontService,sans-serif" font-weight="400" font-size="55" transform="matrix(1 0 0 1 2071.63 2556)">Nb. active </text><text fill="#FFFFFF" font-family="Calibri,Calibri_MSFontService,sans-serif" font-weight="400" font-size="55" transform="matrix(1 0 0 1 2065.6 2622)">transfers &lt; </text><text fill="#FFFFFF" font-family="Calibri,Calibri_MSFontService,sans-serif" font-weight="400" font-size="55" transform="matrix(1 0 0 1 2120.35 2688)">limit?</text><path d="M2546.5 4023.92 3546.22 4023.92 3546.22 6418.37 3537.05 6418.37 3537.05 4028.5 3541.64 4033.08 2546.5 4033.08ZM3555.39 6413.78 3541.64 6441.28 3527.89 6413.78Z" fill="#4472C4"/><path d="M944.5 5275.5 1066.7 5076.5 1555.5 5076.5 1433.3 5275.5Z" stroke="#2F528F" stroke-width="4.58333" stroke-miterlimit="8" fill="#4472C4" fill-rule="evenodd"/><text fill="#FFFFFF" font-family="Calibri,Calibri_MSFontService,sans-serif" font-weight="400" font-size="55" transform="matrix(1 0 0 1 1115.5 5161)">Transfertool</text><text fill="#FFFFFF" font-family="Calibri,Calibri_MSFontService,sans-serif" font-weight="400" font-size="55" transform="matrix(1 0 0 1 1105.85 5227)">(FTS/Globus)</text><rect x="3127.5" y="6441.5" width="829" height="614" stroke="#ED7D31" stroke-width="3.4375" stroke-linejoin="round" stroke-miterlimit="10" stroke-dasharray="27.5 10.3125" fill="none"/><text fill="#ED7D31" font-family="Calibri,Calibri_MSFontService,sans-serif" font-weight="700" font-size="55" transform="matrix(1 0 0 1 3322.96 6508)">Failed without submission</text><path d="M2188.08 637.5 2188.08 789.799 2178.92 789.799 2178.92 637.5ZM2197.25 785.216 2183.5 812.716 2169.75 785.216Z" fill="#4472C4"/><path d="M4.58333-9.44976e-06 4.58365 152.124-4.58302 152.124-4.58333 9.44976e-06ZM13.7503 147.54 0.000360892 175.04-13.7497 147.54Z" fill="#4472C4" transform="matrix(-1 0 0 1 2183.5 1345.5)"/><path d="M4.58333-7.93927e-06 4.58365 185.426-4.58301 185.426-4.58333 7.93927e-06ZM13.7503 180.843 0.000360892 208.343-13.7497 180.843Z" fill="#4472C4" transform="matrix(-1 0 0 1 2183.5 2230.5)"/><path d="M1.14583-3.32132e-06 1.14613 101.589-1.14554 101.589-1.14583 3.32132e-06ZM13.7503 97.0053 0.000360892 124.505-13.7497 97.0054Z" fill="#4472C4" transform="matrix(-1 0 0 1 2183 3739)"/><path d="M1820.5 983.083 1738 983.083 1742.58 978.5 1742.58 1191.05 1738 1186.47 2188.08 1186.47 2188.08 1215.68 2178.92 1215.68 2178.92 1191.05 2183.5 1195.63 1733.42 1195.63 1733.42 973.917 1820.5 973.917ZM2197.25 1211.1 2183.5 1238.6 2169.75 1211.1Z" fill="#4472C4"/><path d="M0 4.58333-82.5019 4.58333-77.9186 0-77.9186 257.523-82.5019 252.94 366.259 252.94 366.259 327.131 357.092 327.131 357.092 257.523 361.676 262.107-87.0852 262.107-87.0852-4.58333 0-4.58333ZM375.426 322.548 361.676 350.048 347.926 322.548Z" fill="#4472C4" transform="matrix(-1 0 0 1 2546.18 2604.5)"/><path d="M1820.5 4767.08 1738 4767.08 1742.58 4762.5 1742.58 5066.17 1738 5061.59 2188.08 5061.59 2188.08 5181.93 2178.92 5181.93 2178.92 5066.17 2183.5 5070.76 1733.42 5070.76 1733.42 4757.92 1820.5 4757.92ZM2197.25 5177.34 2183.5 5204.84 2169.75 5177.34Z" fill="#4472C4"/><path d="M1245.92 5076.62 1246.17 5067.46 1255.33 5067.71 1255.08 5076.87ZM1246.9 5058.08 1246.95 5057.5 1248.12 5048.75 1257.2 5049.96 1256.05 5058.6 1256.08 5058.36 1256.04 5058.81ZM1249.79 5039.5 1250.01 5038.33 1251.9 5030.35 1260.82 5032.46 1258.95 5040.33 1259 5040.11 1258.8 5041.17ZM1254.42 5021.31 1255.01 5019.26 1257.33 5012.4 1266.02 5015.34 1263.73 5022.1 1263.79 5021.9 1263.23 5023.85ZM1260.61 5003.63 1261.89 5000.34 1264.24 4995 1272.63 4998.68 1270.33 5003.93 1270.4 5003.75 1269.16 5006.95ZM1268.18 4986.51 1270.58 4981.61 1272.42 4978.19 1280.49 4982.53 1278.69 4985.87 1278.77 4985.71 1276.42 4990.54ZM1276.93 4970.01 1280.99 4963.1 1281.7 4961.99 1289.43 4966.92 1288.77 4967.96 1288.85 4967.82 1284.83 4974.66ZM1286.62 4954.26 1286.83 4953.94 1291.89 4946.57 1299.45 4951.75 1294.43 4959.07 1294.51 4958.94 1294.36 4959.19ZM1297.36 4939.02 1299.71 4935.84 1303.02 4931.63 1310.22 4937.29 1306.96 4941.44 1307.05 4941.33 1304.74 4944.46ZM1308.85 4924.37 1314.15 4918.03 1314.83 4917.26 1321.69 4923.34 1321.05 4924.07 1321.14 4923.96 1315.88 4930.26ZM1320.92 4910.4 1321.96 4909.23 1327.36 4903.62 1333.96 4909.98 1328.62 4915.53 1328.75 4915.39 1327.78 4916.49ZM1333.72 4897.02 1338.59 4891.97 1340.34 4890.34 1346.6 4897.03 1344.94 4898.59 1345.11 4898.42 1340.32 4903.38ZM1347.03 4884.08 1353.72 4877.81 1359.99 4884.51 1353.29 4890.77ZM1360.75 4871.59 1367.73 4865.66 1373.67 4872.64 1366.68 4878.58ZM1374.72 4859.72 1376.04 4858.6 1382.08 4853.92 1387.69 4861.16 1381.74 4865.78 1381.9 4865.65 1380.66 4866.71ZM1389.32 4848.3 1396.57 4842.69 1402.18 4849.93 1394.94 4855.55ZM1404.19 4837.26 1411.67 4831.95 1416.97 4839.43 1409.5 4844.73ZM1419.31 4826.57 1426.99 4821.56 1431.99 4829.24 1424.32 4834.25ZM1434.66 4816.55 1441.57 4812.05 1442.51 4811.49 1447.22 4819.35 1446.36 4819.87 1446.51 4819.77 1439.67 4824.23ZM1450.37 4806.77 1458.23 4802.06 1462.95 4809.92 1455.08 4814.63ZM1466.25 4797.28 1474.27 4792.85 1478.7 4800.88 1470.67 4805.31ZM1482.3 4788.42 1490.32 4784 1494.75 4792.02 1486.73 4796.45ZM1498.63 4779.76 1506.81 4775.61 1510.96 4783.79 1502.78 4787.94ZM1514.98 4771.47 1516.82 4770.53 1523.4 4767.47 1527.27 4775.78 1520.76 4778.81 1520.9 4778.74 1519.13 4779.64ZM1531.71 4763.6 1540.02 4759.73 1543.89 4768.04 1535.58 4771.91ZM1548.53 4755.95 1556.96 4752.35 1560.56 4760.78 1552.13 4764.38ZM1565.4 4748.75 1571.54 4746.13 1573.99 4745.17 1577.32 4753.72 1574.93 4754.64 1575.07 4754.59 1568.99 4757.18ZM1582.54 4741.85 1591.08 4738.52 1594.4 4747.06 1585.86 4750.39ZM1599.62 4735.19 1600.08 4735.02 1608.39 4732.08 1611.45 4740.72 1603.2 4743.63 1603.34 4743.58 1602.95 4743.74ZM1617.03 4729.02 1625.68 4725.96 1628.73 4734.61 1620.09 4737.66ZM1634.51 4723.02 1643.24 4720.24 1646.03 4728.97 1637.29 4731.75ZM1651.97 4717.45 1659.19 4715.15 1660.86 4714.67 1663.37 4723.49 1661.77 4723.95 1661.91 4723.9 1654.76 4726.18ZM1669.67 4712.16 1678.49 4709.65 1681 4718.46 1672.19 4720.98ZM1687.3 4707.13 1689.64 4706.47 1696.31 4704.79 1698.55 4713.68 1691.95 4715.34 1692.08 4715.3 1689.82 4715.95ZM1705.2 4702.55 1714.09 4700.31 1716.33 4709.2 1707.44 4711.44ZM1723.14 4698.12 1732.09 4696.16 1734.05 4705.11 1725.1 4707.07ZM1741.05 4694.2 1750 4692.23 1751.96 4701.19 1743.01 4703.15ZM1759.14 4690.47 1768.15 4688.79 1769.83 4697.8 1760.82 4699.48ZM1777.16 4687.11 1783.8 4685.88 1786.33 4685.49 1787.72 4694.55 1785.26 4694.92 1785.41 4694.9 1778.84 4696.12ZM1795.39 4684.1 1804.45 4682.71 1805.84 4691.77 1796.78 4693.16ZM1813.52 4681.32 1815.92 4680.95 1822.75 4680.13 1823.85 4689.23 1817.09 4690.04 1817.23 4690.02 1814.91 4690.38ZM1831.85 4679.03 1840.96 4677.94 1842.05 4687.04 1832.95 4688.13ZM1850.21 4676.89 1859.35 4676.09 1860.14 4685.22 1851.01 4686.02ZM1868.48 4675.3 1877.61 4674.51 1878.4 4683.64 1869.27 4684.43ZM1886.91 4673.9 1896.07 4673.42 1896.55 4682.58 1887.4 4683.06ZM1905.22 4672.94 1913.56 4672.5 1914.53 4672.48 1914.7 4681.65 1913.8 4681.66 1913.96 4681.66 1905.7 4682.09ZM1918.59 4663.24 1946.33 4676.5 1919.08 4690.74Z" fill="#4472C4"/><path d="M1820.5 5620.5 2183.5 5455.5 2546.5 5620.5 2183.5 5785.5Z" stroke="#2F528F" stroke-width="4.58333" stroke-miterlimit="8" fill="#4472C4" fill-rule="evenodd"/><text fill="#FFFFFF" font-family="Calibri,Calibri_MSFontService,sans-serif" font-weight="400" font-size="55" transform="matrix(1 0 0 1 2114.34 5572)">Status </text><text fill="#FFFFFF" font-family="Calibri,Calibri_MSFontService,sans-serif" font-weight="400" font-size="55" transform="matrix(1 0 0 1 2061.86 5638)">changed in </text><text fill="#FFFFFF" font-family="Calibri,Calibri_MSFontService,sans-serif" font-weight="400" font-size="55" transform="matrix(1 0 0 1 2036.45 5704)">Transfertool</text><text fill="#FFFFFF" font-family="Calibri,Calibri_MSFontService,sans-serif" font-weight="400" font-size="55" transform="matrix(1 0 0 1 2304.5 5704)">?</text><path d="M4.58333-1.14765e-05 4.58364 121.211-4.58303 121.211-4.58333 1.14765e-05ZM13.7503 116.628 0.000360892 144.128-13.7497 116.628Z" fill="#4472C4" transform="matrix(-1 0 0 1 2183.5 5311.5)"/><path d="M0.200833-4.57893 6.26912-4.31277 9.72737-3.86069 8.53916 5.22864 5.27681 4.80217 5.67008 4.83643-0.200833 4.57893ZM19.4402-1.93971 24.9404-0.284072 28.4552 1.068 25.1641 9.62348 21.8094 8.33302 22.1339 8.44409 16.798 6.83792ZM37.3924 5.04346 43.265 8.27127 45.5843 9.73515 40.6916 17.4869 38.4895 16.097 38.7282 16.2377 32.977 13.0767ZM53.3954 14.9987 55.2493 16.3191 60.8337 20.747 55.1385 27.9298 49.6466 23.5752 49.8353 23.7171 48.0776 22.4653ZM68.026 27.0804 72.8612 31.6915 74.7178 33.611 68.1287 39.9838 66.3365 38.1308 66.4679 38.2613 61.6998 33.7142ZM81.1083 40.4175 84.3525 44.0326 87.2198 47.4589 80.1899 53.3418 77.3734 49.9762 77.4772 50.0959 74.2859 46.5398ZM93.0736 54.7015 95.6348 57.9695 98.69 62.117 91.3096 67.5537 88.295 63.4613 88.3777 63.5701 85.8587 60.3559ZM104.088 69.6821 106.713 73.4616 109.266 77.4558 101.543 82.3929 99.0367 78.4727 99.1341 78.6188 96.559 74.9115ZM114.203 85.1793 117.524 90.3736 119.128 93.156 111.186 97.7345 109.635 95.043 109.744 95.2223 106.48 90.1164ZM123.706 101.097 128.1 108.719 128.358 109.211 120.237 113.463 120.022 113.053 120.112 113.216 115.765 105.676ZM132.61 117.332 136.861 125.454 128.74 129.705 124.488 121.584ZM140.994 133.821 144.946 142.093 136.674 146.044 132.723 137.773ZM148.925 150.518 152.6 158.916 144.202 162.591 140.527 154.193ZM156.275 167.314 158.137 171.568 159.875 175.894 151.37 179.312 149.657 175.051 149.711 175.179 147.877 170.989ZM163.293 184.4 166.711 192.906 158.205 196.323 154.787 187.818ZM169.989 201.603 173.167 210.202 164.568 213.379 161.391 204.78ZM176.344 218.8 176.548 219.351 179.348 227.588 170.669 230.538 167.888 222.359 167.928 222.472 167.745 221.977ZM182.298 236.267 185.205 244.818 185.279 245.055 176.53 247.79 176.473 247.607 176.508 247.715 173.619 239.217ZM188.014 253.804 190.749 262.553 182 265.288 179.265 256.539ZM193.512 271.406 196.041 280.217 187.231 282.746 184.701 273.935ZM198.571 289.027 201.1 297.838 192.289 300.367 189.76 291.556ZM203.473 306.798 205.804 315.664 196.939 317.995 194.608 309.129ZM208.135 324.529 208.721 326.756 210.345 333.527 201.432 335.666 199.819 328.943 199.843 329.039 199.27 326.86ZM212.484 342.441 214.623 351.354 205.709 353.493 203.571 344.579ZM216.686 360.384 218.638 369.34 209.681 371.292 207.73 362.335ZM220.589 378.297 222.127 385.357 222.52 387.354 213.525 389.121 213.142 387.171 213.161 387.263 211.632 380.248ZM224.287 396.348 226.055 405.343 217.06 407.111 215.292 398.116ZM227.822 414.338 228.082 415.658 229.451 423.452 220.422 425.038 219.061 417.29 219.078 417.381 218.827 416.105ZM231.037 432.481 232.622 441.509 223.594 443.095 222.008 434.067ZM234.143 450.641 235.548 459.699 226.49 461.105 225.084 452.047ZM236.954 468.757 238.359 477.816 229.301 479.221 227.896 470.163ZM239.6 486.99 240.825 496.074 231.741 497.3 230.515 488.215ZM242.051 505.159 242.676 509.794 243.198 514.344 234.091 515.389 233.574 510.884 233.586 510.974 232.966 506.384ZM244.243 523.451 245.288 532.558 236.181 533.603 235.136 524.496ZM246.333 541.665 246.375 542.036 247.211 550.882 238.085 551.744 237.253 542.944 237.263 543.035 237.226 542.71ZM248.074 560.008 248.936 569.134 239.81 569.996 238.948 560.87ZM249.732 578.358 250.41 587.5 241.268 588.178 240.59 579.036ZM251.088 596.642 251.765 605.783 242.624 606.461 241.946 597.319ZM252.294 615.029 252.784 624.182 243.631 624.672 243.141 615.518ZM253.274 633.336 253.655 640.451 253.724 642.587 244.562 642.885 244.495 640.797 244.499 640.893 244.12 633.826ZM254.022 651.749 254.32 660.911 245.158 661.209 244.86 652.047ZM254.617 670.073 254.732 673.606 254.795 679.336 245.629 679.436 245.566 673.755 245.569 673.854 245.455 670.37ZM263.96 679.177 250.513 706.826 236.462 679.479Z" fill="#4472C4" transform="matrix(1.83697e-16 1 1 -1.83697e-16 1250.5 5275.5)"/><path d="M2546.31 5616.51 2628.81 5616.51 2624.23 5621.1 2624.23 5258.5 2628.81 5263.08 2545.42 5263.08 2545.42 5253.92 2633.39 5253.92 2633.39 5625.68 2546.31 5625.68ZM2550 5272.25 2522.5 5258.5 2550 5244.75Z" fill="#4472C4"/><path d="M1820.5 5625.08 1738 5625.08 1742.58 5620.5 1742.58 6178.36 1738 6173.78 2653.17 6173.78 2653.17 6182.94 1733.41 6182.94 1733.41 5615.92 1820.5 5615.92ZM2648.58 6164.61 2676.08 6178.36 2648.58 6192.11Z" fill="#4472C4"/><text font-family="Calibri,Calibri_MSFontService,sans-serif" font-weight="400" font-size="55" transform="matrix(1 0 0 1 2654.33 5382)">Update last</text><text font-family="Calibri,Calibri_MSFontService,sans-serif" font-weight="400" font-size="55" transform="matrix(1 0 0 1 2654.33 5448)">access time</text><path d="M2218.5 7296.5 2581.5 7131.5 2944.5 7296.5 2581.5 7461.5Z" stroke="#2F528F" stroke-width="4.58333" stroke-miterlimit="8" fill="#4472C4" fill-rule="evenodd"/><text fill="#FFFFFF" font-family="Calibri,Calibri_MSFontService,sans-serif" font-weight="400" font-size="55" transform="matrix(1 0 0 1 2456.45 7281)">Less than 3 </text><text fill="#FFFFFF" font-family="Calibri,Calibri_MSFontService,sans-serif" font-weight="400" font-size="55" transform="matrix(1 0 0 1 2512.59 7347)">tries ? </text><path d="M3062.8 6368.5 3062.8 6490.59 2581.5 6490.59 2586.08 6486 2586.08 7108.59 2576.92 7108.59 2576.92 6481.42 3058.22 6481.42 3053.64 6486 3053.64 6368.5ZM2595.25 7104.01 2581.5 7131.51 2567.75 7104.01Z" fill="#4472C4"/><path d="M0-4.58333 272.945-4.58333 272.945 378.1 268.362 373.516 513.807 373.516 513.807 382.683 263.779 382.683 263.779 0 268.362 4.58333 0 4.58333ZM509.224 364.35 536.724 378.1 509.224 391.85Z" fill="#4472C4" transform="matrix(-1 1.22465e-16 1.22465e-16 1 3127.22 6748.5)"/><path d="M0-4.58333 269.631-4.58333 269.631 755.417 260.464 755.417 260.464 0 265.047 4.58333 0 4.58333ZM278.797 750.834 265.047 778.334 251.297 750.834Z" fill="#4472C4" transform="matrix(-1 1.22465e-16 1.22465e-16 1 1820.55 5620.5)"/><path d="M1820.5 5625.08 1648.63 5625.08 1653.21 5620.5 1653.21 6315.61 1648.63 6311.03 1906.28 6311.03 1906.28 6320.2 1644.04 6320.2 1644.04 5615.92 1820.5 5615.92ZM1901.7 6301.86 1929.2 6315.61 1901.7 6329.36Z" fill="#4472C4"/><path d="M0-4.58333 761.388-4.58333 761.483 283.096 752.316 283.099 752.223 0.00151329 756.806 4.58333 0 4.58333ZM770.553 278.235 757.367 306.01 743.059 278.796Z" fill="#4472C4" transform="matrix(1.83697e-16 1 1 -1.83697e-16 2268.5 6369.5)"/><path d="M0-4.58333 561.991-4.58333 561.991 294.742 552.825 294.742 552.825 0 557.408 4.58333 0 4.58333ZM571.158 290.159 557.408 317.659 543.658 290.159Z" fill="#4472C4" transform="matrix(1.83697e-16 1 1 -1.83697e-16 1692.5 7241.5)"/><path d="M2944.48 7292.09 4065.78 7292.09 4061.19 7296.67 4061.19 803.127 4065.78 807.711 2204.73 809.439 2204.72 800.273 4070.36 798.54 4070.36 7301.26 2944.48 7301.26ZM2214.16 815.863 2183.5 813.5 2203.78 790.394Z" fill="#4472C4"/><rect x="1455.5" y="7020.5" width="474" height="221" stroke="#2F528F" stroke-width="4.58333" stroke-miterlimit="8" fill="#4472C4"/><text fill="#FFFFFF" font-family="Calibri,Calibri_MSFontService,sans-serif" font-weight="400" font-size="55" transform="matrix(1 0 0 1 1521.8 7116)">Mark replica as </text><text fill="#FFFFFF" font-family="Calibri,Calibri_MSFontService,sans-serif" font-weight="400" font-size="55" transform="matrix(1 0 0 1 1593.69 7182)">available</text><path d="M0-4.58333 261.846-4.58333 261.846 136.617 257.263 132.033 491.609 132.033 491.609 141.2 252.68 141.2 252.68 0 257.263 4.58333 0 4.58333ZM487.026 122.867 514.526 136.617 487.026 150.367Z" fill="#4472C4" transform="matrix(1.83697e-16 1 1 -1.83697e-16 1555.5 6506.5)"/><path d="M0-4.58333 39.5585-4.58333 39.5585 379.788 30.3918 379.788 30.3918 0 34.9752 4.58333 0 4.58333ZM48.7252 375.205 34.9752 402.705 21.2252 375.205Z" fill="#4472C4" transform="matrix(-1 1.22465e-16 1.22465e-16 1 2218.48 7296.5)"/><text fill="#2E75B6" font-family="Calibri,Calibri_MSFontService,sans-serif" font-weight="400" font-size="55" transform="matrix(1 0 0 1 1742.88 950)">yes</text><text fill="#2E75B6" font-family="Calibri,Calibri_MSFontService,sans-serif" font-weight="400" font-size="55" transform="matrix(1 0 0 1 1733.95 1652)">yes</text><text fill="#2E75B6" font-family="Calibri,Calibri_MSFontService,sans-serif" font-weight="400" font-size="55" transform="matrix(1 0 0 1 1747.8 2576)">yes</text><text fill="#2E75B6" font-family="Calibri,Calibri_MSFontService,sans-serif" font-weight="400" font-size="55" transform="matrix(1 0 0 1 1742.88 3997)">yes</text><text fill="#2E75B6" font-family="Calibri,Calibri_MSFontService,sans-serif" font-weight="400" font-size="55" transform="matrix(1 0 0 1 1731.44 4729)">yes</text><text fill="#2E75B6" font-family="Calibri,Calibri_MSFontService,sans-serif" font-weight="400" font-size="55" transform="matrix(1 0 0 1 1744.05 5590)">yes</text><text fill="#2E75B6" font-family="Calibri,Calibri_MSFontService,sans-serif" font-weight="400" font-size="55" transform="matrix(1 0 0 1 2149.46 7270)">yes</text><text fill="#2E75B6" font-family="Calibri,Calibri_MSFontService,sans-serif" font-weight="400" font-size="55" transform="matrix(1 0 0 1 2545.21 951)">no</text><text fill="#2E75B6" font-family="Calibri,Calibri_MSFontService,sans-serif" font-weight="400" font-size="55" transform="matrix(1 0 0 1 2536.29 1653)">no</text><text fill="#2E75B6" font-family="Calibri,Calibri_MSFontService,sans-serif" font-weight="400" font-size="55" transform="matrix(1 0 0 1 2550.14 2576)">no</text><text fill="#2E75B6" font-family="Calibri,Calibri_MSFontService,sans-serif" font-weight="400" font-size="55" transform="matrix(1 0 0 1 2545.21 3997)">no</text><text fill="#2E75B6" font-family="Calibri,Calibri_MSFontService,sans-serif" font-weight="400" font-size="55" transform="matrix(1 0 0 1 2533.77 4729)">no</text><text fill="#2E75B6" font-family="Calibri,Calibri_MSFontService,sans-serif" font-weight="400" font-size="55" transform="matrix(1 0 0 1 2546.38 5591)">no</text><text fill="#2E75B6" font-family="Calibri,Calibri_MSFontService,sans-serif" font-weight="400" font-size="55" transform="matrix(1 0 0 1 2940.64 7270)">no</text><text fill="#2E75B6" font-family="Calibri,Calibri_MSFontService,sans-serif" font-weight="400" font-size="55" transform="matrix(1 0 0 1 2533.77 6463)">After a 2 hours delay</text><path d="M1821.5 3119.5 2184.5 2954.5 2547.5 3119.5 2184.5 3284.5Z" stroke="#2F528F" stroke-width="4.58333" stroke-miterlimit="8" fill="#4472C4" fill-rule="evenodd"/><text fill="#FFFFFF" font-family="Calibri,Calibri_MSFontService,sans-serif" font-weight="400" font-size="55" transform="matrix(1 0 0 1 2060.75 3071)">Waiting for </text><text fill="#FFFFFF" font-family="Calibri,Calibri_MSFontService,sans-serif" font-weight="400" font-size="55" transform="matrix(1 0 0 1 2047.27 3137)">more than 1 </text><text fill="#FFFFFF" font-family="Calibri,Calibri_MSFontService,sans-serif" font-weight="400" font-size="55" transform="matrix(1 0 0 1 2132.5 3203)">day?</text><path d="M2547.63 3114.78 3132.01 3114.78 3127.43 3119.36 3127.43 2177.5 3132.01 2182.08 2545.42 2182.08 2545.42 2172.92 3136.59 2172.92 3136.59 3123.94 2547.63 3123.94ZM2550 2191.25 2522.5 2177.5 2550 2163.75Z" fill="#4472C4"/><text fill="#2E75B6" font-family="Calibri,Calibri_MSFontService,sans-serif" font-weight="400" font-size="55" transform="matrix(1 0 0 1 2551.94 3090)">no</text><path d="M0 4.58333-598.124 4.58333-593.541 0-593.541 1827.49-598.124 1822.91-0.431739 1822.91-0.431739 1832.08-602.707 1832.08-602.707-4.58333 0-4.58333ZM-5.01496 1813.74 22.485 1827.49-5.01496 1841.24Z" fill="#4472C4" transform="matrix(1 -1.22465e-16 -1.22465e-16 -1 1821.5 3118.99)"/><text fill="#2E75B6" font-family="Calibri,Calibri_MSFontService,sans-serif" font-weight="400" font-size="55" transform="matrix(1 0 0 1 1733.95 3084)">yes</text></g></svg>