<svg width="3846" height="7090" xmlns="http://www.w3.org/2000/svg" xmlns:xlink="http://www.w3.org/1999/xlink" overflow="hidden"><defs><clipPath id="clip0"><rect x="250" y="336" width="3846" height="7090"/></clipPath></defs><g clip-path="url(#clip0)" transform="translate(-250 -336)"><rect x="2638.5" y="3814.5" width="823" height="2078" stroke="#ED7D31" stroke-width="3.4375" stroke-linejoin="round" stroke-miterlimit="10" stroke-dasharray="27.5 10.3125" fill="none"/><text fill="#ED7D31" font-family="Calibri,Calibri_MSFontService,sans-serif" font-weight="700" font-size="55" transform="matrix(1 0 0 1 2859.34 5860)">Failed during submission</text><rect x="1285" y="1344" width="1780" height="593" fill="#70AD47" fill-opacity="0.501961"/><text fill="#FFFFFF" font-family="Calibri,Calibri_MSFontService,sans-serif" font-weight="700" font-size="55" transform="matrix(1 0 0 1 1318.02 1411)">Preparer</text><rect x="1285" y="2229" width="1780" height="614" fill="#70AD47" fill-opacity="0.501961"/><text fill="#FFFFFF" font-family="Calibri,Calibri_MSFontService,sans-serif" font-weight="700" font-size="55" transform="matrix(1 0 0 1 1318.02 2297)">Throttler</text><rect x="1285" y="3263" width="1780" height="1261" fill="#70AD47" fill-opacity="0.501961"/><text fill="#FFFFFF" font-family="Calibri,Calibri_MSFontService,sans-serif" font-weight="700" font-size="55" transform="matrix(1 0 0 1 1318.02 3330)">Submitter</text><rect x="1285" y="4837" width="1780" height="600" fill="#70AD47" fill-opacity="0.501961"/><text fill="#FFFFFF" font-family="Calibri,Calibri_MSFontService,sans-serif" font-weight="700" font-size="55" transform="matrix(1 0 0 1 1318.02 4905)">Poller<tspan font-size="55" x="133.49" y="0">/Receiver</tspan></text><rect x="1285" y="6094" width="1780" height="1029" fill="#70AD47" fill-opacity="0.501961"/><text fill="#FFFFFF" font-family="Calibri,Calibri_MSFontService,sans-serif" font-weight="700" font-size="55" transform="matrix(1 0 0 1 1318.02 6162)">Finisher</text><path d="M1878.5 487 1997.3 338.5 2353.7 338.5 2472.5 487 2353.7 635.5 1997.3 635.5Z" stroke="#2F528F" stroke-width="4.58333" stroke-miterlimit="8" fill="#4472C4" fill-rule="evenodd"/><text fill="#FFFFFF" font-family="Calibri,Calibri_MSFontService,sans-serif" font-weight="400" font-size="55" transform="matrix(1 0 0 1 2125.56 471)">Rule <tspan font-size="55" x="-68.177" y="66">evaluation</tspan></text><path d="M2057.49 7223.5 2293.51 7223.5C2324.43 7223.5 2349.5 7268.27 2349.5 7323.5 2349.5 7378.73 2324.43 7423.5 2293.51 7423.5L2057.49 7423.5C2026.57 7423.5 2001.5 7378.73 2001.5 7323.5 2001.5 7268.27 2026.57 7223.5 2057.49 7223.5Z" stroke="#2F528F" stroke-width="4.58333" stroke-miterlimit="8" fill="#4472C4" fill-rule="evenodd"/><text fill="#FFFFFF" font-family="Calibri,Calibri_MSFontService,sans-serif" font-weight="400" font-size="55" transform="matrix(1 0 0 1 2114.39 7341)">finish</text><rect x="1836.5" y="3156.5" width="678" height="107" stroke="#AE5A21" stroke-width="4.58333" stroke-miterlimit="8" fill="#ED7D31"/><text fill="#FFFFFF" font-family="Calibri,Calibri_MSFontService,sans-serif" font-weight="400" font-size="55" transform="matrix(1 0 0 1 2044.21 3227)">Queued (Q)</text><rect x="2667.5" y="3892.5" width="679" height="106" stroke="#AE5A21" stroke-width="4.58333" stroke-miterlimit="8" fill="#ED7D31"/><text fill="#FFFFFF" font-family="Calibri,Calibri_MSFontService,sans-serif" font-weight="400" font-size="55" transform="matrix(1 0 0 1 2844.75 3963)">Submitting (G)</text><rect x="1836.5" y="4729.5" width="678" height="106" stroke="#AE5A21" stroke-width="4.58333" stroke-miterlimit="8" fill="#ED7D31"/><text fill="#FFFFFF" font-family="Calibri,Calibri_MSFontService,sans-serif" font-weight="400" font-size="55" transform="matrix(1 0 0 1 2023.29 4800)">Submitted (S)</text><rect x="1921.5" y="5786.5" width="678" height="107" stroke="#AE5A21" stroke-width="4.58333" stroke-miterlimit="8" fill="#ED7D31"/><text fill="#FFFFFF" font-family="Calibri,Calibri_MSFontService,sans-serif" font-weight="400" font-size="55" transform="matrix(1 0 0 1 2157.74 5858)">Failed (F)</text><rect x="1208.5" y="5923.5" width="678" height="107" stroke="#AE5A21" stroke-width="4.58333" stroke-miterlimit="8" fill="#ED7D31"/><text fill="#FFFFFF" font-family="Calibri,Calibri_MSFontService,sans-serif" font-weight="400" font-size="55" transform="matrix(1 0 0 1 1447.38 5994)">Done (D)</text><rect x="2667.5" y="5649.5" width="679" height="107" stroke="#AE5A21" stroke-width="4.58333" stroke-miterlimit="8" fill="#ED7D31"/><text fill="#FFFFFF" font-family="Calibri,Calibri_MSFontService,sans-serif" font-weight="400" font-size="55" transform="matrix(1 0 0 1 2926.11 5720)">Lost (L)</text><rect x="3196.5" y="6109.5" width="679" height="107" stroke="#AE5A21" stroke-width="4.58333" stroke-miterlimit="8" fill="#ED7D31"/><text fill="#FFFFFF" font-family="Calibri,Calibri_MSFontService,sans-serif" font-weight="400" font-size="55" transform="matrix(1 0 0 1 3368.7 6181)">No Sources (N)</text><rect x="3196.5" y="6253.5" width="679" height="107" stroke="#AE5A21" stroke-width="4.58333" stroke-miterlimit="8" fill="#ED7D31"/><text fill="#FFFFFF" font-family="Calibri,Calibri_MSFontService,sans-serif" font-weight="400" font-size="55" transform="matrix(1 0 0 1 3283.34 6324)">Scheme Mismatch (M)</text><rect x="3196.5" y="6416.5" width="679" height="107" stroke="#AE5A21" stroke-width="4.58333" stroke-miterlimit="8" fill="#ED7D31"/><text fill="#FFFFFF" font-family="Calibri,Calibri_MSFontService,sans-serif" font-weight="400" font-size="55" transform="matrix(1 0 0 1 3305.11 6487)">Only tape source (O)</text><rect x="2667.5" y="5487.5" width="679" height="107" stroke="#AE5A21" stroke-width="4.58333" stroke-miterlimit="8" fill="#ED7D31"/><text fill="#FFFFFF" font-family="Calibri,Calibri_MSFontService,sans-serif" font-weight="400" font-size="55" transform="matrix(1 0 0 1 2772.57 5559)">Submission failed (A)</text><rect x="1836.5" y="2120.5" width="678" height="107" stroke="#AE5A21" stroke-width="4.58333" stroke-miterlimit="8" fill="#ED7D31"/><text fill="#FFFFFF" font-family="Calibri,Calibri_MSFontService,sans-serif" font-weight="400" font-size="55" transform="matrix(1 0 0 1 2041.05 2192)">Waiting (W)</text><rect x="1836.5" y="1235.5" width="678" height="107" stroke="#AE5A21" stroke-width="4.58333" stroke-miterlimit="8" fill="#ED7D31"/><text fill="#FFFFFF" font-family="Calibri,Calibri_MSFontService,sans-serif" font-weight="400" font-size="55" transform="matrix(1 0 0 1 2029.6 1306)">Preparing (P)</text><path d="M1812.5 975.5 2175.5 810.5 2538.5 975.5 2175.5 1140.5Z" stroke="#2F528F" stroke-width="4.58333" stroke-miterlimit="8" fill="#4472C4" fill-rule="evenodd"/><text fill="#FFFFFF" font-family="Calibri,Calibri_MSFontService,sans-serif" font-weight="400" font-size="55" transform="matrix(1 0 0 1 2135.88 960)">use <tspan font-size="55" x="-71.3396" y="66">preparer?</tspan></text><path d="M0 4.58333-990.001 4.58333-985.417 0-985.417 2234.71-990.001 2230.13 0.892412 2230.13 0.892412 2239.3-994.584 2239.3-994.584-4.58333 0-4.58333ZM-3.69085 2220.96 23.8092 2234.71-3.69085 2248.46Z" fill="#4472C4" transform="matrix(-1 0 0 1 2538.31 975.5)"/><path d="M1812.5 1682.5 2175.5 1517.5 2538.5 1682.5 2175.5 1847.5Z" stroke="#2F528F" stroke-width="4.58333" stroke-miterlimit="8" fill="#4472C4" fill-rule="evenodd"/><text fill="#FFFFFF" font-family="Calibri,Calibri_MSFontService,sans-serif" font-weight="400" font-size="55" transform="matrix(1 0 0 1 2064.83 1667)">Throttling <tspan font-size="55" x="1.71875" y="66">required?</tspan></text><path d="M1812.5 1687.08 1730 1687.08 1734.58 1682.5 1734.58 1984.33 1730 1979.74 2180.08 1979.74 2180.08 2098.24 2170.92 2098.24 2170.92 1984.33 2175.5 1988.91 1725.42 1988.91 1725.42 1677.92 1812.5 1677.92ZM2189.25 2093.66 2175.5 2121.16 2161.75 2093.66Z" fill="#4472C4"/><path d="M0 4.58333-748.001 4.58333-743.417 0-743.417 1391.57-748.001 1386.99 367.583 1386.99 367.583 1451.26 358.416 1451.26 358.416 1391.57 363 1396.16-752.584 1396.16-752.584-4.58333 0-4.58333ZM376.75 1446.67 363 1474.17 349.25 1446.67Z" fill="#4472C4" transform="matrix(-1 0 0 1 2538.5 1682.5)"/><path d="M0 4.58333-82.5005 4.58333-77.9171 0-77.9171 360.115-82.5005 355.532 789.274 355.532 789.274 613.286 725.107 613.286 725.107 604.12 784.691 604.12 780.108 608.703 780.108 360.115 784.691 364.698-87.0838 364.698-87.0838-4.58333 0-4.58333ZM729.69 622.453 702.19 608.703 729.69 594.953Z" fill="#4472C4" transform="matrix(-1 0 0 1 2538.69 2601.5)"/><path d="M1812.5 3557.08 1730 3557.08 1734.58 3552.5 1734.58 3804.55 1730 3799.97 3011.86 3799.97 3011.86 3868.69 3002.69 3868.69 3002.69 3804.55 3007.27 3809.14 1725.42 3809.14 1725.42 3547.92 1812.5 3547.92ZM3021.02 3864.11 3007.27 3891.61 2993.52 3864.11Z" fill="#4472C4"/><path d="M1812.5 4286.5 2175.5 4121.5 2538.5 4286.5 2175.5 4451.5Z" stroke="#2F528F" stroke-width="4.58333" stroke-miterlimit="8" fill="#4472C4" fill-rule="evenodd"/><text fill="#FFFFFF" font-family="Calibri,Calibri_MSFontService,sans-serif" font-weight="400" font-size="55" transform="matrix(1 0 0 1 2046.21 4304)">Submitted?</text><path d="M3011.86 3998.5 3011.86 4064.43 2175.5 4064.43 2180.08 4059.84 2180.08 4098.27 2170.92 4098.27 2170.92 4055.26 3007.27 4055.26 3002.69 4059.84 3002.69 3998.5ZM2189.25 4093.69 2175.5 4121.19 2161.75 4093.69Z" fill="#4472C4"/><path d="M2538.5 4281.92 3433.55 4281.92 3433.55 5545.47 3369.38 5545.47 3369.38 5536.3 3428.97 5536.3 3424.38 5540.89 3424.38 4286.5 3428.97 4291.08 2538.5 4291.08ZM3373.96 5554.64 3346.46 5540.89 3373.96 5527.14Z" fill="#4472C4"/><path d="M1812.5 3552.5 2175.5 3387.5 2538.5 3552.5 2175.5 3717.5Z" stroke="#2F528F" stroke-width="4.58333" stroke-miterlimit="8" fill="#4472C4" fill-rule="evenodd"/><text fill="#FFFFFF" font-family="Calibri,Calibri_MSFontService,sans-serif" font-weight="400" font-size="55" transform="matrix(1 0 0 1 2085.16 3537)">Found a <tspan font-size="55" x="-44.9625" y="66">source RSE?</tspan></text><path d="M1812.5 2601.5 2175.5 2436.5 2538.5 2601.5 2175.5 2766.5Z" stroke="#2F528F" stroke-width="4.58333" stroke-miterlimit="8" fill="#4472C4" fill-rule="evenodd"/><text fill="#FFFFFF" font-family="Calibri,Calibri_MSFontService,sans-serif" font-weight="400" font-size="55" transform="matrix(1 0 0 1 2063.12 2553)">Nb. <tspan font-size="55" x="90.5208" y="0">active </tspan><tspan font-size="55" x="-7.74585" y="66">transfers </tspan><tspan font-size="55" x="203.66" y="66">&lt; </tspan><tspan font-size="55" x="48.9729" y="132">limit?</tspan></text><path d="M2538.5 3547.92 3538.22 3547.92 3538.22 5942.37 3529.05 5942.37 3529.05 3552.5 3533.64 3557.08 2538.5 3557.08ZM3547.39 5937.78 3533.64 5965.28 3519.89 5937.78Z" fill="#4472C4"/><path d="M255.5 4782.5 421.1 4583.5 1083.5 4583.5 917.9 4782.5Z" stroke="#2F528F" stroke-width="4.58333" stroke-miterlimit="8" fill="#4472C4" fill-rule="evenodd"/><text fill="#FFFFFF" font-family="Calibri,Calibri_MSFontService,sans-serif" font-weight="400" font-size="55" transform="matrix(1 0 0 1 531.737 4667)">Transfertool<tspan font-size="55" x="-6.30206" y="66">(FTS/Globus)</tspan></text><rect x="3119.5" y="5965.5" width="828" height="615" stroke="#ED7D31" stroke-width="3.4375" stroke-linejoin="round" stroke-miterlimit="10" stroke-dasharray="27.5 10.3125" fill="none"/><text fill="#ED7D31" font-family="Calibri,Calibri_MSFontService,sans-serif" font-weight="700" font-size="55" transform="matrix(1 0 0 1 3313.19 6033)">Failed without submission</text><path d="M2180.08 635.5 2180.08 787.799 2170.92 787.799 2170.92 635.5ZM2189.25 783.216 2175.5 810.716 2161.75 783.216Z" fill="#4472C4"/><path d="M4.58333-9.44976e-06 4.58365 152.124-4.58302 152.124-4.58333 9.44976e-06ZM13.7503 147.54 0.000360892 175.04-13.7497 147.54Z" fill="#4472C4" transform="matrix(-1 0 0 1 2175.5 1342.5)"/><path d="M4.58333-7.93927e-06 4.58365 185.426-4.58301 185.426-4.58333 7.93927e-06ZM13.7503 180.843 0.000360892 208.343-13.7497 180.843Z" fill="#4472C4" transform="matrix(-1 0 0 1 2175.5 2227.5)"/><path d="M1.14583-3.32132e-06 1.14613 101.589-1.14554 101.589-1.14583 3.32132e-06ZM13.7503 97.0053 0.000360892 124.505-13.7497 97.0054Z" fill="#4472C4" transform="matrix(-1 0 0 1 2175 3263)"/><path d="M1812.5 980.083 1730 980.083 1734.58 975.5 1734.58 1188.05 1730 1183.47 2180.08 1183.47 2180.08 1212.68 2170.92 1212.68 2170.92 1188.05 2175.5 1192.63 1725.42 1192.63 1725.42 970.917 1812.5 970.917ZM2189.25 1208.1 2175.5 1235.6 2161.75 1208.1Z" fill="#4472C4"/><path d="M0 4.58333-82.4999 4.58333-77.9165 0-77.9165 426.811-82.4999 422.228 0.892853 422.228 0.892853 431.395-87.0832 431.395-87.0832-4.58333 0-4.58333ZM-3.69049 413.061 23.8095 426.811-3.69049 440.561Z" fill="#4472C4" transform="matrix(1 -1.22465e-16 -1.22465e-16 -1 1812.5 2601.31)"/><path d="M1812.5 4291.08 1730 4291.08 1734.58 4286.5 1734.58 4590.17 1730 4585.59 2180.08 4585.59 2180.08 4705.93 2170.92 4705.93 2170.92 4590.17 2175.5 4594.76 1725.42 4594.76 1725.42 4281.92 1812.5 4281.92ZM2189.25 4701.34 2175.5 4728.84 2161.75 4701.34Z" fill="#4472C4"/><path d="M664.939 4583.17 665.846 4574.05 674.967 4574.95 674.061 4584.07ZM666.752 4564.92 666.92 4563.24 669.285 4555.24 678.075 4557.84 675.833 4565.42 675.998 4564.57 675.874 4565.83ZM671.885 4546.45 672.9 4543.02 675.671 4537.31 683.917 4541.32 681.311 4546.69 681.583 4545.98 680.675 4549.05ZM679.675 4529.07 682.644 4522.95 684.334 4520.45 691.931 4525.58 690.423 4527.81 690.748 4527.25 687.921 4533.07ZM689.464 4512.85 694.594 4505.26 702.191 4510.39 697.061 4517.98ZM700.689 4497.73 706.664 4490.77 713.616 4496.75 707.641 4503.7ZM712.943 4483.51 719.549 4477.16 725.904 4483.76 719.297 4490.12ZM726.156 4470.8 732.709 4464.5 733.059 4464.21 738.849 4471.32 738.645 4471.49 738.927 4471.24 732.51 4477.41ZM740.165 4458.42 747.272 4452.63 753.062 4459.74 745.955 4465.53ZM754.379 4446.84 755.911 4445.6 762.026 4441.26 767.329 4448.74 761.339 4452.98 761.583 4452.8 760.169 4453.95ZM769.503 4435.96 776.981 4430.65 782.283 4438.13 774.806 4443.43ZM784.771 4425.35 792.539 4420.48 797.405 4428.25 789.637 4433.12ZM800.308 4415.62 808.077 4410.75 812.943 4418.52 805.174 4423.39ZM816.187 4406.01 824.192 4401.54 828.658 4409.54 820.653 4414.01ZM832.196 4397.07 840.201 4392.61 844.668 4400.61 836.663 4405.08ZM848.477 4388.26 856.655 4384.12 860.796 4392.29 852.618 4396.44ZM864.833 4379.98 873.011 4375.83 877.152 4384.01 868.974 4388.15ZM881.413 4371.75 889.745 4367.93 893.566 4376.26 885.234 4380.08ZM898.077 4364.1 906.409 4360.28 910.23 4368.62 901.898 4372.44ZM914.741 4356.46 915.098 4356.3 923.339 4352.85 926.872 4361.31 918.704 4364.73 918.849 4364.66 918.562 4364.79ZM931.797 4349.32 940.256 4345.79 943.789 4354.25 935.33 4357.78ZM948.714 4342.26 954.732 4339.74 957.325 4338.75 960.612 4347.3 958.081 4348.27 958.204 4348.23 952.247 4350.71ZM965.881 4335.46 974.438 4332.17 977.726 4340.73 969.169 4344.02ZM982.995 4328.88 991.552 4325.6 994.84 4334.15 986.283 4337.44ZM1000.27 4322.36 1008.92 4319.32 1011.96 4327.97 1003.31 4331.01ZM1017.56 4316.28 1026.21 4313.24 1029.25 4321.89 1020.61 4324.93ZM1034.86 4310.2 1040.85 4308.09 1043.64 4307.19 1046.46 4315.91 1043.72 4316.8 1043.83 4316.76 1037.9 4318.84ZM1052.37 4304.38 1061.09 4301.56 1063.91 4310.29 1055.18 4313.1ZM1069.82 4298.75 1078.54 4295.93 1081.35 4304.66 1072.63 4307.47ZM1087.37 4293.1 1096.15 4290.48 1098.77 4299.27 1089.98 4301.88ZM1104.94 4287.87 1113.73 4285.26 1116.34 4294.04 1107.55 4296.66ZM1122.51 4282.64 1131.3 4280.03 1133.91 4288.82 1125.13 4291.43ZM1140.21 4277.49 1149.05 4275.07 1151.47 4283.91 1142.63 4286.33ZM1157.89 4272.65 1166.73 4270.22 1169.15 4279.07 1160.31 4281.49ZM1175.57 4267.8 1184.41 4265.38 1186.84 4274.22 1177.99 4276.64ZM1193.39 4263.1 1202.28 4260.86 1204.52 4269.75 1195.63 4271.99ZM1211.17 4258.62 1220.06 4256.38 1222.29 4265.27 1213.41 4267.51ZM1228.95 4254.14 1237.05 4252.1 1237.93 4251.9 1239.99 4260.83 1239.15 4261.03 1239.24 4261 1231.18 4263.03ZM1246.86 4249.85 1255.8 4247.79 1257.85 4256.72 1248.92 4258.78ZM1264.73 4245.73 1273.66 4243.68 1275.72 4252.61 1266.79 4254.67ZM1282.6 4241.63 1290.39 4239.83 1291.62 4239.57 1293.51 4248.54 1292.32 4248.79 1292.4 4248.78 1284.65 4250.56ZM1300.59 4237.69 1309.56 4235.8 1311.45 4244.77 1302.48 4246.66ZM1318.53 4233.91 1327.5 4232.03 1329.39 4241 1320.42 4242.88ZM1336.47 4230.14 1345.16 4228.31 1345.53 4228.24 1347.24 4237.25 1346.92 4237.31 1347.01 4237.29 1338.36 4239.11ZM1354.53 4226.53 1363.54 4224.81 1365.25 4233.82 1356.25 4235.53ZM1372.54 4223.1 1381.55 4221.39 1383.26 4230.39 1374.26 4232.1ZM1390.55 4219.67 1399.56 4217.96 1401.27 4226.96 1392.27 4228.68ZM1408.66 4216.35 1417.7 4214.79 1419.26 4223.83 1410.22 4225.39ZM1426.73 4213.24 1435.76 4211.68 1437.32 4220.71 1428.29 4222.27ZM1444.8 4210.12 1453.83 4208.56 1455.39 4217.6 1446.36 4219.15ZM1462.96 4207.07 1472.02 4205.67 1473.41 4214.73 1464.35 4216.13ZM1481.08 4204.28 1490.14 4202.88 1491.53 4211.94 1482.47 4213.34ZM1499.2 4201.49 1508.26 4200.09 1509.65 4209.15 1500.59 4210.54ZM1517.44 4198.68 1526.53 4197.53 1527.69 4206.62 1518.59 4207.77ZM1535.63 4196.37 1544.72 4195.22 1545.87 4204.31 1536.78 4205.47ZM1553.81 4194.06 1562.91 4192.91 1564.06 4202 1554.97 4203.16ZM1572 4191.75 1581.09 4190.6 1582.25 4199.69 1573.16 4200.85ZM1590.19 4189.45 1599.28 4188.29 1600.44 4197.38 1591.34 4198.54ZM1608.38 4187.14 1617.47 4185.98 1618.62 4195.08 1609.53 4196.23ZM1626.56 4184.83 1635.66 4183.67 1636.81 4192.77 1627.72 4193.92ZM1644.89 4182.71 1654.01 4181.79 1654.93 4190.92 1645.81 4191.83ZM1663.13 4180.88 1672.25 4179.96 1673.17 4189.08 1664.05 4190ZM1681.38 4179.05 1690.5 4178.13 1691.41 4187.25 1682.29 4188.17ZM1699.7 4177.24 1708.84 4176.48 1709.59 4185.62 1700.45 4186.37ZM1717.97 4175.73 1727.11 4174.98 1727.86 4184.12 1718.73 4184.87ZM1736.25 4174.23 1745.38 4173.48 1746.13 4182.62 1737 4183.37ZM1754.52 4172.73 1759.73 4172.3 1763.73 4172.04 1764.33 4181.18 1760.36 4181.44 1760.44 4181.44 1755.27 4181.86ZM1772.88 4171.44 1782.03 4170.84 1782.63 4179.99 1773.48 4180.59ZM1791.18 4170.24 1800.32 4169.64 1800.92 4178.79 1791.77 4179.39ZM1809.47 4169.04 1818.62 4168.45 1819.22 4177.59 1810.07 4178.19ZM1827.85 4167.95 1837.01 4167.52 1837.44 4176.68 1828.28 4177.11ZM1846.17 4167.09 1855.32 4166.66 1855.75 4175.82 1846.6 4176.25ZM1864.48 4166.23 1873.64 4165.8 1874.07 4174.96 1864.91 4175.39ZM1882.79 4165.37 1884.45 4165.29 1892.04 4165.08 1892.3 4174.24 1884.75 4174.45 1884.84 4174.45 1883.22 4174.53ZM1901.21 4164.82 1910.37 4164.57 1910.62 4173.73 1901.46 4173.99ZM1919.53 4164.31 1928.69 4164.06 1928.95 4173.22 1919.79 4173.47ZM1937.86 4163.8 1947.02 4163.54 1947.28 4172.71 1938.11 4172.96ZM1956.27 4163.45 1965.44 4163.36 1965.53 4172.52 1956.36 4172.62ZM1974.6 4163.27 1983.77 4163.18 1983.86 4172.34 1974.69 4172.43ZM1982.46 4154.02 2010.09 4167.5 1982.73 4181.52Z" fill="#4472C4"/><path d="M1812.5 5145.5 2175.5 4980.5 2538.5 5145.5 2175.5 5310.5Z" stroke="#2F528F" stroke-width="4.58333" stroke-miterlimit="8" fill="#4472C4" fill-rule="evenodd"/><text fill="#FFFFFF" font-family="Calibri,Calibri_MSFontService,sans-serif" font-weight="400" font-size="55" transform="matrix(1 0 0 1 2105.51 5064)">Status <tspan font-size="55" x="-52.1355" y="66">changed in </tspan><tspan font-size="55" x="-68.1771" y="132">Transfertool</tspan><tspan font-size="55" x="56.7188" y="198">?</tspan></text><path d="M4.58333-1.14765e-05 4.58364 121.211-4.58303 121.211-4.58333 1.14765e-05ZM13.7503 116.628 0.000360892 144.128-13.7497 116.628Z" fill="#4472C4" transform="matrix(-1 0 0 1 2175.5 4835.5)"/><path d="M0.676585-4.53312 9.74282-3.17995 8.38966 5.88629-0.676585 4.53312ZM19.579 0.00640161 27.3841 3.51868 28.6534 4.44995 23.2309 11.8408 22.3513 11.1954 23.1817 11.6796 15.8173 8.36568ZM36.0443 9.87239 40.5119 13.1502 43.5721 16.2719 37.0261 22.6889 34.227 19.8335 34.7888 20.3204 30.6218 17.2633ZM49.9891 22.8178 53.4034 26.3008 56.3533 30.1387 49.0855 35.7249 46.3036 32.1056 46.6645 32.521 43.4431 29.2348ZM61.9396 37.4065 65.9464 42.6195 67.5559 45.1534 59.8182 50.0683 58.3186 47.7074 58.5536 48.0431 54.6717 42.9928ZM72.4707 52.8911 77.3856 60.6288 69.6479 65.5437 64.733 57.806ZM81.9952 68.9299 86.3371 77.0031 78.2639 81.345 73.9221 73.2718ZM90.7642 85.3144 94.6574 93.6133 86.3586 97.5065 82.4654 89.2077ZM98.5507 101.912 102.443 110.209 102.523 110.4 94.0579 113.918 94.0177 113.822 94.1006 114.009 90.2519 105.805ZM106.04 118.865 109.558 127.33 101.093 130.848 97.5755 122.383ZM113.076 135.795 114.205 138.513 116.426 144.521 107.828 147.7 105.639 141.777 105.705 141.946 104.611 139.313ZM119.605 153.119 122.783 161.717 114.186 164.896 111.007 156.298ZM125.986 170.461 128.889 179.156 120.194 182.059 117.291 173.365ZM131.793 187.851 134.696 196.545 126.002 199.449 123.098 190.754ZM137.58 205.388 140.226 214.164 131.45 216.811 128.803 208.034ZM142.873 222.94 145.519 231.717 136.743 234.363 134.097 225.587ZM148.169 240.603 150.612 249.438 141.776 251.88 139.334 243.045ZM153.054 258.273 155.496 267.109 146.661 269.551 144.219 260.716ZM157.938 275.944 158.493 277.951 160.258 284.914 151.372 287.166 149.62 280.251 149.645 280.346 149.103 278.386ZM162.51 293.799 164.762 302.685 155.876 304.937 153.624 296.051ZM167.014 311.571 168.828 318.728 169.254 320.548 160.327 322.633 159.912 320.855 159.932 320.939 158.129 313.823ZM171.339 329.474 173.424 338.401 164.497 340.486 162.412 331.559ZM175.509 347.327 177.594 356.254 168.667 358.339 166.582 349.412ZM179.628 365.283 181.538 374.248 172.573 376.159 170.662 367.193ZM183.449 383.214 185.359 392.179 176.394 394.09 174.483 385.124ZM187.269 401.145 188.427 406.577 189.141 410.186 180.149 411.965 179.441 408.39 179.455 408.455 178.304 403.055ZM190.92 419.179 192.7 428.171 183.707 429.95 181.928 420.958ZM194.479 437.163 196.258 446.156 187.266 447.935 185.487 438.942ZM198.021 455.231 199.647 464.252 190.625 465.877 189 456.856ZM201.272 473.273 202.898 482.295 193.876 483.92 192.251 474.899ZM204.523 491.316 206.149 500.338 197.127 501.963 195.502 492.942ZM207.688 509.435 209.195 518.477 200.153 519.984 198.646 510.942ZM210.702 527.519 212.209 536.561 203.167 538.068 201.66 529.026ZM213.716 545.603 214.839 552.341 215.2 554.715 206.137 556.092 205.781 553.751 205.792 553.816 204.674 547.11ZM216.577 563.777 217.954 572.84 208.892 574.217 207.514 565.155ZM219.332 581.903 220.709 590.965 211.647 592.343 210.269 583.28ZM222.087 600.028 222.723 604.216 223.409 609.159 214.329 610.418 213.648 605.505 213.656 605.564 213.024 601.405ZM224.668 618.239 225.927 627.318 216.847 628.577 215.588 619.498ZM227.186 636.398 228.445 645.478 219.365 646.737 218.106 637.657ZM229.704 654.558 230.106 657.461 230.893 663.704 221.798 664.85 221.015 658.635 221.023 658.692 220.624 655.817ZM232.039 672.799 233.185 681.894 224.09 683.04 222.944 673.945ZM234.331 690.989 235.477 700.083 226.382 701.229 225.236 692.135ZM236.623 709.178 236.988 712.078 237.703 718.334 228.596 719.375 227.884 713.146 227.89 713.198 227.528 710.324ZM238.745 727.441 239.786 736.548 230.679 737.59 229.638 728.482ZM240.828 745.656 241.869 754.763 232.762 755.804 231.72 746.697ZM242.911 763.87 243.37 767.884 243.892 773.044 234.772 773.967 234.252 768.836 234.259 768.896 233.803 764.912ZM244.815 782.164 245.738 791.284 236.618 792.207 235.695 783.087ZM246.661 800.404 247.584 809.524 238.464 810.447 237.541 801.327ZM248.507 818.644 249.126 824.765 249.385 827.848 240.25 828.614 239.995 825.57 240.002 825.649 239.387 819.567ZM250.151 836.983 250.916 846.117 241.782 846.883 241.016 837.748ZM251.682 855.252 252.448 864.387 243.313 865.152 242.547 856.018ZM253.214 873.521 253.979 882.656 244.845 883.421 244.079 874.287ZM254.745 891.79 255.511 900.925 246.376 901.691 245.61 892.556ZM256.276 910.06 257.042 919.194 247.907 919.96 247.142 910.825ZM257.808 928.329 258.574 937.464 249.439 938.229 248.673 929.095ZM259.221 946.712 259.777 955.862 250.628 956.418 250.071 947.268ZM260.334 965.012 260.89 974.161 251.74 974.718 251.184 965.568ZM261.446 983.311 262.003 992.461 252.853 993.017 252.296 983.867ZM262.559 1001.61 263.115 1010.76 253.965 1011.32 253.409 1002.17ZM263.671 1019.91 264.228 1029.06 255.078 1029.62 254.522 1020.47ZM264.784 1038.21 265.34 1047.36 256.19 1047.92 255.634 1038.77ZM265.896 1056.51 266.141 1060.53 266.333 1065.78 257.172 1066.11 256.982 1060.92 256.988 1061.03 256.747 1057.07ZM266.669 1074.94 267.004 1084.1 257.844 1084.43 257.508 1075.27ZM267.34 1093.26 267.675 1102.42 258.515 1102.75 258.179 1093.59ZM268.011 1111.58 268.347 1120.74 259.186 1121.07 258.851 1111.91ZM268.682 1129.9 269.018 1139.06 259.857 1139.4 259.522 1130.23ZM269.353 1148.22 269.689 1157.38 260.529 1157.72 260.193 1148.56ZM270.025 1166.54 270.36 1175.7 261.2 1176.04 260.864 1166.88ZM270.622 1184.98 270.735 1194.14 261.569 1194.25 261.456 1185.09ZM270.849 1203.31 270.962 1212.47 261.796 1212.59 261.683 1203.42ZM271.076 1221.64 271.189 1230.8 262.023 1230.92 261.91 1221.75ZM271.302 1239.97 271.416 1249.14 262.25 1249.25 262.136 1240.08ZM271.529 1258.3 271.642 1267.47 262.477 1267.58 262.363 1258.42ZM271.756 1276.63 271.809 1280.95 262.643 1281.06 262.59 1276.75ZM280.918 1276.25 267.51 1303.92 253.421 1276.59Z" fill="#4472C4" transform="matrix(1.83697e-16 1 1 -1.83697e-16 669.5 4782.5)"/><path d="M2538.31 5140.51 2620.81 5140.51 2616.23 5145.1 2616.23 4782.5 2620.81 4787.08 2537.42 4787.08 2537.42 4777.92 2625.39 4777.92 2625.39 5149.68 2538.31 5149.68ZM2542 4796.25 2514.5 4782.5 2542 4768.75Z" fill="#4472C4"/><path d="M1812.5 5150.08 1730 5150.08 1734.58 5145.5 1734.58 5703.36 1730 5698.78 2645.17 5698.78 2645.17 5707.94 1725.41 5707.94 1725.41 5140.92 1812.5 5140.92ZM2640.58 5689.61 2668.08 5703.36 2640.58 5717.11Z" fill="#4472C4"/><text font-family="Arial,Arial_MSFontService,sans-serif" font-weight="400" font-size="55" transform="matrix(1 0 0 1 2646.08 4909)">Update last<tspan font-size="55" x="0" y="66">access tim</tspan><tspan font-size="55" x="259.531" y="66">e</tspan></text><path d="M2210.5 6820.5 2573.5 6655.5 2936.5 6820.5 2573.5 6985.5Z" stroke="#2F528F" stroke-width="4.58333" stroke-miterlimit="8" fill="#4472C4" fill-rule="evenodd"/><text fill="#FFFFFF" font-family="Calibri,Calibri_MSFontService,sans-serif" font-weight="400" font-size="55" transform="matrix(1 0 0 1 2448.2 6805)">Less<tspan font-size="55" x="106.563" y="0">than</tspan><tspan font-size="55" x="221.146" y="0">3 </tspan><tspan font-size="55" x="56.146" y="66">tries ? </tspan></text><path d="M3054.8 5892.5 3054.8 6014.59 2573.5 6014.59 2578.08 6010 2578.08 6632.59 2568.92 6632.59 2568.92 6005.42 3050.22 6005.42 3045.64 6010 3045.64 5892.5ZM2587.25 6628.01 2573.5 6655.51 2559.75 6628.01Z" fill="#4472C4"/><path d="M0-4.58333 550.407-4.58333 550.407 359.582 541.241 359.582 541.241 0 545.824 4.58333 0 4.58333ZM559.574 354.999 545.824 382.499 532.074 354.999Z" fill="#4472C4" transform="matrix(-1 1.22465e-16 1.22465e-16 1 3119.32 6272.5)"/><path d="M0-4.58333 269.631-4.58333 269.631 755.417 260.464 755.417 260.464 0 265.047 4.58333 0 4.58333ZM278.797 750.834 265.047 778.334 251.297 750.834Z" fill="#4472C4" transform="matrix(-1 1.22465e-16 1.22465e-16 1 1812.55 5145.5)"/><path d="M1812.5 5150.08 1730 5150.08 1734.58 5145.5 1734.58 5840.61 1730 5836.03 1898.28 5836.03 1898.28 5845.2 1725.42 5845.2 1725.42 5140.92 1812.5 5140.92ZM1893.7 5826.86 1921.2 5840.61 1893.7 5854.36Z" fill="#4472C4"/><path d="M0-4.58333 385.466-4.58333 385.466 313.089 380.883 308.506 738.849 308.506 738.849 317.673 376.3 317.673 376.3 0 380.883 4.58333 0 4.58333ZM734.266 299.339 761.766 313.089 734.266 326.839Z" fill="#4472C4" transform="matrix(1.83697e-16 1 1 -1.83697e-16 2260.5 5893.5)"/><path d="M0-4.58333 561.991-4.58333 561.991 294.742 552.825 294.742 552.825 0 557.408 4.58333 0 4.58333ZM571.158 290.159 557.408 317.659 543.658 290.159Z" fill="#4472C4" transform="matrix(1.83697e-16 1 1 -1.83697e-16 1683.5 6765.5)"/><path d="M2936.48 6816.09 4091.48 6816.09 4086.89 6820.67 4086.89 727.979 4091.48 732.562 2175.5 732.562 2180.08 727.979 2180.08 787.583 2170.92 787.583 2170.92 723.396 4096.06 723.396 4096.06 6825.26 2936.48 6825.26ZM2189.25 783 2175.5 810.5 2161.75 783Z" fill="#4472C4"/><rect x="1446.5" y="6544.5" width="475" height="221" stroke="#2F528F" stroke-width="4.58333" stroke-miterlimit="8" fill="#4472C4"/><text fill="#FFFFFF" font-family="Calibri,Calibri_MSFontService,sans-serif" font-weight="400" font-size="55" transform="matrix(1 0 0 1 1512.96 6640)">Mark replica as <tspan font-size="55" x="71.6145" y="66">available</tspan></text><path d="M0-4.58333 261.846-4.58333 261.846 136.617 257.263 132.033 491.609 132.033 491.609 141.2 252.68 141.2 252.68 0 257.263 4.58333 0 4.58333ZM487.026 122.867 514.526 136.617 487.026 150.367Z" fill="#4472C4" transform="matrix(1.83697e-16 1 1 -1.83697e-16 1547.5 6030.5)"/><path d="M0-4.58333 39.5585-4.58333 39.5585 379.788 30.3918 379.788 30.3918 0 34.9752 4.58333 0 4.58333ZM48.7252 375.205 34.9752 402.705 21.2252 375.205Z" fill="#4472C4" transform="matrix(-1 1.22465e-16 1.22465e-16 1 2210.48 6820.5)"/><text fill="#2E75B6" font-family="Arial,Arial_MSFontService,sans-serif" font-weight="400" font-size="55" transform="matrix(1 0 0 1 1734.63 950)">yes<tspan font-size="55" x="-8.92371" y="701">yes</tspan><tspan font-size="55" x="4.92737" y="1625">yes</tspan><tspan font-size="55" x="0" y="2573">yes</tspan><tspan font-size="55" x="-11.4359" y="3305">yes</tspan><tspan font-size="55" x="1.17261" y="4166">yes</tspan><tspan font-size="55" x="406.582" y="5846">yes</tspan><tspan font-size="55" x="802.332" y="0">no</tspan><tspan font-size="55" x="793.409" y="702">no</tspan><tspan font-size="55" x="807.26" y="1625">no</tspan><tspan font-size="55" x="802.332" y="2574">no</tspan><tspan font-size="55" x="790.897" y="3305">no</tspan><tspan font-size="55" x="803.505" y="4167">no</tspan><tspan font-size="55" x="1197.76" y="5846">no</tspan></text></g></svg>