<svg xmlns="http://www.w3.org/2000/svg" viewBox="0 0 595.28 419.53"><defs><style>.cls-1{fill:#fff;}</style></defs><title>Horizontaled_White</title><g id="White"><path class="cls-1" d="M164.12,233.55v9.26a1.79,1.79,0,0,1-1.79,1.78H96.24a1.78,1.78,0,0,1-1.78-1.78h-3.3a5.09,5.09,0,0,0,5.08,5.08h66.09a5.09,5.09,0,0,0,5.08-5.08V230.59A11.6,11.6,0,0,1,164.12,233.55Z"/><path class="cls-1" d="M164.12,176.72v36.8a11.57,11.57,0,0,1,3.29,3V176.72a5.09,5.09,0,0,0-5.08-5.08H125.18v3.29h37.15A1.79,1.79,0,0,1,164.12,176.72Z"/><path class="cls-1" d="M110.09,238.4l-2.69-1.55,1.56-2.7,2.69,1.56ZM113.2,233l-2.69-1.55,1.56-2.69,2.69,1.55Zm3.11-5.38-2.69-1.56,1.56-2.69,2.69,1.56Zm3.11-5.39-2.69-1.55,1.55-2.69,2.7,1.55Zm3.11-5.38-2.69-1.56,1.55-2.69,2.7,1.56Zm3.11-5.39L123,209.92l1.55-2.69,2.7,1.55Zm3.1-5.17-2.49-1.86a15.84,15.84,0,0,1,2.32-2.52l2.05,2.33A13.07,13.07,0,0,0,128.74,206.3Zm17.47-3.59a13.72,13.72,0,0,0-2.54-1.14l1-2.95a15.85,15.85,0,0,1,3.12,1.4Zm-13.32-.07-1.53-2.71a17.13,17.13,0,0,1,3.14-1.36l.94,3A14,14,0,0,0,132.89,202.64ZM141,201a12.92,12.92,0,0,0-2.78,0l-.31-3.1a16.29,16.29,0,0,1,3.42,0Z"/><path class="cls-1" d="M126.25,199.2a1.69,1.69,0,0,1-1.29-.61L110.8,181.71a1.68,1.68,0,0,1,1.68-2.71,20.33,20.33,0,0,1,15.45,18.41,1.69,1.69,0,0,1-1.05,1.66A1.58,1.58,0,0,1,126.25,199.2Zm-13.26-18,12.85,15.31A18.31,18.31,0,0,0,113,181.21Z"/><path class="cls-1" d="M117.75,206.3a25.53,25.53,0,0,1-23.28-15.22,1.86,1.86,0,0,1,2.63-2.37l24.2,14a1.86,1.86,0,0,1-.72,3.46A27,27,0,0,1,117.75,206.3ZM96.48,190.66a23.49,23.49,0,0,0,23.45,13.54Zm-.38-.21Z"/><path class="cls-1" d="M151,212.19a1.75,1.75,0,0,1-.23.88,1.7,1.7,0,1,1-.62-2.32,1.68,1.68,0,0,1,.84,1.33,3.45,3.45,0,1,0,0,.11Z"/><path class="cls-1" d="M162.92,215.14l-8.4-4.84h0L145,204.79h0a11,11,0,0,0-15,4L111.2,241.3h25.45L146,225.13l3,1.72a9.7,9.7,0,1,0,14-11.71Zm-.32,7.17a1.7,1.7,0,1,1,.63,2.32A1.7,1.7,0,0,1,162.6,222.31ZM136.19,240.5h-23.6l18-31.27a10.21,10.21,0,0,1,13.94-3.75l.18.1,8.67,5-4.78,8.28v0c-.1.2-.2.38-.29.54ZM166,228.22a9.46,9.46,0,0,1-1.18,1.55,49.3,49.3,0,0,1-8.15-.86l.3-1.57a48.63,48.63,0,0,0,9,.84Z"/><path class="cls-1" d="M237.05,194.69q0-21.88-30.19-21.89H182.59v74.08h20v-27h5.07l15.71,27h22.69L224.49,214.6Q237.06,207.57,237.05,194.69Zm-30.7,10.18H202.6V188h4q10.29,0,10.29,7.65Q216.84,204.87,206.35,204.87Z"/><path class="cls-1" d="M295.78,216.17q0,8-2.77,11.53t-8.89,3.52q-5.72,0-8.66-3.55t-2.94-11.4V172.8H252.41v45q0,14.53,8.13,22.29t23.28,7.75q15.51,0,23.74-8t8.23-22.52V172.8h-20Z"/><path class="cls-1" d="M364.33,188.15a28.57,28.57,0,0,1,8.81,1.32,69.17,69.17,0,0,1,8.21,3.24L387.48,177a52.64,52.64,0,0,0-23-5.22,37.59,37.59,0,0,0-19.13,4.69,31,31,0,0,0-12.46,13.4A44.83,44.83,0,0,0,328.61,210q0,18.39,8.94,28.12t25.71,9.73a51.4,51.4,0,0,0,21-4.1V226.86a93.71,93.71,0,0,1-9.27,3.3,33.42,33.42,0,0,1-9.53,1.36q-16.26,0-16.26-21.38,0-10.27,4-16.13A12.77,12.77,0,0,1,364.33,188.15Z"/><rect class="cls-1" x="398.68" y="172.8" width="20.11" height="74.07"/><path class="cls-1" d="M495,181.31q-9.12-9.67-26.81-9.67t-26.88,9.75q-9.24,9.75-9.24,28.25,0,18.69,9.3,28.47t26.72,9.78q17.69,0,26.85-9.73t9.18-28.42Q504.12,191,495,181.31ZM479.37,226q-3.67,5.22-11.28,5.22-14.94,0-14.94-21.48,0-21.69,15-21.69,7.4,0,11.12,5.3T483,209.74Q483,220.78,479.37,226Z"/></g></svg>