<svg width="121" height="121" viewBox="0 0 121 121" xmlns="http://www.w3.org/2000/svg" xmlns:xlink="http://www.w3.org/1999/xlink"><g transform="translate(210 4317)"><mask id="a"><use xlink:href="#path0_fill" fill="#fff" transform="translate(-209.549 -4316.67)"/><use xlink:href="#path1_fill" fill="#fff" transform="translate(-209.549 -4316.67)"/><use xlink:href="#path2_fill" fill="#fff" transform="translate(-209.549 -4316.67)"/></mask><g mask="url(#a)"><use xlink:href="#path3_stroke_2x" transform="translate(-209.549 -4316.67)" fill="#2D2D2D"/></g></g><defs><path id="path0_fill" d="M88.153 46.78a3 3 0 01-1.483 2.61L61.342 64.244a3.004 3.004 0 01-3 .023L32.791 49.79a2.996 2.996 0 01-1.52-2.584l-.218-29.33a3 3 0 011.483-2.609L57.865.413a3.004 3.004 0 013-.023l25.55 14.477a2.995 2.995 0 011.52 2.584l.218 29.33z"/><path id="path1_fill" d="M57.1 102.487a3 3 0 01-1.483 2.61l-25.329 14.854a3.003 3.003 0 01-3 .022l-25.55-14.477a2.995 2.995 0 01-1.52-2.584L0 73.583a3 3 0 011.483-2.61L26.811 56.12a3.005 3.005 0 013.001-.023l25.55 14.477a2.996 2.996 0 011.52 2.584l.218 29.329z"/><path id="path2_fill" d="M120.1 102.485a3 3 0 01-1.484 2.61l-25.328 14.854a3.006 3.006 0 01-3 .023l-25.55-14.478a2.995 2.995 0 01-1.52-2.583L63 73.581a3 3 0 011.483-2.61l25.328-14.854a3.005 3.005 0 013.001-.022l25.55 14.477a2.996 2.996 0 011.519 2.584l.219 29.329z"/><path id="path3_stroke_2x" d="M86.416 14.867l-4.93 8.7 4.93-8.7zm1.519 2.584l10-.074-10 .074zM57.865.413l-5.059-8.626 5.06 8.626zm3-.023l4.93-8.7-4.93 8.7zm-29.81 17.487l-10 .074 10-.074zm1.483-2.61l5.059 8.626-5.059-8.626zm.255 34.523l4.93-8.7-4.93 8.7zm-1.52-2.584l10-.075-10 .075zm30.07 17.038l5.06 8.626-5.06-8.626zm-3 .023l-4.93 8.7 4.93-8.7zM86.67 49.39l-5.058-8.626 5.058 8.626zm1.483-2.61l-10 .075 10-.075zM55.362 70.574l-4.93 8.7 4.93-8.7zm1.52 2.584l-10 .074 10-.074zM26.811 56.12l-5.06-8.627 5.06 8.627zm3-.023l4.93-8.7-4.93 8.7zM0 73.583l-10 .075 10-.075zm1.483-2.61L6.542 79.6l-5.059-8.626zm.255 34.523l-4.93 8.701 4.93-8.701zm-1.52-2.584l10-.074-10 .074zm30.07 17.039l5.06 8.626-5.06-8.626zm-3 .022l4.93-8.7-4.93 8.7zm28.329-14.876l-5.06-8.626 5.06 8.626zm1.483-2.61l10-.075-10 .075zm61.262-31.915l4.93-8.7-4.93 8.7zm1.519 2.584l10-.075-10 .075zm-30.07-17.039l-5.059-8.625 5.06 8.626zm3.001-.022l-4.93 8.7 4.93-8.7zM63 73.58l10-.074-10 .074zm1.483-2.61l5.059 8.627-5.059-8.626zm.255 34.523l-4.93 8.701 4.93-8.701zm-1.52-2.583l-10 .074 10-.074zm30.07 17.038l5.06 8.626-5.06-8.626zm-3 .023l4.93-8.701-4.93 8.701zm28.328-14.877l-5.058-8.626 5.058 8.626zm1.484-2.61l-10 .074 10-.074zm-38.488-61.72L56.283 55.618 66.401 72.87 91.73 58.016 81.612 40.764zm-18.34 14.803L37.721 41.09l-9.86 17.4 25.55 14.477 9.86-17.4zm-22-8.435l-.218-29.33-20 .15.219 29.328 19.999-.148zm-3.676-23.239L62.924 9.039 52.806-8.213 27.478 6.641l10.118 17.252zm18.34-14.802l25.55 14.477 9.86-17.401L65.796-8.31l-9.86 17.4zm22 8.435l.218 29.329 20-.15-.22-29.328-19.999.149zm3.55 6.042a7.004 7.004 0 01-3.55-6.042l19.999-.15a12.995 12.995 0 00-6.59-11.21l-9.86 17.402zM62.924 9.039a6.996 6.996 0 01-6.988.052l9.86-17.401a13.004 13.004 0 00-12.99.097L62.924 9.039zm-21.87 8.763a7 7 0 01-3.458 6.091L27.478 6.641a13 13 0 00-6.424 11.31l20-.149zM37.72 41.09a7.004 7.004 0 013.551 6.041l-20 .15a12.996 12.996 0 006.59 11.21l9.86-17.401zm18.562 14.528a6.995 6.995 0 016.988-.051l-9.86 17.4a13.004 13.004 0 0012.99-.097L56.283 55.618zm35.446 2.398a13 13 0 006.424-11.31l-20 .149a7 7 0 013.459-6.091l10.117 17.252zm-41.17 38.455L25.23 111.325l10.117 17.252 25.328-14.854-10.117-17.252zm-18.34 14.802L6.668 96.796l-9.86 17.401 25.55 14.477 9.86-17.401zm-22-8.435L10 73.508l-20 .15.219 29.329 20-.149zM6.542 79.6L31.87 64.746 21.752 47.494-3.576 62.347 6.542 79.6zm18.34-14.803l25.55 14.477 9.86-17.4-25.55-14.478-9.86 17.401zm22 8.435l.218 29.329 20-.149-.22-29.329-19.998.15zm3.55 6.042a7.004 7.004 0 01-3.55-6.042l19.999-.149a12.996 12.996 0 00-6.59-11.21l-9.859 17.401zM31.87 64.746a6.995 6.995 0 01-6.988.051l9.86-17.4a13.004 13.004 0 00-12.99.096L31.87 64.746zM10 73.509a7 7 0 01-3.458 6.09l-10.118-17.25A13 13 0 00-10 73.658l20-.15zM6.668 96.796a7.005 7.005 0 013.55 6.042l-20 .149a12.997 12.997 0 006.59 11.21l9.86-17.401zm18.562 14.529a6.994 6.994 0 016.988-.052l-9.86 17.401a13.006 13.006 0 0012.99-.097L25.23 111.325zm35.445 2.398a13.001 13.001 0 006.424-11.311l-20 .149a7 7 0 013.459-6.09l10.117 17.252zm52.883-17.254l-25.329 14.854 10.118 17.252 25.328-14.854-10.117-17.252zm-18.34 14.802l-25.55-14.477-9.86 17.401 25.55 14.477 9.86-17.401zm-22-8.435L73 73.506l-20 .15.219 29.329 20-.149zm-3.676-23.238L94.87 64.743 84.752 47.492 59.424 62.346l10.118 17.252zm18.34-14.803l25.55 14.477 9.86-17.4-25.55-14.478-9.86 17.401zm21.999 8.435l.219 29.329 19.999-.149-.218-29.329-20 .15zm3.551 6.042a7.006 7.006 0 01-3.551-6.042l20-.149a12.997 12.997 0 00-6.589-11.21l-9.86 17.401zM94.87 64.743a6.996 6.996 0 01-6.988.052l9.86-17.4a13.005 13.005 0 00-12.99.096L94.87 64.743zM73 73.507a7 7 0 01-3.458 6.09l-10.118-17.25A13 13 0 0053 73.656l20-.15zm-3.332 23.287a7.005 7.005 0 013.55 6.042l-20 .149a12.997 12.997 0 006.59 11.21l9.86-17.4zm18.561 14.529a6.994 6.994 0 016.988-.052l-9.86 17.401a13.006 13.006 0 0012.99-.097L88.23 111.323zm35.446 2.398a13 13 0 006.424-11.311l-19.999.149a7 7 0 013.458-6.09l10.117 17.252z"/></defs></svg>