<svg width="3164" height="7090" xmlns="http://www.w3.org/2000/svg" xmlns:xlink="http://www.w3.org/1999/xlink" xml:space="preserve" overflow="hidden"><defs><clipPath id="clip0"><rect x="932" y="336" width="3164" height="7090"/></clipPath></defs><g clip-path="url(#clip0)" transform="translate(-932 -336)"><rect x="2638.5" y="3814.5" width="823" height="2078" stroke="#ED7D31" stroke-width="3.4375" stroke-linejoin="round" stroke-miterlimit="10" stroke-dasharray="27.5 10.3125" fill="none"/><text fill="#ED7D31" font-family="Calibri,Calibri_MSFontService,sans-serif" font-weight="700" font-size="55" transform="matrix(1 0 0 1 2859.34 5860)">Failed during submission</text><rect x="1285" y="1344" width="1780" height="593" fill="#70AD47" fill-opacity="0.501961"/><text fill="#FFFFFF" font-family="Calibri,Calibri_MSFontService,sans-serif" font-weight="700" font-size="55" transform="matrix(1 0 0 1 1318.02 1411)">Preparer</text><rect x="1285" y="2229" width="1780" height="614" fill="#70AD47" fill-opacity="0.501961"/><text fill="#FFFFFF" font-family="Calibri,Calibri_MSFontService,sans-serif" font-weight="700" font-size="55" transform="matrix(1 0 0 1 1318.02 2297)">Throttler</text><rect x="1285" y="3263" width="1780" height="1261" fill="#70AD47" fill-opacity="0.501961"/><text fill="#FFFFFF" font-family="Calibri,Calibri_MSFontService,sans-serif" font-weight="700" font-size="55" transform="matrix(1 0 0 1 1318.02 3330)">Submitter</text><rect x="1285" y="4837" width="1780" height="600" fill="#70AD47" fill-opacity="0.501961"/><text fill="#FFFFFF" font-family="Calibri,Calibri_MSFontService,sans-serif" font-weight="700" font-size="55" transform="matrix(1 0 0 1 1318.02 4905)">Poller</text><text fill="#FFFFFF" font-family="Calibri,Calibri_MSFontService,sans-serif" font-weight="700" font-size="55" transform="matrix(1 0 0 1 1451.51 4905)">/Receiver</text><rect x="1285" y="6094" width="1780" height="1029" fill="#70AD47" fill-opacity="0.501961"/><text fill="#FFFFFF" font-family="Calibri,Calibri_MSFontService,sans-serif" font-weight="700" font-size="55" transform="matrix(1 0 0 1 1318.02 6162)">Finisher</text><path d="M1878.5 487 1997.3 338.5 2353.7 338.5 2472.5 487 2353.7 635.5 1997.3 635.5Z" stroke="#2F528F" stroke-width="4.58333" stroke-miterlimit="8" fill="#4472C4" fill-rule="evenodd"/><text fill="#FFFFFF" font-family="Calibri,Calibri_MSFontService,sans-serif" font-weight="400" font-size="55" transform="matrix(1 0 0 1 2125.56 471)">Rule </text><text fill="#FFFFFF" font-family="Calibri,Calibri_MSFontService,sans-serif" font-weight="400" font-size="55" transform="matrix(1 0 0 1 2057.38 537)">evaluation</text><path d="M2057.49 7223.5 2293.51 7223.5C2324.43 7223.5 2349.5 7268.27 2349.5 7323.5 2349.5 7378.73 2324.43 7423.5 2293.51 7423.5L2057.49 7423.5C2026.57 7423.5 2001.5 7378.73 2001.5 7323.5 2001.5 7268.27 2026.57 7223.5 2057.49 7223.5Z" stroke="#2F528F" stroke-width="4.58333" stroke-miterlimit="8" fill="#4472C4" fill-rule="evenodd"/><text fill="#FFFFFF" font-family="Calibri,Calibri_MSFontService,sans-serif" font-weight="400" font-size="55" transform="matrix(1 0 0 1 2114.39 7341)">finish</text><rect x="1836.5" y="3156.5" width="678" height="107" stroke="#AE5A21" stroke-width="4.58333" stroke-miterlimit="8" fill="#ED7D31"/><text fill="#FFFFFF" font-family="Calibri,Calibri_MSFontService,sans-serif" font-weight="400" font-size="55" transform="matrix(1 0 0 1 2044.21 3227)">Queued (Q)</text><rect x="2667.5" y="3892.5" width="679" height="106" stroke="#AE5A21" stroke-width="4.58333" stroke-miterlimit="8" fill="#ED7D31"/><text fill="#FFFFFF" font-family="Calibri,Calibri_MSFontService,sans-serif" font-weight="400" font-size="55" transform="matrix(1 0 0 1 2844.76 3963)">Submitting (G)</text><rect x="1836.5" y="4729.5" width="678" height="106" stroke="#AE5A21" stroke-width="4.58333" stroke-miterlimit="8" fill="#ED7D31"/><text fill="#FFFFFF" font-family="Calibri,Calibri_MSFontService,sans-serif" font-weight="400" font-size="55" transform="matrix(1 0 0 1 2023.29 4800)">Submitted (S)</text><rect x="1921.5" y="5786.5" width="678" height="107" stroke="#AE5A21" stroke-width="4.58333" stroke-miterlimit="8" fill="#ED7D31"/><text fill="#FFFFFF" font-family="Calibri,Calibri_MSFontService,sans-serif" font-weight="400" font-size="55" transform="matrix(1 0 0 1 2157.74 5858)">Failed (F)</text><rect x="1208.5" y="5923.5" width="678" height="107" stroke="#AE5A21" stroke-width="4.58333" stroke-miterlimit="8" fill="#ED7D31"/><text fill="#FFFFFF" font-family="Calibri,Calibri_MSFontService,sans-serif" font-weight="400" font-size="55" transform="matrix(1 0 0 1 1447.38 5994)">Done (D)</text><rect x="2667.5" y="5649.5" width="679" height="107" stroke="#AE5A21" stroke-width="4.58333" stroke-miterlimit="8" fill="#ED7D31"/><text fill="#FFFFFF" font-family="Calibri,Calibri_MSFontService,sans-serif" font-weight="400" font-size="55" transform="matrix(1 0 0 1 2926.11 5720)">Lost (L)</text><rect x="3196.5" y="6109.5" width="679" height="107" stroke="#AE5A21" stroke-width="4.58333" stroke-miterlimit="8" fill="#ED7D31"/><text fill="#FFFFFF" font-family="Calibri,Calibri_MSFontService,sans-serif" font-weight="400" font-size="55" transform="matrix(1 0 0 1 3368.7 6181)">No Sources (N)</text><rect x="3196.5" y="6253.5" width="679" height="107" stroke="#AE5A21" stroke-width="4.58333" stroke-miterlimit="8" fill="#ED7D31"/><text fill="#FFFFFF" font-family="Calibri,Calibri_MSFontService,sans-serif" font-weight="400" font-size="55" transform="matrix(1 0 0 1 3283.34 6324)">Scheme Mismatch (M)</text><rect x="3196.5" y="6416.5" width="679" height="107" stroke="#AE5A21" stroke-width="4.58333" stroke-miterlimit="8" fill="#ED7D31"/><text fill="#FFFFFF" font-family="Calibri,Calibri_MSFontService,sans-serif" font-weight="400" font-size="55" transform="matrix(1 0 0 1 3305.11 6487)">Only tape source (O)</text><rect x="2667.5" y="5487.5" width="679" height="107" stroke="#AE5A21" stroke-width="4.58333" stroke-miterlimit="8" fill="#ED7D31"/><text fill="#FFFFFF" font-family="Calibri,Calibri_MSFontService,sans-serif" font-weight="400" font-size="55" transform="matrix(1 0 0 1 2772.57 5559)">Submission failed (A)</text><rect x="1836.5" y="2120.5" width="678" height="107" stroke="#AE5A21" stroke-width="4.58333" stroke-miterlimit="8" fill="#ED7D31"/><text fill="#FFFFFF" font-family="Calibri,Calibri_MSFontService,sans-serif" font-weight="400" font-size="55" transform="matrix(1 0 0 1 2041.05 2192)">Waiting (W)</text><rect x="1836.5" y="1235.5" width="678" height="107" stroke="#AE5A21" stroke-width="4.58333" stroke-miterlimit="8" fill="#ED7D31"/><text fill="#FFFFFF" font-family="Calibri,Calibri_MSFontService,sans-serif" font-weight="400" font-size="55" transform="matrix(1 0 0 1 2029.6 1306)">Preparing (P)</text><path d="M1812.5 975.5 2175.5 810.5 2538.5 975.5 2175.5 1140.5Z" stroke="#2F528F" stroke-width="4.58333" stroke-miterlimit="8" fill="#4472C4" fill-rule="evenodd"/><text fill="#FFFFFF" font-family="Calibri,Calibri_MSFontService,sans-serif" font-weight="400" font-size="55" transform="matrix(1 0 0 1 2135.88 960)">use </text><text fill="#FFFFFF" font-family="Calibri,Calibri_MSFontService,sans-serif" font-weight="400" font-size="55" transform="matrix(1 0 0 1 2064.54 1026)">preparer?</text><path d="M0 4.58333-990.001 4.58333-985.417 0-985.417 2234.71-990.001 2230.13 0.892412 2230.13 0.892412 2239.3-994.584 2239.3-994.584-4.58333 0-4.58333ZM-3.69085 2220.96 23.8092 2234.71-3.69085 2248.46Z" fill="#4472C4" transform="matrix(-1 0 0 1 2538.31 975.5)"/><path d="M1812.5 1682.5 2175.5 1517.5 2538.5 1682.5 2175.5 1847.5Z" stroke="#2F528F" stroke-width="4.58333" stroke-miterlimit="8" fill="#4472C4" fill-rule="evenodd"/><text fill="#FFFFFF" font-family="Calibri,Calibri_MSFontService,sans-serif" font-weight="400" font-size="55" transform="matrix(1 0 0 1 2064.83 1667)">Throttling </text><text fill="#FFFFFF" font-family="Calibri,Calibri_MSFontService,sans-serif" font-weight="400" font-size="55" transform="matrix(1 0 0 1 2066.55 1733)">required?</text><path d="M1812.5 1687.08 1730 1687.08 1734.58 1682.5 1734.58 1984.33 1730 1979.74 2180.08 1979.74 2180.08 2098.24 2170.92 2098.24 2170.92 1984.33 2175.5 1988.91 1725.42 1988.91 1725.42 1677.92 1812.5 1677.92ZM2189.25 2093.66 2175.5 2121.16 2161.75 2093.66Z" fill="#4472C4"/><path d="M0 4.58333-748.001 4.58333-743.417 0-743.417 1391.57-748.001 1386.99 367.583 1386.99 367.583 1451.26 358.416 1451.26 358.416 1391.57 363 1396.16-752.584 1396.16-752.584-4.58333 0-4.58333ZM376.75 1446.67 363 1474.17 349.25 1446.67Z" fill="#4472C4" transform="matrix(-1 0 0 1 2538.5 1682.5)"/><path d="M1812.5 2606.08 1730 2606.08 1734.58 2601.5 1734.58 3210.2 1730 3205.62 1813.39 3205.62 1813.39 3214.79 1725.42 3214.79 1725.42 2596.92 1812.5 2596.92ZM1808.81 3196.45 1836.31 3210.2 1808.81 3223.95Z" fill="#4472C4"/><path d="M1812.5 3557.08 1730 3557.08 1734.58 3552.5 1734.58 3804.55 1730 3799.97 3011.86 3799.97 3011.86 3868.69 3002.69 3868.69 3002.69 3804.55 3007.27 3809.14 1725.42 3809.14 1725.42 3547.92 1812.5 3547.92ZM3021.02 3864.11 3007.27 3891.61 2993.52 3864.11Z" fill="#4472C4"/><path d="M1812.5 4286.5 2175.5 4121.5 2538.5 4286.5 2175.5 4451.5Z" stroke="#2F528F" stroke-width="4.58333" stroke-miterlimit="8" fill="#4472C4" fill-rule="evenodd"/><text fill="#FFFFFF" font-family="Calibri,Calibri_MSFontService,sans-serif" font-weight="400" font-size="55" transform="matrix(1 0 0 1 2046.21 4304)">Submitted?</text><path d="M3011.86 3998.5 3011.86 4064.43 2175.5 4064.43 2180.08 4059.84 2180.08 4098.27 2170.92 4098.27 2170.92 4055.26 3007.27 4055.26 3002.69 4059.84 3002.69 3998.5ZM2189.25 4093.69 2175.5 4121.19 2161.75 4093.69Z" fill="#4472C4"/><path d="M2538.5 4281.92 3433.55 4281.92 3433.55 5545.47 3369.38 5545.47 3369.38 5536.3 3428.97 5536.3 3424.38 5540.89 3424.38 4286.5 3428.97 4291.08 2538.5 4291.08ZM3373.96 5554.64 3346.46 5540.89 3373.96 5527.14Z" fill="#4472C4"/><path d="M1812.5 3552.5 2175.5 3387.5 2538.5 3552.5 2175.5 3717.5Z" stroke="#2F528F" stroke-width="4.58333" stroke-miterlimit="8" fill="#4472C4" fill-rule="evenodd"/><text fill="#FFFFFF" font-family="Calibri,Calibri_MSFontService,sans-serif" font-weight="400" font-size="55" transform="matrix(1 0 0 1 2085.16 3537)">Found a </text><text fill="#FFFFFF" font-family="Calibri,Calibri_MSFontService,sans-serif" font-weight="400" font-size="55" transform="matrix(1 0 0 1 2040.2 3603)">source RSE?</text><path d="M1812.5 2601.5 2175.5 2436.5 2538.5 2601.5 2175.5 2766.5Z" stroke="#2F528F" stroke-width="4.58333" stroke-miterlimit="8" fill="#4472C4" fill-rule="evenodd"/><text fill="#FFFFFF" font-family="Calibri,Calibri_MSFontService,sans-serif" font-weight="400" font-size="55" transform="matrix(1 0 0 1 2063.12 2553)">Nb. active </text><text fill="#FFFFFF" font-family="Calibri,Calibri_MSFontService,sans-serif" font-weight="400" font-size="55" transform="matrix(1 0 0 1 2055.38 2619)">transfers &lt; </text><text fill="#FFFFFF" font-family="Calibri,Calibri_MSFontService,sans-serif" font-weight="400" font-size="55" transform="matrix(1 0 0 1 2112.1 2685)">limit?</text><path d="M2538.5 3547.92 3538.22 3547.92 3538.22 5942.37 3529.05 5942.37 3529.05 3552.5 3533.64 3557.08 2538.5 3557.08ZM3547.39 5937.78 3533.64 5965.28 3519.89 5937.78Z" fill="#4472C4"/><path d="M936.5 4799.5 1058.5 4600.5 1546.5 4600.5 1424.5 4799.5Z" stroke="#2F528F" stroke-width="4.58333" stroke-miterlimit="8" fill="#4472C4" fill-rule="evenodd"/><text fill="#FFFFFF" font-family="Calibri,Calibri_MSFontService,sans-serif" font-weight="400" font-size="55" transform="matrix(1 0 0 1 1103.76 4685)">Transfertool</text><text fill="#FFFFFF" font-family="Calibri,Calibri_MSFontService,sans-serif" font-weight="400" font-size="55" transform="matrix(1 0 0 1 1097.46 4751)">(FTS/Globus)</text><rect x="3119.5" y="5965.5" width="828" height="615" stroke="#ED7D31" stroke-width="3.4375" stroke-linejoin="round" stroke-miterlimit="10" stroke-dasharray="27.5 10.3125" fill="none"/><text fill="#ED7D31" font-family="Calibri,Calibri_MSFontService,sans-serif" font-weight="700" font-size="55" transform="matrix(1 0 0 1 3313.19 6033)">Failed without submission</text><path d="M2180.08 635.5 2180.08 787.799 2170.92 787.799 2170.92 635.5ZM2189.25 783.216 2175.5 810.716 2161.75 783.216Z" fill="#4472C4"/><path d="M4.58333-9.44976e-06 4.58365 152.124-4.58302 152.124-4.58333 9.44976e-06ZM13.7503 147.54 0.000360892 175.04-13.7497 147.54Z" fill="#4472C4" transform="matrix(-1 0 0 1 2175.5 1342.5)"/><path d="M4.58333-7.93927e-06 4.58365 185.426-4.58301 185.426-4.58333 7.93927e-06ZM13.7503 180.843 0.000360892 208.343-13.7497 180.843Z" fill="#4472C4" transform="matrix(-1 0 0 1 2175.5 2227.5)"/><path d="M1.14583-3.32132e-06 1.14613 101.589-1.14554 101.589-1.14583 3.32132e-06ZM13.7503 97.0053 0.000360892 124.505-13.7497 97.0054Z" fill="#4472C4" transform="matrix(-1 0 0 1 2175 3263)"/><path d="M1812.5 980.083 1730 980.083 1734.58 975.5 1734.58 1188.05 1730 1183.47 2180.08 1183.47 2180.08 1212.68 2170.92 1212.68 2170.92 1188.05 2175.5 1192.63 1725.42 1192.63 1725.42 970.917 1812.5 970.917ZM2189.25 1208.1 2175.5 1235.6 2161.75 1208.1Z" fill="#4472C4"/><path d="M2538.31 2596.73 2620.81 2596.73 2616.23 2601.31 2616.23 2174.5 2620.81 2179.08 2537.42 2179.08 2537.42 2169.92 2625.39 2169.92 2625.39 2605.89 2538.31 2605.89ZM2542 2188.25 2514.5 2174.5 2542 2160.75Z" fill="#4472C4"/><path d="M1812.5 4291.08 1730 4291.08 1734.58 4286.5 1734.58 4590.17 1730 4585.59 2180.08 4585.59 2180.08 4705.93 2170.92 4705.93 2170.92 4590.17 2175.5 4594.76 1725.42 4594.76 1725.42 4281.92 1812.5 4281.92ZM2189.25 4701.34 2175.5 4728.84 2161.75 4701.34Z" fill="#4472C4"/><path d="M1236.92 4600.62 1237.16 4591.46 1246.33 4591.71 1246.08 4600.87ZM1237.9 4582.08 1237.94 4581.51 1239.11 4572.75 1248.2 4573.96 1247.04 4582.6 1247.07 4582.36 1247.03 4582.81ZM1240.79 4563.5 1241.01 4562.3 1242.88 4554.36 1251.8 4556.45 1249.96 4564.29 1250.01 4564.09 1249.8 4565.18ZM1245.41 4545.31 1246 4543.24 1248.36 4536.39 1257.03 4539.37 1254.71 4546.12 1254.78 4545.89 1254.21 4547.85ZM1251.63 4527.65 1252.89 4524.38 1255.25 4519 1263.64 4522.68 1261.32 4527.97 1261.4 4527.77 1260.18 4530.94ZM1259.16 4510.53 1261.54 4505.6 1263.4 4502.17 1271.46 4506.53 1269.66 4509.87 1269.75 4509.68 1267.42 4514.52ZM1267.92 4494.01 1271.97 4487.1 1272.68 4485.98 1280.41 4490.91 1279.74 4491.96 1279.83 4491.81 1275.82 4498.65ZM1277.62 4478.25 1277.8 4477.96 1282.89 4470.57 1290.44 4475.76 1285.4 4483.09 1285.49 4482.96 1285.34 4483.19ZM1288.38 4463.03 1290.73 4459.84 1294.04 4455.64 1301.24 4461.31 1297.98 4465.46 1298.06 4465.35 1295.75 4468.48ZM1299.85 4448.4 1305.15 4442.01 1305.83 4441.24 1312.67 4447.34 1312.05 4448.05 1312.15 4447.92 1306.9 4454.25ZM1311.93 4434.4 1312.95 4433.26 1318.37 4427.63 1324.97 4433.99 1319.61 4439.55 1319.73 4439.42 1318.77 4440.5ZM1324.73 4421.03 1329.59 4415.98 1331.34 4414.35 1337.61 4421.04 1335.95 4422.59 1336.11 4422.43 1331.33 4427.39ZM1338.03 4408.08 1344.72 4401.81 1350.98 4408.5 1344.29 4414.77ZM1351.75 4395.59 1358.74 4389.66 1364.67 4396.66 1357.68 4402.58ZM1365.74 4383.74 1367.05 4382.63 1373.08 4377.94 1378.71 4385.17 1372.75 4389.8 1372.9 4389.68 1371.66 4390.73ZM1380.32 4372.31 1387.56 4366.68 1393.18 4373.92 1385.94 4379.55ZM1395.19 4361.26 1402.67 4355.96 1407.97 4363.43 1400.49 4368.74ZM1410.31 4350.58 1417.99 4345.57 1423 4353.25 1415.32 4358.26ZM1425.66 4340.56 1432.57 4336.05 1433.51 4335.48 1438.22 4343.35 1437.35 4343.87 1437.51 4343.77 1430.67 4348.23ZM1441.38 4330.78 1449.25 4326.08 1453.95 4333.94 1446.08 4338.65ZM1457.26 4321.31 1465.29 4316.88 1469.72 4324.9 1461.69 4329.33ZM1473.31 4312.45 1481.33 4308.01 1485.77 4316.04 1477.74 4320.47ZM1489.64 4303.78 1497.82 4299.63 1501.96 4307.8 1493.79 4311.95ZM1505.99 4295.48 1507.81 4294.56 1514.41 4291.48 1518.28 4299.79 1511.75 4302.84 1511.89 4302.77 1510.14 4303.66ZM1522.72 4287.61 1531.03 4283.74 1534.9 4292.05 1526.59 4295.92ZM1539.55 4279.96 1547.98 4276.37 1551.57 4284.81 1543.14 4288.4ZM1556.42 4272.79 1562.52 4270.19 1565.02 4269.22 1568.34 4277.76 1565.91 4278.71 1566.04 4278.65 1560.01 4281.22ZM1573.56 4265.9 1582.1 4262.57 1585.43 4271.11 1576.88 4274.44ZM1590.65 4259.25 1591.09 4259.08 1599.41 4256.12 1602.47 4264.76 1594.22 4267.69 1594.35 4267.64 1593.97 4267.79ZM1608.05 4253.06 1616.69 4249.99 1619.75 4258.63 1611.11 4261.7ZM1625.53 4247.05 1634.27 4244.28 1637.04 4253.02 1628.3 4255.79ZM1643.01 4241.51 1650.18 4239.23 1651.89 4238.75 1654.4 4247.56 1652.75 4248.03 1652.89 4247.99 1645.78 4250.25ZM1660.71 4236.24 1669.52 4233.73 1672.03 4242.54 1663.22 4245.05ZM1678.34 4231.22 1680.63 4230.57 1687.35 4228.88 1689.58 4237.77 1682.93 4239.44 1683.07 4239.41 1680.85 4240.04ZM1696.24 4226.64 1705.13 4224.41 1707.36 4233.3 1698.47 4235.53ZM1714.17 4222.22 1723.12 4220.25 1725.09 4229.2 1716.14 4231.17ZM1732.08 4218.28 1741.03 4216.32 1743 4225.27 1734.04 4227.24ZM1750.18 4214.55 1759.19 4212.88 1760.86 4221.89 1751.85 4223.56ZM1768.2 4211.2 1774.8 4209.98 1777.37 4209.58 1778.76 4218.65 1776.25 4219.03 1776.4 4219 1769.88 4220.22ZM1786.44 4208.2 1795.5 4206.82 1796.88 4215.89 1787.82 4217.27ZM1804.56 4205.44 1806.94 4205.08 1813.79 4204.26 1814.89 4213.36 1808.11 4214.17 1808.25 4214.15 1805.94 4214.51ZM1822.9 4203.16 1832 4202.06 1833.09 4211.17 1823.99 4212.26ZM1841.26 4201.02 1850.39 4200.22 1851.18 4209.36 1842.05 4210.15ZM1859.52 4199.43 1868.65 4198.64 1869.44 4207.77 1860.31 4208.56ZM1877.96 4198.05 1887.11 4197.57 1887.59 4206.72 1878.43 4207.2ZM1896.27 4197.09 1904.52 4196.67 1905.55 4196.64 1905.76 4205.81 1904.79 4205.83 1904.93 4205.82 1896.74 4206.25ZM1909.52 4187.38 1937.33 4200.5 1910.15 4214.88Z" fill="#4472C4"/><path d="M1812.5 5145.5 2175.5 4980.5 2538.5 5145.5 2175.5 5310.5Z" stroke="#2F528F" stroke-width="4.58333" stroke-miterlimit="8" fill="#4472C4" fill-rule="evenodd"/><text fill="#FFFFFF" font-family="Calibri,Calibri_MSFontService,sans-serif" font-weight="400" font-size="55" transform="matrix(1 0 0 1 2105.51 5064)">Status </text><text fill="#FFFFFF" font-family="Calibri,Calibri_MSFontService,sans-serif" font-weight="400" font-size="55" transform="matrix(1 0 0 1 2053.37 5130)">changed in </text><text fill="#FFFFFF" font-family="Calibri,Calibri_MSFontService,sans-serif" font-weight="400" font-size="55" transform="matrix(1 0 0 1 2037.33 5196)">Transfertool</text><text fill="#FFFFFF" font-family="Calibri,Calibri_MSFontService,sans-serif" font-weight="400" font-size="55" transform="matrix(1 0 0 1 2162.23 5262)">?</text><path d="M4.58333-1.14765e-05 4.58364 121.211-4.58303 121.211-4.58333 1.14765e-05ZM13.7503 116.628 0.000360892 144.128-13.7497 116.628Z" fill="#4472C4" transform="matrix(-1 0 0 1 2175.5 4835.5)"/><path d="M0.194859-4.57919 6.26332-4.32096 9.71529-3.88028 8.5545 5.21259 5.2946 4.79644 5.68014 4.82919-0.194859 4.57919ZM19.4352-1.92906 24.9198-0.277784 28.4451 1.07234 25.1667 9.63269 21.7983 8.34268 22.1162 8.45124 16.7925 6.84841ZM37.4306 5.03799 43.2699 8.30302 45.5572 9.72947 40.7064 17.5075 38.5121 16.139 38.7007 16.2505 32.9569 13.0389ZM53.4051 15.0085 55.2619 16.3406 60.8265 20.756 55.1288 27.9368 49.6511 23.5904 49.8283 23.7241 48.0618 22.4568ZM68.077 27.0664 72.8652 31.695 74.7147 33.6055 68.1287 39.9814 66.332 38.1254 66.4395 38.2329 61.706 33.6572ZM81.1093 40.4021 84.397 44.055 87.2325 47.4322 80.2123 53.3265 77.4274 50.0097 77.5307 50.1286 74.2958 46.5342ZM93.0943 54.6956 95.6512 57.9789 98.6951 62.0951 91.3248 67.5454 88.3148 63.4752 88.3839 63.5661 85.862 60.3278ZM104.106 69.6556 106.752 73.4572 109.29 77.4352 101.562 82.3659 99.0737 78.4653 99.1756 78.6183 96.5823 74.8922ZM114.221 85.1628 117.543 90.3704 119.14 93.1354 111.201 97.7185 109.656 95.0416 109.761 95.2153 106.493 90.0935ZM123.723 101.074 128.143 108.73 128.383 109.191 120.259 113.435 120.063 113.06 120.156 113.229 115.784 105.657ZM132.628 117.315 136.873 125.44 128.748 129.685 124.503 121.56ZM141.009 133.791 144.979 142.053 136.716 146.023 132.746 137.761ZM148.98 150.486 152.645 158.888 144.243 162.553 140.578 154.151ZM156.31 167.29 158.166 171.544 159.901 175.874 151.391 179.282 149.683 175.017 149.737 175.145 147.909 170.955ZM163.309 184.384 166.718 192.893 158.208 196.301 154.8 187.792ZM169.996 201.582 173.178 210.179 164.581 213.361 161.399 204.765ZM176.36 218.776 176.57 219.342 179.365 227.566 170.686 230.516 167.91 222.35 167.952 222.466 167.764 221.958ZM182.315 236.245 185.232 244.827 185.295 245.029 176.549 247.771 176.502 247.621 176.535 247.725 173.636 239.195ZM188.038 253.776 190.78 262.522 182.034 265.265 179.291 256.518ZM193.553 271.375 196.084 280.185 187.274 282.717 184.743 273.907ZM198.616 288.995 201.148 297.806 192.337 300.337 189.806 291.527ZM203.521 306.768 205.851 315.633 196.985 317.963 194.655 309.098ZM208.181 324.499 208.759 326.699 210.38 333.507 201.462 335.63 199.854 328.874 199.88 328.977 199.315 326.829ZM212.503 342.425 214.626 351.342 205.709 353.465 203.586 344.548ZM216.679 360.366 218.63 369.323 209.673 371.273 207.723 362.317ZM220.58 378.28 222.113 385.32 222.51 387.335 213.515 389.105 213.128 387.135 213.147 387.225 211.623 380.23ZM224.279 396.33 226.048 405.324 217.053 407.093 215.284 398.099ZM227.817 414.319 228.068 415.597 229.45 423.429 220.423 425.022 219.049 417.234 219.065 417.322 218.823 416.088ZM231.044 432.456 232.637 441.484 223.609 443.077 222.016 434.049ZM234.157 450.624 235.552 459.684 226.492 461.079 225.097 452.02ZM236.947 468.744 238.351 477.859 238.359 477.917 229.267 479.086 229.267 479.084 229.283 479.198 227.888 470.139ZM239.588 486.968 240.822 496.051 231.739 497.285 230.505 488.202ZM242.056 505.134 242.674 509.685 243.197 514.335 234.088 515.361 233.57 510.763 233.583 510.867 232.972 506.368ZM244.223 523.444 245.249 532.553 236.14 533.579 235.114 524.47ZM246.275 541.662 246.309 541.966 247.15 550.87 238.024 551.731 237.187 542.868 237.195 542.95 237.166 542.688ZM248.011 559.996 248.873 569.122 239.747 569.983 238.885 560.857ZM249.667 578.344 250.349 587.486 241.208 588.167 240.526 579.026ZM251.031 596.627 251.712 605.768 242.571 606.45 241.889 597.308ZM252.236 615.018 252.722 624.171 243.568 624.658 243.082 615.504ZM253.209 633.325 253.579 640.305 253.652 642.577 244.491 642.871 244.419 640.647 244.423 640.743 244.055 633.811ZM253.947 651.739 254.241 660.901 245.079 661.195 244.785 652.033ZM254.536 670.063 254.645 673.458 254.724 679.312 245.558 679.436 245.48 673.625 245.482 673.71 245.374 670.357ZM263.889 679.143 250.513 706.826 236.392 679.515Z" fill="#4472C4" transform="matrix(1.83697e-16 1 1 -1.83697e-16 1241.5 4799.5)"/><path d="M2538.31 5140.51 2620.81 5140.51 2616.23 5145.1 2616.23 4782.5 2620.81 4787.08 2537.42 4787.08 2537.42 4777.92 2625.39 4777.92 2625.39 5149.68 2538.31 5149.68ZM2542 4796.25 2514.5 4782.5 2542 4768.75Z" fill="#4472C4"/><path d="M1812.5 5150.08 1730 5150.08 1734.58 5145.5 1734.58 5703.36 1730 5698.78 2645.17 5698.78 2645.17 5707.94 1725.41 5707.94 1725.41 5140.92 1812.5 5140.92ZM2640.58 5689.61 2668.08 5703.36 2640.58 5717.11Z" fill="#4472C4"/><text font-family="Arial,Arial_MSFontService,sans-serif" font-weight="400" font-size="55" transform="matrix(1 0 0 1 2646.08 4909)">Update last</text><text font-family="Arial,Arial_MSFontService,sans-serif" font-weight="400" font-size="55" transform="matrix(1 0 0 1 2646.08 4975)">access time</text><path d="M2210.5 6820.5 2573.5 6655.5 2936.5 6820.5 2573.5 6985.5Z" stroke="#2F528F" stroke-width="4.58333" stroke-miterlimit="8" fill="#4472C4" fill-rule="evenodd"/><text fill="#FFFFFF" font-family="Calibri,Calibri_MSFontService,sans-serif" font-weight="400" font-size="55" transform="matrix(1 0 0 1 2448.2 6805)">Less than 3 </text><text fill="#FFFFFF" font-family="Calibri,Calibri_MSFontService,sans-serif" font-weight="400" font-size="55" transform="matrix(1 0 0 1 2504.34 6871)">tries ? </text><path d="M3054.8 5892.5 3054.8 6014.59 2573.5 6014.59 2578.08 6010 2578.08 6632.59 2568.92 6632.59 2568.92 6005.42 3050.22 6005.42 3045.64 6010 3045.64 5892.5ZM2587.25 6628.01 2573.5 6655.51 2559.75 6628.01Z" fill="#4472C4"/><path d="M0-4.58333 212.96-4.58333 212.96 361.944 208.377 357.36 524.464 357.36 524.464 366.527 203.794 366.527 203.794 0 208.377 4.58333 0 4.58333ZM519.88 348.194 547.38 361.944 519.88 375.694Z" fill="#4472C4" transform="matrix(-1 1.22465e-16 1.22465e-16 1 3118.88 6272.5)"/><path d="M0-4.58333 269.631-4.58333 269.631 755.417 260.464 755.417 260.464 0 265.047 4.58333 0 4.58333ZM278.797 750.834 265.047 778.334 251.297 750.834Z" fill="#4472C4" transform="matrix(-1 1.22465e-16 1.22465e-16 1 1812.55 5145.5)"/><path d="M1812.5 5150.08 1730 5150.08 1734.58 5145.5 1734.58 5840.61 1730 5836.03 1898.28 5836.03 1898.28 5845.2 1725.42 5845.2 1725.42 5140.92 1812.5 5140.92ZM1893.7 5826.86 1921.2 5840.61 1893.7 5854.36Z" fill="#4472C4"/><path d="M0-4.58333 756.688-4.58333 758.319 291.6 749.152 291.651 747.546 0.0252406 752.13 4.58333 0 4.58333ZM765.008 282.515 761.766 313.089 739.251 292.151Z" fill="#4472C4" transform="matrix(1.83697e-16 1 1 -1.83697e-16 2260.5 5893.5)"/><path d="M0-4.58333 561.991-4.58333 561.991 294.742 552.825 294.742 552.825 0 557.408 4.58333 0 4.58333ZM571.158 290.159 557.408 317.659 543.658 290.159Z" fill="#4472C4" transform="matrix(1.83697e-16 1 1 -1.83697e-16 1683.5 6765.5)"/><path d="M2936.48 6816.09 4091.48 6816.09 4086.89 6820.67 4086.89 800.162 4091.48 804.745 2196.74 806.468 2196.73 797.301 4096.06 795.574 4096.06 6825.26 2936.48 6825.26ZM2206.15 812.904 2175.5 810.5 2195.81 787.421Z" fill="#4472C4"/><rect x="1446.5" y="6544.5" width="475" height="221" stroke="#2F528F" stroke-width="4.58333" stroke-miterlimit="8" fill="#4472C4"/><text fill="#FFFFFF" font-family="Calibri,Calibri_MSFontService,sans-serif" font-weight="400" font-size="55" transform="matrix(1 0 0 1 1512.96 6640)">Mark replica as </text><text fill="#FFFFFF" font-family="Calibri,Calibri_MSFontService,sans-serif" font-weight="400" font-size="55" transform="matrix(1 0 0 1 1584.57 6706)">available</text><path d="M0-4.58333 261.846-4.58333 261.846 136.617 257.263 132.033 491.609 132.033 491.609 141.2 252.68 141.2 252.68 0 257.263 4.58333 0 4.58333ZM487.026 122.867 514.526 136.617 487.026 150.367Z" fill="#4472C4" transform="matrix(1.83697e-16 1 1 -1.83697e-16 1547.5 6030.5)"/><path d="M0-4.58333 39.5585-4.58333 39.5585 379.788 30.3918 379.788 30.3918 0 34.9752 4.58333 0 4.58333ZM48.7252 375.205 34.9752 402.705 21.2252 375.205Z" fill="#4472C4" transform="matrix(-1 1.22465e-16 1.22465e-16 1 2210.48 6820.5)"/><text fill="#2E75B6" font-family="Arial,Arial_MSFontService,sans-serif" font-weight="400" font-size="55" transform="matrix(1 0 0 1 1734.63 950)">yes</text><text fill="#2E75B6" font-family="Arial,Arial_MSFontService,sans-serif" font-weight="400" font-size="55" transform="matrix(1 0 0 1 1725.7 1651)">yes</text><text fill="#2E75B6" font-family="Arial,Arial_MSFontService,sans-serif" font-weight="400" font-size="55" transform="matrix(1 0 0 1 1739.55 2575)">yes</text><text fill="#2E75B6" font-family="Arial,Arial_MSFontService,sans-serif" font-weight="400" font-size="55" transform="matrix(1 0 0 1 1734.63 3523)">yes</text><text fill="#2E75B6" font-family="Arial,Arial_MSFontService,sans-serif" font-weight="400" font-size="55" transform="matrix(1 0 0 1 1723.19 4255)">yes</text><text fill="#2E75B6" font-family="Arial,Arial_MSFontService,sans-serif" font-weight="400" font-size="55" transform="matrix(1 0 0 1 1735.8 5116)">yes</text><text fill="#2E75B6" font-family="Arial,Arial_MSFontService,sans-serif" font-weight="400" font-size="55" transform="matrix(1 0 0 1 2141.21 6796)">yes</text><text fill="#2E75B6" font-family="Arial,Arial_MSFontService,sans-serif" font-weight="400" font-size="55" transform="matrix(1 0 0 1 2536.96 950)">no</text><text fill="#2E75B6" font-family="Arial,Arial_MSFontService,sans-serif" font-weight="400" font-size="55" transform="matrix(1 0 0 1 2528.04 1652)">no</text><text fill="#2E75B6" font-family="Arial,Arial_MSFontService,sans-serif" font-weight="400" font-size="55" transform="matrix(1 0 0 1 2541.89 2575)">no</text><text fill="#2E75B6" font-family="Arial,Arial_MSFontService,sans-serif" font-weight="400" font-size="55" transform="matrix(1 0 0 1 2536.96 3524)">no</text><text fill="#2E75B6" font-family="Arial,Arial_MSFontService,sans-serif" font-weight="400" font-size="55" transform="matrix(1 0 0 1 2525.52 4255)">no</text><text fill="#2E75B6" font-family="Arial,Arial_MSFontService,sans-serif" font-weight="400" font-size="55" transform="matrix(1 0 0 1 2538.13 5117)">no</text><text fill="#2E75B6" font-family="Arial,Arial_MSFontService,sans-serif" font-weight="400" font-size="55" transform="matrix(1 0 0 1 2932.39 6796)">no</text><text fill="#2E75B6" font-family="Arial,Arial_MSFontService,sans-serif" font-weight="400" font-size="55" transform="matrix(1 0 0 1 2525.52 5989)">After a 2 hours delay</text></g></svg>