<svg xmlns="http://www.w3.org/2000/svg" xmlns:xlink="http://www.w3.org/1999/xlink" version="1.2" viewBox="0 0 641.04 389.04" height="518.72" width="854.72"><defs><symbol id="a" overflow="visible"><path d="M.719-5.64h.906v.968c.07-.187.25-.414.531-.687a1.43 1.43 0 011-.407h.094c.04 0 .113.008.219.016v1c-.055-.008-.106-.016-.156-.016h-.157c-.48 0-.851.157-1.11.47-.25.304-.374.651-.374 1.046V0H.719zm0 0"/></symbol><symbol id="b" overflow="visible"><path d="M1.64-5.64v3.75c0 .28.048.515.141.702.164.336.477.5.938.5.664 0 1.117-.296 1.36-.89.124-.313.187-.742.187-1.297v-2.766h.953V0h-.89v-.828a1.7 1.7 0 01-.454.531c-.367.3-.805.453-1.313.453-.812 0-1.367-.27-1.656-.812C.75-.946.672-1.332.672-1.812v-3.829zm1.313-.141zm0 0"/></symbol><symbol id="c" overflow="visible"><path d="M2.875-5.813c.633 0 1.148.157 1.547.47.406.312.644.843.719 1.593h-.922a1.634 1.634 0 00-.39-.86c-.2-.226-.517-.343-.954-.343-.605 0-1.04.293-1.297.875-.168.387-.25.86-.25 1.422 0 .562.117 1.039.36 1.422.238.386.613.578 1.125.578.394 0 .707-.117.937-.36.227-.238.383-.566.469-.984h.922c-.106.75-.371 1.297-.797 1.64-.418.344-.953.516-1.61.516C1.992.156 1.406-.109.97-.64.53-1.18.313-1.859.313-2.67c0-.99.238-1.759.718-2.313.477-.551 1.094-.829 1.844-.829zm-.156.032zm0 0"/></symbol><symbol id="d" overflow="visible"><path d="M.703-5.625h.953V0H.703zm0-2.125h.953v1.078H.703zm0 0"/></symbol><symbol id="e" overflow="visible"><path d="M2.938-.61c.624 0 1.05-.238 1.28-.718.239-.477.36-1.008.36-1.594 0-.52-.086-.945-.25-1.281-.273-.52-.73-.781-1.375-.781-.586 0-1.012.226-1.281.671-.262.438-.39.97-.39 1.594 0 .606.128 1.11.39 1.516.27.398.691.594 1.266.594zm.03-5.202c.727 0 1.345.246 1.845.734.507.48.765 1.195.765 2.14 0 .907-.226 1.657-.672 2.25-.437.594-1.125.891-2.062.891C2.07.203 1.457-.055 1-.578.54-1.11.312-1.816.312-2.703c0-.945.239-1.703.72-2.266.476-.562 1.124-.843 1.937-.843zm-.03.03zm0 0"/></symbol><symbol id="f" overflow="visible"><path d="M2.453-7.75h.813L.796 0H0zm0 0"/></symbol><symbol id="g" overflow="visible"><path d="M.703-5.64h.938v.796c.218-.281.421-.484.609-.61a1.876 1.876 0 011.063-.312c.445 0 .804.11 1.078.329.156.125.296.312.421.562.22-.3.47-.523.75-.672.282-.144.598-.219.954-.219.757 0 1.28.274 1.562.813.145.305.219.7.219 1.187V0h-.985v-3.922c0-.375-.093-.629-.28-.765a1.096 1.096 0 00-.688-.22c-.375 0-.7.126-.969.376-.273.25-.406.668-.406 1.25V0H4v-3.688c0-.382-.043-.66-.125-.828-.148-.27-.418-.406-.813-.406-.355 0-.683.14-.984.422-.293.281-.437.781-.437 1.5v3H.703zm0 0"/></symbol><symbol id="h" overflow="visible"><path d="M1.422-1.5c0 .273.098.492.297.656.207.156.445.235.718.235.333 0 .657-.079.97-.235.53-.258.796-.68.796-1.265v-.766a1.888 1.888 0 01-.469.188 2.92 2.92 0 01-.53.109l-.563.062c-.344.055-.606.125-.782.22-.293.167-.437.433-.437.796zm2.297-1.922c.219-.031.363-.125.437-.281a.86.86 0 00.063-.36c0-.32-.117-.554-.344-.703-.23-.144-.559-.218-.984-.218-.5 0-.856.136-1.063.406-.117.148-.187.367-.219.656H.72c.02-.695.242-1.18.672-1.453.437-.27.941-.406 1.515-.406.664 0 1.207.125 1.625.375.407.25.61.648.61 1.187v3.25c0 .094.02.172.062.235.04.062.129.093.266.093h.14c.051-.007.102-.02.157-.03V.03a3.39 3.39 0 01-.344.078 2.77 2.77 0 01-.297.016c-.336 0-.574-.121-.719-.36-.074-.113-.125-.285-.156-.515-.2.25-.48.469-.844.656-.355.188-.75.281-1.187.281-.531 0-.965-.156-1.297-.468-.324-.32-.485-.723-.485-1.203 0-.52.16-.922.485-1.204.32-.289.75-.472 1.281-.546zm-.781-2.36zm0 0"/></symbol><symbol id="i" overflow="visible"><path d="M1.266-1.766c.02.313.097.555.234.72.238.312.648.468 1.234.468.352 0 .66-.078.922-.235.27-.156.406-.394.406-.718a.605.605 0 00-.312-.547c-.137-.07-.406-.16-.813-.266l-.75-.187c-.492-.125-.843-.258-1.062-.406C.707-3.196.5-3.551.5-4c0-.531.191-.96.578-1.297.383-.332.906-.5 1.563-.5.843 0 1.453.25 1.828.75.238.313.351.656.343 1.031h-.89a1.247 1.247 0 00-.219-.593c-.219-.25-.601-.375-1.14-.375-.356 0-.626.07-.813.203a.645.645 0 00-.281.547c0 .25.117.449.36.593.144.086.35.164.624.235l.625.14c.688.168 1.145.329 1.375.485.375.242.563.62.563 1.14 0 .512-.196.95-.579 1.313-.386.363-.968.547-1.75.547-.835 0-1.43-.188-1.78-.563-.345-.383-.532-.86-.563-1.422zm1.39-4.015zm0 0"/></symbol><symbol id="j" overflow="visible"><path d="M.89-7.219h.954v1.578h.906v.766h-.906v3.688c0 .199.066.328.203.39.07.043.195.063.375.063h.14c.051 0 .114-.004.188-.016V0a2.2 2.2 0 01-.344.063c-.117.019-.242.03-.375.03-.449 0-.75-.113-.906-.343C.969-.477.891-.773.891-1.14v-3.735H.125v-.766h.766zm0 0"/></symbol><symbol id="k" overflow="visible"><path d="M3.047-5.766c.394 0 .781.094 1.156.282.383.187.676.43.875.718.188.293.313.625.375 1 .05.262.078.68.078 1.25h-4.14c.02.575.156 1.032.406 1.375.258.344.656.516 1.187.516.489 0 .883-.16 1.188-.484a1.56 1.56 0 00.344-.657h.937a1.77 1.77 0 01-.25.688c-.137.25-.289.46-.453.625a2.207 2.207 0 01-1.078.562c-.23.063-.485.094-.766.094-.71 0-1.308-.254-1.797-.766C.617-1.07.375-1.788.375-2.719c0-.906.242-1.64.734-2.203.5-.562 1.145-.844 1.938-.844zM4.562-3.28c-.042-.406-.132-.735-.265-.985-.262-.445-.7-.671-1.313-.671a1.43 1.43 0 00-1.093.468c-.293.313-.45.711-.47 1.188zm-1.609-2.5zm0 0"/></symbol><symbol id="R" overflow="visible"><path d="M1.031-5.344v-.734c.688-.063 1.164-.172 1.438-.328.27-.157.472-.524.61-1.11h.75V0H2.811v-5.344zm0 0"/></symbol><symbol id="S" overflow="visible"><path d="M3.078-.64c.445 0 .817-.18 1.11-.547.289-.375.437-.93.437-1.672 0-.446-.07-.832-.203-1.157-.242-.625-.688-.937-1.344-.937-.656 0-1.105.328-1.344.984-.136.356-.203.805-.203 1.344 0 .438.067.809.203 1.11.239.585.688.874 1.344.874zM.625-5.626h.922v.75a2.41 2.41 0 01.625-.594c.312-.207.687-.312 1.125-.312.633 0 1.176.246 1.625.734.445.492.672 1.188.672 2.094 0 1.23-.324 2.11-.969 2.64-.406.333-.883.5-1.422.5-.43 0-.781-.093-1.062-.28-.18-.102-.368-.282-.563-.532V2.25H.625zm0 0"/></symbol><symbol id="T" overflow="visible"><path d="M.703-7.766h.938v2.891c.226-.29.43-.492.609-.61.3-.195.68-.296 1.14-.296.82 0 1.38.289 1.672.86.157.312.235.745.235 1.296V0h-.969v-3.563c0-.414-.055-.718-.156-.906-.18-.312-.508-.468-.984-.468-.387 0-.743.136-1.063.406-.324.273-.484.781-.484 1.531v3H.703zm0 0"/></symbol><symbol id="U" overflow="visible"><path d="M.453-3.5h2.64v.984H.454zm0 0"/></symbol><symbol id="V" overflow="visible"><path d="M1.484 0H.22L3-3.969.39-7.75h1.313l1.984 2.969L5.641-7.75h1.25L4.297-3.969 7.016 0H5.719L3.625-3.188zm0 0"/></symbol><symbol id="W" overflow="visible"><path d="M.344 0c.031-.645.16-1.207.39-1.688.239-.488.696-.93 1.375-1.328l1.016-.578c.445-.258.766-.484.953-.672.281-.289.422-.625.422-1 0-.445-.133-.796-.39-1.046-.262-.258-.61-.391-1.048-.391-.656 0-1.109.246-1.359.734-.137.262-.21.625-.219 1.094H.516c.007-.656.132-1.191.375-1.61.406-.726 1.129-1.093 2.171-1.093.864 0 1.493.234 1.891.703.406.469.61.992.61 1.563 0 .605-.215 1.12-.641 1.546-.25.25-.695.555-1.328.907l-.719.406a4.341 4.341 0 00-.813.547c-.355.304-.578.64-.671 1.015h4.125V0zm0 0"/></symbol><symbol id="X" overflow="visible"><path d="M.938-6.5c.007-.395.078-.688.203-.875.218-.32.644-.484 1.28-.484.063 0 .126.007.188.015.063 0 .133.008.22.016v.86c-.106-.009-.18-.016-.22-.016h-.125c-.293 0-.468.078-.53.234-.056.148-.079.523-.079 1.125h.953v.75h-.953V0H.937v-4.875H.141v-.75h.796zm0 0"/></symbol><symbol id="Y" overflow="visible"><path d="M2.797.203C1.91.203 1.266-.039.859-.53.461-1.02.266-1.613.266-2.312h.984c.04.48.133.835.281 1.062.239.398.68.594 1.328.594.5 0 .899-.13 1.204-.39.3-.27.453-.618.453-1.048 0-.52-.164-.883-.485-1.094-.312-.207-.758-.312-1.328-.312-.062 0-.125.008-.187.016h-.204v-.844l.25.031h.22c.35 0 .644-.055.874-.172.406-.195.61-.547.61-1.047 0-.375-.137-.664-.407-.875a1.514 1.514 0 00-.937-.312c-.625 0-1.063.215-1.313.64-.136.231-.21.56-.218.985H.453c0-.563.11-1.035.328-1.422.383-.707 1.067-1.063 2.047-1.063.77 0 1.363.172 1.781.516.426.344.641.84.641 1.484 0 .47-.125.852-.375 1.141-.156.18-.36.32-.61.422.395.105.704.313.923.625.226.313.343.695.343 1.14 0 .72-.242 1.31-.718 1.766-.47.45-1.141.672-2.016.672zm0 0"/></symbol><symbol id="Z" overflow="visible"><path d="M.219-7.75h1.218l2.235 3.734L5.89-7.75h1.234L4.203-3.125V0H3.141v-3.125zm3.469 0zm0 0"/></symbol><symbol id="aa" overflow="visible"><path d="M.719-7.75h.953V0H.719zm0 0"/></symbol><symbol id="ab" overflow="visible"><path d="M.156-5.64h1.235l1.296 1.984L4-5.641l1.156.016L3.25-2.891 5.234 0H4.016L2.625-2.125 1.265 0H.064l1.984-2.89zm0 0"/></symbol><symbol id="ac" overflow="visible"><path d="M.922-1.156h1.11V0H.921zm0 0"/></symbol><symbol id="ad" overflow="visible"><path d="M.281-.75l3.344-4.047H.515v-.844h4.376v.766L1.578-.844H5V0H.281zM2.72-5.781zm0 0"/></symbol><symbol id="ae" overflow="visible"><path d="M4.219-5.64h1.047c-.125.355-.422 1.18-.891 2.468-.344.969-.633 1.762-.86 2.375-.553 1.438-.945 2.313-1.17 2.625-.219.32-.602.484-1.14.484-.138 0-.243-.007-.313-.015a1.935 1.935 0 01-.266-.063v-.859c.164.04.285.066.36.078.07.008.132.016.187.016.176 0 .305-.032.39-.094a.719.719 0 00.204-.203c.02-.024.082-.164.187-.422.113-.262.195-.46.25-.594L.11-5.64h1.079l1.515 4.594zm-1.532-.141zm0 0"/></symbol><symbol id="af" overflow="visible"><path d="M.828-7.75h1.047v6.828h3.922V0H.828zm0 0"/></symbol><symbol id="ag" overflow="visible"><path d="M6.453-7.75v.922h-2.61V0H2.782v-6.828H.171v-.922zm0 0"/></symbol><symbol id="ah" overflow="visible"><path d="M1.5-2.5c.031.438.133.797.313 1.078.351.512.968.766 1.843.766.395 0 .754-.055 1.078-.172.625-.219.938-.61.938-1.172 0-.414-.133-.719-.39-.906-.274-.164-.696-.317-1.266-.453l-1.047-.235c-.68-.156-1.164-.328-1.453-.515C1.023-4.43.78-4.914.78-5.563c0-.687.239-1.253.719-1.703.477-.445 1.16-.671 2.047-.671.812 0 1.5.199 2.062.593.57.387.86 1.012.86 1.875h-.985c-.054-.414-.168-.734-.343-.953-.313-.406-.856-.61-1.625-.61-.618 0-1.059.134-1.329.391-.273.262-.406.563-.406.907 0 .375.157.652.469.828.207.117.676.258 1.406.422l1.094.25c.52.125.922.289 1.203.484.5.367.75.89.75 1.578 0 .867-.312 1.485-.937 1.86C5.14.05 4.41.234 3.578.234c-.96 0-1.71-.25-2.25-.75C.773-1.004.504-1.664.516-2.5zm2.125-5.453zm0 0"/></symbol><symbol id="ai" overflow="visible"><path d="M.922-7.75h3.484c.688 0 1.239.2 1.657.594.425.386.64.93.64 1.625 0 .605-.187 1.133-.562 1.578-.375.45-.954.672-1.735.672H1.97V0H.922zM5.64-5.516c0-.57-.211-.957-.625-1.156-.23-.113-.547-.172-.954-.172H1.97v2.688h2.093c.47 0 .848-.098 1.141-.297.29-.207.438-.563.438-1.063zm0 0"/></symbol><symbol id="aj" overflow="visible"><path d="M4.422-4.203c.488 0 .875-.094 1.156-.281.29-.196.438-.555.438-1.079 0-.55-.2-.925-.594-1.125-.219-.101-.508-.156-.86-.156H2v2.64zM.953-7.75h3.578c.594 0 1.082.09 1.469.266.719.336 1.078.945 1.078 1.828 0 .468-.094.851-.281 1.14A2.003 2.003 0 016-3.812c.3.124.523.292.672.5.156.199.242.523.266.968l.03 1.031c.009.305.036.524.079.657.062.25.172.414.328.484V0H6.094a.946.946 0 01-.078-.25 5.444 5.444 0 01-.063-.625l-.062-1.281c-.024-.508-.211-.848-.563-1.016-.2-.101-.512-.156-.937-.156H2V0H.953zm0 0"/></symbol><symbol id="l" overflow="visible"><path d="M12.078-10.688c-.242-1.062-.84-1.8-1.797-2.218A4.498 4.498 0 008.5-13.25c-1.25 0-2.277.477-3.078 1.422-.805.937-1.203 2.355-1.203 4.25 0 1.918.43 3.273 1.297 4.062.875.793 1.863 1.188 2.968 1.188 1.094 0 1.989-.313 2.688-.938.695-.632 1.125-1.46 1.281-2.484H8.86v-2.578h6.47V0h-2.142l-.328-1.938c-.625.743-1.187 1.262-1.687 1.563-.856.52-1.914.781-3.172.781-2.055 0-3.734-.71-5.047-2.14C1.578-3.16.891-5.117.891-7.61c0-2.508.691-4.524 2.078-6.047 1.383-1.52 3.21-2.281 5.484-2.281 1.977 0 3.567.507 4.766 1.515 1.195 1 1.883 2.246 2.062 3.735zm-3.625-5.25zm0 0"/></symbol><symbol id="m" overflow="visible"><path d="M4.484-12.86H1.438v-2.765h3.046zm-3.046 1.376h3.046V0H1.438zm0 0"/></symbol><symbol id="n" overflow="visible"><path d="M.219-9.234v-2.141h1.61v-3.203h2.968v3.203h1.86v2.14h-1.86v6.063c0 .469.055.762.172.875.125.117.488.172 1.093.172h.297c.102 0 .204-.004.297-.016V.11L5.234.156C3.816.207 2.848-.035 2.328-.578c-.336-.344-.5-.875-.5-1.594v-7.062zm0 0"/></symbol><symbol id="o" overflow="visible"><path d="M4.797-12.828v3.422h3.812c.676 0 1.227-.125 1.657-.375.425-.258.64-.719.64-1.375 0-.727-.281-1.207-.844-1.438-.492-.156-1.109-.234-1.859-.234zm0 5.984v4.14h3.812c.676 0 1.207-.085 1.594-.265.688-.344 1.031-.988 1.031-1.937 0-.813-.336-1.367-1-1.672-.375-.164-.902-.254-1.578-.266zm4.437-8.687c1.907.031 3.254.586 4.047 1.656.477.656.719 1.45.719 2.375 0 .95-.242 1.71-.719 2.281-.261.324-.652.621-1.172.89.79.282 1.391.735 1.797 1.36.406.625.61 1.387.61 2.282 0 .917-.235 1.742-.704 2.468a4.208 4.208 0 01-1.109 1.235c-.5.375-1.09.636-1.765.78A11.09 11.09 0 018.734 0h-7.03v-15.531zm0 0"/></symbol><symbol id="p" overflow="visible"><path d="M7.64-11.766c.051 0 .098.008.141.016.04 0 .13.008.266.016v3.078c-.2-.02-.371-.035-.516-.047-.148-.008-.265-.016-.36-.016-1.21 0-2.023.399-2.437 1.188-.23.437-.343 1.12-.343 2.047V0H1.375v-11.484h2.86v2c.468-.758.874-1.282 1.218-1.563.563-.476 1.29-.719 2.188-.719zm0 0"/></symbol><symbol id="q" overflow="visible"><path d="M7.734-5.578c-.187.117-.382.21-.578.281a4.44 4.44 0 01-.797.203l-.671.125c-.637.117-1.09.258-1.36.422-.46.274-.687.695-.687 1.266 0 .523.14.898.421 1.125.282.219.625.328 1.032.328a3.07 3.07 0 001.781-.563c.55-.375.836-1.066.86-2.078zM5.906-6.984c.563-.07.957-.16 1.188-.266.437-.176.656-.46.656-.86 0-.468-.168-.788-.5-.968-.324-.176-.805-.266-1.438-.266-.71 0-1.21.18-1.5.531-.21.262-.351.61-.421 1.047H.984c.063-1 .344-1.82.844-2.468.8-1.02 2.164-1.532 4.094-1.532 1.258 0 2.375.25 3.344.75.976.5 1.468 1.446 1.468 2.829v5.265c0 .367.004.809.016 1.328.031.399.094.668.188.813.093.136.238.25.437.344V0H8.109a2.843 2.843 0 01-.187-.64 9.406 9.406 0 01-.078-.704 6.19 6.19 0 01-1.438 1.14C5.758.173 5.031.36 4.22.36 3.176.36 2.316.063 1.64-.53.96-1.125.625-1.97.625-3.062c0-1.407.54-2.426 1.625-3.063.602-.344 1.484-.586 2.64-.734zm.157-4.813zm0 0"/></symbol><symbol id="r" overflow="visible"><path d="M7.766-11.766c1.187 0 2.156.313 2.906.938.758.625 1.14 1.656 1.14 3.094V0H8.735v-6.984c0-.602-.086-1.067-.25-1.391-.293-.594-.851-.89-1.671-.89-1.024 0-1.727.433-2.11 1.296-.187.461-.281 1.043-.281 1.75V0h-3v-11.469h2.89v1.688c.395-.594.766-1.02 1.11-1.281.613-.47 1.394-.704 2.344-.704zm-1.11-.03zm0 0"/></symbol><symbol id="s" overflow="visible"><path d="M8.266-7.36a2.959 2.959 0 00-.438-1.171c-.336-.457-.855-.688-1.562-.688-1.024 0-1.715.5-2.079 1.5-.199.543-.296 1.258-.296 2.14 0 .845.097 1.524.296 2.032.352.95 1.024 1.422 2.016 1.422.707 0 1.207-.188 1.5-.563.29-.374.469-.863.531-1.468h3.079c-.075.906-.407 1.773-1 2.593C9.374-.25 7.976.407 6.125.407c-1.844 0-3.203-.548-4.078-1.641C1.18-2.336.75-3.766.75-5.516c0-1.968.477-3.5 1.438-4.593.968-1.102 2.296-1.657 3.984-1.657 1.437 0 2.613.329 3.531.985.914.648 1.461 1.789 1.64 3.422zm-2.032-4.437zm0 0"/></symbol><symbol id="t" overflow="visible"><path d="M7.734-11.781c.707 0 1.348.125 1.922.375a3.361 3.361 0 011.438 1.125c.312.43.504.87.578 1.328.07.45.11 1.183.11 2.203V0H8.718v-6.984c0-.614-.11-1.114-.328-1.5-.274-.532-.79-.797-1.547-.797-.805 0-1.407.265-1.813.797-.406.53-.61 1.289-.61 2.265V0h-3v-15.484h3v5.5c.427-.664.927-1.13 1.5-1.391a4.196 4.196 0 011.813-.406zm0 0"/></symbol><symbol id="u" overflow="visible"><path d="M6.328-2.469c.707 0 1.3-.265 1.781-.797.489-.53.735-1.375.735-2.53 0-1.083-.235-1.911-.703-2.485-.461-.57-1.075-.86-1.844-.86-1.055 0-1.777.496-2.172 1.485-.219.531-.328 1.183-.328 1.953 0 .668.113 1.262.344 1.781.406.969 1.132 1.453 2.187 1.453zm-.75-9.297c.582 0 1.086.09 1.516.266.726.305 1.316.86 1.765 1.672v-1.656h2.922v10.89c0 1.489-.25 2.61-.75 3.36-.855 1.289-2.5 1.937-4.937 1.937-1.469 0-2.668-.293-3.594-.875C1.57 3.254 1.062 2.395.969 1.25h3.265c.082.352.22.61.407.766.32.27.867.406 1.64.406 1.082 0 1.805-.36 2.172-1.078.238-.469.36-1.25.36-2.344v-.734c-.293.492-.606.859-.938 1.109-.594.45-1.371.672-2.328.672C4.078.047 2.898-.47 2.016-1.5 1.14-2.54.703-3.941.703-5.703c0-1.707.422-3.145 1.266-4.313.851-1.164 2.054-1.75 3.61-1.75zm.969-.03zm0 0"/></symbol><symbol id="v" overflow="visible"><path d="M4-4.797c.094.711.285 1.242.578 1.594.52.637 1.422.953 2.703.953.758 0 1.38-.082 1.86-.25.906-.32 1.359-.922 1.359-1.797 0-.508-.227-.906-.672-1.187-.45-.282-1.152-.524-2.11-.735l-1.655-.36c-1.618-.374-2.731-.773-3.344-1.202-1.043-.707-1.563-1.828-1.563-3.36 0-1.382.504-2.535 1.516-3.453 1.008-.926 2.492-1.39 4.453-1.39 1.633 0 3.031.437 4.188 1.312 1.156.867 1.757 2.121 1.812 3.766h-3.11c-.062-.938-.476-1.598-1.234-1.985-.5-.257-1.125-.39-1.875-.39-.843 0-1.515.168-2.015.5-.493.336-.735.804-.735 1.406 0 .563.242.98.735 1.25.312.188.984.402 2.015.64l2.688.641c1.164.281 2.05.656 2.656 1.125.926.742 1.39 1.797 1.39 3.172 0 1.43-.546 2.61-1.64 3.547C10.914-.062 9.383.406 7.406.406c-2.023 0-3.617-.46-4.781-1.39C1.469-1.91.891-3.18.891-4.797zM7.14-16zm0 0"/></symbol><symbol id="w" overflow="visible"><path d="M5.938-9.313c-.7 0-1.243.22-1.625.657-.387.437-.625 1.027-.72 1.765h4.673c-.055-.789-.297-1.39-.735-1.796-.43-.415-.96-.626-1.593-.626zm0-2.484c.945 0 1.8.184 2.562.547.77.355 1.406.918 1.906 1.688.446.687.739 1.48.875 2.374.082.532.114 1.293.094 2.282h-7.86c.04 1.148.407 1.953 1.094 2.422.407.293.899.437 1.485.437.625 0 1.129-.176 1.515-.531.207-.188.395-.453.563-.797h3.062c-.086.688-.437 1.383-1.062 2.078C9.18-.18 7.8.375 6.032.375c-1.462 0-2.747-.469-3.86-1.406C1.055-1.97.5-3.5.5-5.625c0-1.988.5-3.516 1.5-4.578 1.008-1.063 2.32-1.594 3.938-1.594zm.203 0zm0 0"/></symbol><symbol id="x" overflow="visible"><path d="M1.86 2.203l.39.016c.29.02.566.008.828-.031.27-.032.5-.11.688-.235.175-.125.336-.383.484-.766.156-.375.219-.605.188-.687L.218-11.484h3.345l2.5 8.468 2.375-8.468h3.187L7.687-.188C6.926 1.989 6.32 3.337 5.875 3.86c-.438.52-1.32.782-2.64.782h-.657c-.156 0-.398-.012-.719-.032zm4.077-14zm0 0"/></symbol><symbol id="y" overflow="visible"><path d="M5.64-15.688c.188 0 .36.008.516.016l.625.047v2.438c-.168-.02-.449-.036-.843-.047-.399-.008-.672.078-.829.265a.984.984 0 00-.218.625v.969h1.968v2.11H4.891V0h-3v-9.266H.219v-2.109h1.64v-.734c0-1.227.207-2.079.625-2.547.438-.688 1.489-1.031 3.157-1.031zm0 0"/></symbol><symbol id="z" overflow="visible"><path d="M6.547-2.125c.883 0 1.562-.313 2.031-.938.469-.624.703-1.507.703-2.656 0-1.156-.234-2.039-.703-2.656C8.11-9 7.43-9.313 6.547-9.313c-.875 0-1.555.313-2.031.938-.47.617-.704 1.5-.704 2.656 0 1.149.235 2.032.704 2.657.476.624 1.156.937 2.03.937zm5.89-3.594c0 1.688-.484 3.133-1.453 4.328C10.016-.19 8.54.406 6.563.406c-1.97 0-3.438-.597-4.407-1.797C1.187-2.586.703-4.03.703-5.719c0-1.656.485-3.093 1.453-4.312.969-1.219 2.438-1.828 4.406-1.828 1.977 0 3.454.609 4.422 1.828.97 1.219 1.454 2.656 1.454 4.312zm-5.874-6.078zm0 0"/></symbol><symbol id="A" overflow="visible"><path d="M4.89-12.828v4.172h3.673c.726 0 1.273-.082 1.64-.25.645-.301.969-.883.969-1.75 0-.946-.313-1.582-.938-1.906-.343-.176-.87-.266-1.578-.266zm4.438-2.703c1.094.023 1.93.156 2.516.406a3.85 3.85 0 011.5 1.078c.332.399.597.836.797 1.313a4.29 4.29 0 01.296 1.625c0 .742-.187 1.468-.562 2.187-.375.711-.992 1.211-1.844 1.5.719.293 1.223.703 1.516 1.234.3.532.453 1.34.453 2.422v1.047c0 .711.031 1.188.094 1.438.082.406.273.703.578.89V0h-3.563a7.95 7.95 0 01-.218-.828 7.607 7.607 0 01-.141-1.344l-.016-1.437c-.011-.989-.195-1.649-.546-1.985-.344-.332-.997-.5-1.954-.5H4.891V0H1.719v-15.531zm0 0"/></symbol><symbol id="B" overflow="visible"><path d="M4.39-11.484v6.921c0 .657.079 1.149.235 1.47.27.585.805.874 1.61.874 1.03 0 1.734-.41 2.109-1.234.195-.445.297-1.04.297-1.781v-6.25h3.046V0h-2.92v-1.625a8.729 8.729 0 00-.22.328c-.105.168-.233.32-.39.453-.469.43-.93.715-1.375.86-.438.156-.95.234-1.532.234-1.7 0-2.844-.61-3.438-1.828-.335-.676-.5-1.672-.5-2.984v-6.922zm2.11-.313zm0 0"/></symbol><symbol id="C" overflow="visible"><path d="M2.453-6.422v2.094h1.828c.364 0 .64-.04.828-.125.32-.156.485-.445.485-.875 0-.477-.157-.797-.469-.953-.18-.094-.445-.14-.797-.14zm2.219-1.344c.539.012.957.079 1.25.204.3.117.55.292.75.53.164.2.297.419.39.657.102.242.157.512.157.813 0 .375-.094.742-.282 1.093-.187.356-.496.606-.921.75.363.149.617.356.765.625.145.262.219.668.219 1.219v.516c0 .355.016.593.047.718.039.2.14.352.297.454V0H5.562a4.21 4.21 0 01-.188-1.094l.001-.718c-.012-.489-.105-.817-.281-.985-.168-.164-.492-.25-.969-.25H2.453V0H.86v-7.766zm0 0"/></symbol><symbol id="D" overflow="visible"><path d="M2.969-4.656c-.344 0-.617.11-.813.328-.187.219-.308.512-.36.875h2.345c-.032-.395-.157-.692-.375-.89a1.093 1.093 0 00-.797-.313zm0-1.25c.476 0 .906.093 1.281.281.383.18.703.46.953.844.227.343.375.742.438 1.187.039.262.054.64.046 1.14h-3.92c.02.575.195.977.53 1.204.208.148.458.219.75.219.313 0 .567-.086.767-.266a1.19 1.19 0 00.265-.39h1.547c-.043.343-.219.687-.531 1.03-.5.563-1.196.845-2.078.845a2.94 2.94 0 01-1.938-.704C.523-.984.25-1.75.25-2.812c0-1 .25-1.766.75-2.297.508-.532 1.164-.797 1.969-.797zm.11 0zm0 0"/></symbol><symbol id="E" overflow="visible"><path d="M4.656-2.875c0-.438-.105-.828-.312-1.172-.2-.344-.524-.516-.969-.516-.543 0-.918.262-1.125.782-.105.273-.156.62-.156 1.047 0 .668.176 1.136.531 1.406.207.156.457.234.75.234.414 0 .734-.16.953-.484.219-.32.328-.754.328-1.297zm-.843-3c.664 0 1.226.25 1.687.75.469.492.703 1.215.703 2.172 0 1.023-.23 1.797-.687 2.328-.45.523-1.032.781-1.75.781-.461 0-.84-.11-1.141-.328a2.797 2.797 0 01-.484-.562v3H.656V-5.75h1.438v.86a2.64 2.64 0 01.515-.594c.332-.258.735-.391 1.204-.391zm0 0"/></symbol><symbol id="F" overflow="visible"><path d="M3.281-1.063c.438 0 .77-.156 1-.468.239-.313.36-.754.36-1.328 0-.582-.121-1.024-.36-1.329-.23-.312-.562-.468-1-.468-.437 0-.777.156-1.015.468-.243.305-.36.747-.36 1.329 0 .574.117 1.015.36 1.328.238.312.578.468 1.015.468zM6.22-2.859c0 .843-.246 1.57-.735 2.171-.48.594-1.214.891-2.203.891-.992 0-1.73-.297-2.219-.89C.583-1.29.345-2.016.345-2.86c0-.832.238-1.551.719-2.157.488-.613 1.226-.921 2.218-.921.989 0 1.723.308 2.203.921.489.606.735 1.325.735 2.157zM3.28-5.906zm0 0"/></symbol><symbol id="H" overflow="visible"><path d="M2.422-8.016h1.25L.656 0h-1.25zm0 0"/></symbol><symbol id="G" overflow="visible"><path d="M2.406-6.422v1.719h1.906c.333 0 .602-.063.813-.188.219-.132.328-.363.328-.687 0-.363-.14-.602-.422-.719-.242-.082-.547-.125-.922-.125zm0 3v2.078h1.906c.333 0 .598-.047.797-.14.344-.164.516-.489.516-.97 0-.405-.168-.687-.5-.843-.188-.082-.453-.125-.797-.125zm2.219-4.344c.945.012 1.617.29 2.016.829.238.324.359.718.359 1.187 0 .469-.121.852-.36 1.14-.124.157-.32.305-.577.438.394.149.69.375.89.688.207.312.313.695.313 1.14 0 .461-.121.871-.36 1.235A2.158 2.158 0 016.36-.5c-.25.2-.546.336-.89.406-.336.063-.7.094-1.094.094H.844v-7.766zm0 0"/></symbol><symbol id="I" overflow="visible"><path d="M3.828-5.89c.02 0 .04.007.063.015h.125v1.547c-.094-.008-.18-.016-.25-.016-.075-.008-.133-.015-.172-.015-.606 0-1.012.199-1.219.593-.117.22-.172.559-.172 1.016V0H.688v-5.75h1.437v1c.227-.375.426-.633.594-.781.281-.239.648-.36 1.11-.36zm0 0"/></symbol><symbol id="J" overflow="visible"><path d="M3.875-2.797a1.543 1.543 0 01-.297.156 3.228 3.228 0 01-.39.094l-.344.063c-.313.054-.54.12-.672.203-.242.136-.36.351-.36.64 0 .262.07.45.22.563a.79.79 0 00.515.172c.32 0 .617-.094.89-.281.282-.196.426-.547.438-1.047zM2.953-3.5c.281-.031.477-.07.594-.125.219-.094.328-.234.328-.422 0-.238-.086-.398-.25-.484-.156-.094-.398-.14-.719-.14-.355 0-.605.089-.75.265-.105.125-.172.297-.203.515H.5c.031-.5.172-.91.422-1.234.394-.508 1.078-.766 2.047-.766.625 0 1.18.125 1.672.375.488.25.734.727.734 1.422v3.297c.02.2.05.336.094.406.05.063.125.121.218.172V0H4.063a1.295 1.295 0 01-.109-.328 6.59 6.59 0 01-.031-.344 3.59 3.59 0 01-.719.578A2.255 2.255 0 012.11.172c-.523 0-.953-.149-1.296-.438-.336-.3-.5-.722-.5-1.265 0-.707.269-1.219.812-1.532.3-.175.742-.3 1.328-.374zm.078-2.406zm0 0"/></symbol><symbol id="K" overflow="visible"><path d="M3.89-5.89c.594 0 1.079.156 1.454.468.375.313.562.828.562 1.547V0H4.375v-3.5c0-.3-.043-.531-.125-.688-.148-.3-.43-.453-.844-.453-.511 0-.86.22-1.047.657-.105.23-.156.523-.156.875V0H.72v-5.734h1.437v.843c.196-.3.38-.515.547-.64.313-.239.707-.36 1.188-.36zm-.562-.016zm0 0"/></symbol><symbol id="L" overflow="visible"><path d="M4.14-3.688a1.49 1.49 0 00-.218-.578c-.18-.226-.445-.343-.797-.343-.5 0-.844.25-1.031.75-.094.273-.14.625-.14 1.062 0 .43.046.766.14 1.016.176.48.515.718 1.015.718.344 0 .586-.093.735-.28.156-.188.25-.43.281-.735h1.531c-.031.46-.199.89-.5 1.297-.468.656-1.168.984-2.093.984-.918 0-1.594-.27-2.032-.812C.594-1.16.375-1.875.375-2.75c0-.988.238-1.758.719-2.313.476-.55 1.144-.828 2-.828.719 0 1.304.168 1.765.5.457.325.727.891.813 1.704zM3.11-5.905zm0 0"/></symbol><symbol id="M" overflow="visible"><path d="M3.875-5.89c.352 0 .672.062.953.187.29.117.531.305.719.562.156.211.25.43.281.657.04.23.063.601.063 1.109V0H4.359v-3.5c0-.3-.054-.55-.156-.75-.137-.258-.398-.39-.781-.39-.399 0-.7.136-.906.406-.211.261-.313.636-.313 1.125V0H.72v-7.75h1.484V-5c.219-.332.469-.563.75-.688a2.19 2.19 0 01.922-.203zm0 0"/></symbol><symbol id="N" overflow="visible"><path d="M7.125-5.875c.25 0 .492.055.734.156.25.094.477.266.688.516.156.2.265.445.328.734.031.188.047.469.047.844L8.906 0H7.375v-3.656c0-.219-.04-.399-.11-.547-.136-.258-.382-.39-.734-.39-.418 0-.703.171-.86.515-.085.18-.124.398-.124.656V0H4.03v-3.422c0-.344-.039-.594-.11-.75-.124-.27-.37-.406-.733-.406-.43 0-.72.137-.876.406-.074.168-.109.406-.109.719V0H.672v-5.734H2.14v.843c.187-.3.359-.515.515-.64.29-.227.672-.344 1.14-.344.438 0 .79.102 1.063.297.22.18.383.406.5.687.196-.343.442-.593.735-.75.3-.156.644-.234 1.031-.234zm0 0"/></symbol><symbol id="P" overflow="visible"><path d="M6.469-7.766v1.375H4.14V0H2.516v-6.39H.172v-1.376zm0 0"/></symbol><symbol id="Q" overflow="visible"><path d="M2.25-6.438H.719v-1.375H2.25zM.719-5.75H2.25V0H.719zm0 0"/></symbol><clipPath id="O"><path d="M618 353h23v27h-23zm0 0"/></clipPath></defs><path d="M116.187 330.57h517.977m-517.977-43.164h517.977m-517.977-43.164h517.977m-194.242-43.164h194.242M116.187 157.91h517.977m-517.977-43.164h517.977" fill="none" stroke="#000" stroke-opacity=".149" stroke-miterlimit="10" stroke-width=".719"/><path d="M173.738 121.941v24.196" fill="none" stroke="#000" stroke-miterlimit="10" stroke-width=".719"/><path d="M173.738 149.91l-2.515-5.035 2.515 1.262 2.52-1.262zm0 0" stroke="#000" stroke-miterlimit="10" stroke-width=".719"/><path d="M178.824 119.832l36.664 112.855" fill="none" stroke="#000" stroke-miterlimit="10" stroke-width=".719"/><path d="M216.652 236.285l-3.949-4.016 2.785.418 2.004-1.968zm0 0" stroke="#000" stroke-miterlimit="10" stroke-width=".719"/><path d="M178.824 119.832l25.078 157.965" fill="none" stroke="#000" stroke-miterlimit="10" stroke-width=".719"/><path d="M204.492 281.523l-3.27-4.578 2.68.852 2.29-1.64zm0 0" stroke="#000" stroke-miterlimit="10" stroke-width=".719"/><path d="M116.187 114.746h45.774" fill="none" stroke="#000" stroke-miterlimit="10" stroke-width=".719"/><path d="M165.738 114.746l-5.035 2.52 1.258-2.52-1.258-2.516zm0 0" stroke="#000" stroke-miterlimit="10" stroke-width=".719"/><use y="118.704" x="28.586" xlink:href="#a"/><use y="118.704" x="32.179" xlink:href="#b"/><use y="118.704" x="38.181" xlink:href="#c"/><use y="118.704" x="43.576" xlink:href="#d"/><use y="118.704" x="45.974" xlink:href="#e"/><use y="118.704" x="51.975" xlink:href="#f"/><use y="118.704" x="54.974" xlink:href="#g"/><use y="118.704" x="63.963" xlink:href="#h"/><use y="118.704" x="69.964" xlink:href="#i"/><use y="118.704" x="75.36" xlink:href="#j"/><use y="118.704" x="78.358" xlink:href="#k"/><use y="118.704" x="84.36" xlink:href="#a"/><use y="35.971" x="149.38" xlink:href="#l"/><use y="35.971" x="166.168" xlink:href="#m"/><use y="35.971" x="172.164" xlink:href="#n"/><use y="35.971" x="179.351" xlink:href="#o"/><use y="35.971" x="185.347" xlink:href="#o"/><use y="35.971" x="200.934" xlink:href="#p"/><use y="35.971" x="209.333" xlink:href="#q"/><use y="35.971" x="221.336" xlink:href="#r"/><use y="35.971" x="234.519" xlink:href="#s"/><use y="35.971" x="246.522" xlink:href="#t"/><use y="35.971" x="259.706" xlink:href="#m"/><use y="35.971" x="265.702" xlink:href="#r"/><use y="35.971" x="278.886" xlink:href="#u"/><use y="35.971" x="292.069" xlink:href="#o"/><use y="35.971" x="298.065" xlink:href="#v"/><use y="35.971" x="312.461" xlink:href="#n"/><use y="35.971" x="319.648" xlink:href="#p"/><use y="35.971" x="328.047" xlink:href="#q"/><use y="35.971" x="340.05" xlink:href="#n"/><use y="35.971" x="347.237" xlink:href="#w"/><use y="35.971" x="359.24" xlink:href="#u"/><use y="35.971" x="372.424" xlink:href="#x"/><use y="35.971" x="384.427" xlink:href="#o"/><use y="35.971" x="390.423" xlink:href="#y"/><use y="35.971" x="397.61" xlink:href="#z"/><use y="35.971" x="410.794" xlink:href="#p"/><use y="35.971" x="419.193" xlink:href="#o"/><use y="35.971" x="425.189" xlink:href="#A"/><use y="35.971" x="440.775" xlink:href="#B"/><use y="35.971" x="453.959" xlink:href="#s"/><use y="35.971" x="465.962" xlink:href="#m"/><use y="35.971" x="471.958" xlink:href="#z"/><path d="M180.934 114.746h124.91" fill="none" stroke="#000" stroke-miterlimit="10" stroke-width=".719"/><path d="M309.621 114.746l-5.035 2.52 1.258-2.52-1.258-2.516zm0 0" stroke="#000" stroke-miterlimit="10" stroke-width=".719"/><path d="M324.816 114.746h96.137" fill="none" stroke="#000" stroke-miterlimit="10" stroke-width=".719"/><path d="M424.73 114.746l-5.039 2.52 1.262-2.52-1.262-2.516zm0 0" stroke="#000" stroke-miterlimit="10" stroke-width=".719"/><path d="M439.922 114.746h96.136" fill="none" stroke="#000" stroke-miterlimit="10" stroke-width=".719"/><path d="M539.836 114.746l-5.035 2.52 1.257-2.52-1.257-2.516zm0 0" stroke="#000" stroke-miterlimit="10" stroke-width=".719"/><path d="M555.031 114.746h67.355" fill="none" stroke="#000" stroke-miterlimit="10" stroke-width=".719"/><path d="M626.164 114.746l-5.035 2.52 1.257-2.52-1.257-2.516zm0 0" stroke="#000" stroke-miterlimit="10" stroke-width=".719"/><path d="M432.73 121.941v67.36" fill="none" stroke="#000" stroke-miterlimit="10" stroke-width=".719"/><path d="M432.73 193.078l-2.52-5.035 2.52 1.258 2.516-1.258zm0 0" stroke="#000" stroke-miterlimit="10" stroke-width=".719"/><use y="75.539" x="6.093" xlink:href="#C"/><use y="75.539" x="13.886" xlink:href="#D"/><use y="75.539" x="19.887" xlink:href="#E"/><use y="75.539" x="26.479" xlink:href="#F"/><use y="75.539" x="33.071" xlink:href="#G"/><use y="75.539" x="36.069" xlink:href="#H"/><use y="75.539" x="39.067" xlink:href="#G"/><use y="75.539" x="42.065" xlink:href="#G"/><use y="75.539" x="49.858" xlink:href="#I"/><use y="75.539" x="54.058" xlink:href="#J"/><use y="75.539" x="60.059" xlink:href="#K"/><use y="75.539" x="66.651" xlink:href="#L"/><use y="75.539" x="72.653" xlink:href="#M"/><use y="75.539" x="79.244" xlink:href="#G"/><use y="75.539" x="82.242" xlink:href="#K"/><use y="75.539" x="88.834" xlink:href="#J"/><use y="75.539" x="94.836" xlink:href="#N"/><use y="75.539" x="104.431" xlink:href="#D"/><path d="M116.187 366.543h513.395" fill="none" stroke="#000" stroke-miterlimit="10" stroke-width=".719"/><path d="M633.36 366.543l-5.036 2.52 1.258-2.52-1.258-2.52zm0 0"/><g clip-path="url(#O)"><path d="M633.36 366.543l-5.036 2.52 1.258-2.52-1.258-2.52zm0 0" fill="none" stroke="#000" stroke-miterlimit="10" stroke-width=".719"/></g><use y="384.888" x="592.529" xlink:href="#P"/><use y="384.888" x="598.931" xlink:href="#Q"/><use y="384.888" x="601.929" xlink:href="#N"/><use y="384.888" x="611.525" xlink:href="#D"/><use y="248.199" x="24.674" xlink:href="#b"/><use y="248.199" x="30.675" xlink:href="#i"/><use y="248.199" x="36.071" xlink:href="#k"/><use y="248.199" x="42.073" xlink:href="#a"/><use y="248.199" x="45.666" xlink:href="#R"/><use y="248.199" x="51.668" xlink:href="#f"/><use y="248.199" x="54.666" xlink:href="#S"/><use y="248.199" x="60.667" xlink:href="#h"/><use y="248.199" x="66.669" xlink:href="#j"/><use y="248.199" x="69.667" xlink:href="#c"/><use y="248.199" x="75.063" xlink:href="#T"/><use y="248.199" x="81.064" xlink:href="#U"/><use y="248.199" x="84.658" xlink:href="#V"/><use y="291.364" x="21.077" xlink:href="#b"/><use y="291.364" x="27.078" xlink:href="#i"/><use y="291.364" x="32.474" xlink:href="#k"/><use y="291.364" x="38.475" xlink:href="#a"/><use y="291.364" x="42.069" xlink:href="#W"/><use y="291.364" x="48.071" xlink:href="#f"/><use y="291.364" x="51.069" xlink:href="#X"/><use y="291.364" x="54.067" xlink:href="#k"/><use y="291.364" x="60.068" xlink:href="#h"/><use y="291.364" x="66.07" xlink:href="#j"/><use y="291.364" x="69.068" xlink:href="#b"/><use y="291.364" x="75.07" xlink:href="#a"/><use y="291.364" x="78.663" xlink:href="#k"/><use y="291.364" x="84.665" xlink:href="#U"/><use y="291.364" x="88.258" xlink:href="#V"/><use y="334.529" x="24.674" xlink:href="#b"/><use y="334.529" x="30.675" xlink:href="#i"/><use y="334.529" x="36.071" xlink:href="#k"/><use y="334.529" x="42.073" xlink:href="#a"/><use y="334.529" x="45.666" xlink:href="#Y"/><use y="334.529" x="51.668" xlink:href="#f"/><use y="334.529" x="54.666" xlink:href="#S"/><use y="334.529" x="60.667" xlink:href="#h"/><use y="334.529" x="66.669" xlink:href="#j"/><use y="334.529" x="69.667" xlink:href="#c"/><use y="334.529" x="75.063" xlink:href="#T"/><use y="334.529" x="81.064" xlink:href="#U"/><use y="334.529" x="84.658" xlink:href="#Z"/><use y="205.034" x="18.682" xlink:href="#a"/><use y="205.034" x="22.276" xlink:href="#b"/><use y="205.034" x="28.277" xlink:href="#c"/><use y="205.034" x="33.673" xlink:href="#d"/><use y="205.034" x="36.071" xlink:href="#e"/><use y="205.034" x="42.072" xlink:href="#f"/><use y="205.034" x="45.07" xlink:href="#a"/><use y="205.034" x="48.664" xlink:href="#k"/><use y="205.034" x="54.665" xlink:href="#aa"/><use y="205.034" x="57.063" xlink:href="#k"/><use y="205.034" x="63.064" xlink:href="#h"/><use y="205.034" x="69.066" xlink:href="#i"/><use y="205.034" x="74.462" xlink:href="#k"/><use y="205.034" x="80.463" xlink:href="#U"/><use y="205.034" x="84.057" xlink:href="#ab"/><use y="205.034" x="89.452" xlink:href="#ac"/><use y="205.034" x="92.451" xlink:href="#ad"/><use y="161.869" x="7.385" xlink:href="#a"/><use y="161.869" x="10.979" xlink:href="#b"/><use y="161.869" x="16.98" xlink:href="#c"/><use y="161.869" x="22.376" xlink:href="#d"/><use y="161.869" x="24.773" xlink:href="#e"/><use y="161.869" x="30.775" xlink:href="#f"/><use y="161.869" x="33.773" xlink:href="#a"/><use y="161.869" x="37.367" xlink:href="#k"/><use y="161.869" x="43.368" xlink:href="#aa"/><use y="161.869" x="45.766" xlink:href="#k"/><use y="161.869" x="51.767" xlink:href="#h"/><use y="161.869" x="57.769" xlink:href="#i"/><use y="161.869" x="63.165" xlink:href="#k"/><use y="161.869" x="69.166" xlink:href="#U"/><use y="161.869" x="72.76" xlink:href="#ab"/><use y="161.869" x="78.155" xlink:href="#ac"/><use y="161.869" x="81.154" xlink:href="#ae"/><use y="161.869" x="86.549" xlink:href="#U"/><use y="161.869" x="90.143" xlink:href="#af"/><use y="161.869" x="95.349" xlink:href="#ag"/><use y="161.869" x="101.94" xlink:href="#ah"/><path d="M180.934 157.91h139.3" fill="none" stroke="#000" stroke-miterlimit="10" stroke-width=".719"/><path d="M324.012 157.91l-5.036 2.52 1.258-2.52-1.258-2.516zm0 0" stroke="#000" stroke-miterlimit="10" stroke-width=".719"/><path d="M437.816 119.832l60.453 201.266" fill="none" stroke="#000" stroke-miterlimit="10" stroke-width=".719"/><path d="M499.355 324.715l-3.863-4.102 2.777.485 2.047-1.93zm0 0" stroke="#000" stroke-miterlimit="10" stroke-width=".719"/><path d="M224.098 244.242h38.582" fill="none" stroke="#000" stroke-miterlimit="10" stroke-width=".719"/><path d="M266.457 244.242l-5.035 2.52 1.258-2.52-1.258-2.52zm0 0" stroke="#000" stroke-miterlimit="10" stroke-width=".719"/><path d="M307.475 138.13l3.837-13.88m-31.769 114.906l24.352-88.077" fill="none" stroke="#000" stroke-width=".719" stroke-miterlimit="10"/><path d="M312.32 120.61l1.086 5.527-2.094-1.887-2.761.539zm0 0" stroke="#000" stroke-miterlimit="10" stroke-width=".719"/><g transform="translate(1.5 .337)"><use height="100%" width="100%" y="148.2" x="296.456" xlink:href="#ai"/><use height="100%" width="100%" y="148.2" x="303.653" xlink:href="#aj"/></g><path d="M279.543 239.156l44.965-72.265" fill="none" stroke="#000" stroke-miterlimit="10" stroke-width=".719"/><path d="M326.5 163.68l-.524 5.605-1.468-2.394-2.805-.258zm0 0" stroke="#000" stroke-miterlimit="10" stroke-width=".719"/><path d="M216.902 287.406h38.582" fill="none" stroke="#000" stroke-miterlimit="10" stroke-width=".719"/><path d="M259.262 287.406l-5.036 2.52 1.258-2.52-1.258-2.515zm0 0" stroke="#000" stroke-miterlimit="10" stroke-width=".719"/><path d="M274.457 287.406h60.164" fill="none" stroke="#000" stroke-miterlimit="10" stroke-width=".719"/><path d="M338.398 287.406l-5.035 2.52 1.258-2.52-1.258-2.515zm0 0" stroke="#000" stroke-miterlimit="10" stroke-width=".719"/><path d="M419.406 137.41l6.293-13.426M351.484 282.32l61.853-131.961" fill="none" stroke="#000" stroke-width=".719" stroke-miterlimit="10"/><path d="M427.297 120.559l.144 5.632-1.742-2.207-2.82.07zm0 0" stroke="#000" stroke-miterlimit="10" stroke-width=".719"/><g transform="translate(4.5 .46)"><use height="100%" width="100%" y="147.48" x="404.368" xlink:href="#ai"/><use height="100%" width="100%" y="147.48" x="411.566" xlink:href="#aj"/></g><path d="M339.203 157.91h283.183" fill="none" stroke="#000" stroke-miterlimit="10" stroke-width=".719"/><path d="M626.164 157.91l-5.035 2.52 1.257-2.52-1.257-2.516zm0 0" stroke="#000" stroke-miterlimit="10" stroke-width=".719"/><path d="M539.93 137.41l2.093-13.05m-32.265 201.124l28.094-175.125" fill="none" stroke="#000" stroke-width=".719" stroke-miterlimit="10"/><path d="M542.62 120.625l1.688 5.375-2.285-1.64-2.683.84zm0 0" stroke="#000" stroke-miterlimit="10" stroke-width=".719"/><g transform="translate(3 .223)"><use height="100%" width="100%" y="147.48" x="527.388" xlink:href="#ai"/><use height="100%" width="100%" y="147.48" x="534.586" xlink:href="#aj"/></g><path d="M509.758 325.484l45.687-115.062" fill="none" stroke="#000" stroke-miterlimit="10" stroke-width=".719"/><path d="M556.844 206.91l.48 5.613-1.879-2.101-2.805.238zm0 0" stroke="#000" stroke-miterlimit="10" stroke-width=".719"/><path d="M569.418 201.078h52.968" fill="none" stroke="#000" stroke-miterlimit="10" stroke-width=".719"/><path d="M626.164 201.078l-5.035 2.516 1.257-2.516-1.257-2.52zm0 0" stroke="#000" stroke-miterlimit="10" stroke-width=".719"/><path d="M439.922 201.078h110.523" fill="none" stroke="#000" stroke-miterlimit="10" stroke-width=".719"/><path d="M554.222 201.078l-5.035 2.516 1.258-2.516-1.258-2.52zm0 0" stroke="#000" stroke-miterlimit="10" stroke-width=".719"/><path d="M116.187 201.078h309.348" fill="none" stroke="#000" stroke-opacity=".149" stroke-miterlimit="10" stroke-width=".719"/><path d="M180.934 114.746c0 .473-.047.941-.137 1.406-.094.461-.23.91-.41 1.348a7.091 7.091 0 01-1.562 2.332 7.091 7.091 0 01-2.333 1.562c-.437.18-.887.317-1.351.41a7.325 7.325 0 01-2.805 0 7.391 7.391 0 01-1.352-.41 7.091 7.091 0 01-2.332-1.562 6.848 6.848 0 01-.894-1.09 7.02 7.02 0 01-.664-1.242 6.872 6.872 0 01-.41-1.348 7.096 7.096 0 010-2.808c.09-.465.226-.914.41-1.352.18-.433.402-.848.664-1.242.261-.395.558-.758.894-1.09a6.848 6.848 0 011.09-.894 7.304 7.304 0 011.242-.664c.438-.184.887-.32 1.352-.41a7 7 0 011.402-.137 7.084 7.084 0 012.754.546c.438.18.852.403 1.242.665.395.261.758.558 1.09.894a7.091 7.091 0 011.563 2.332c.18.438.316.887.41 1.352.09.465.137.93.137 1.402zm143.882 0c0 .473-.047.941-.136 1.406-.094.461-.23.91-.41 1.348a7.02 7.02 0 01-.665 1.242 7.3 7.3 0 01-.894 1.09 7.3 7.3 0 01-1.094.898c-.39.262-.805.48-1.242.664-.438.18-.887.317-1.348.41a7.38 7.38 0 01-1.406.137 7.41 7.41 0 01-1.402-.136 7.261 7.261 0 01-2.594-1.075 7.485 7.485 0 01-1.09-.898 7.067 7.067 0 01-.895-1.09 7.02 7.02 0 01-.664-1.242 7.091 7.091 0 01-.547-2.754c0-.473.044-.937.137-1.402.094-.465.23-.914.41-1.352.18-.433.403-.848.664-1.242a7.215 7.215 0 011.984-1.984 7.194 7.194 0 011.247-.664c.434-.184.883-.32 1.348-.41a7.03 7.03 0 011.402-.137 7.091 7.091 0 012.754.547c.437.18.851.402 1.242.664.395.261.758.558 1.094.894a7.3 7.3 0 01.894 1.09 7.236 7.236 0 011.074 2.594c.09.465.137.93.137 1.402zm115.106 0a7.091 7.091 0 01-.547 2.754 7.02 7.02 0 01-.664 1.242 7.067 7.067 0 01-.895 1.09 7.423 7.423 0 01-1.09.898 7.249 7.249 0 01-2.593 1.074 7.348 7.348 0 01-2.809.001c-.46-.094-.91-.23-1.348-.41a7.47 7.47 0 01-1.246-.665 7.485 7.485 0 01-1.09-.898 7.067 7.067 0 01-.894-1.09 7.02 7.02 0 01-.664-1.242 7.446 7.446 0 01-.41-1.348 7.396 7.396 0 01-.137-1.406c0-.473.047-.937.137-1.402.093-.465.23-.914.41-1.352.18-.433.402-.848.664-1.242a7.215 7.215 0 013.23-2.648 7.091 7.091 0 012.754-.547 7.113 7.113 0 012.75.546 7.194 7.194 0 012.336 1.56c.332.331.633.694.895 1.089.261.394.484.809.664 1.242.18.438.316.887.41 1.352.094.465.137.93.137 1.402zm115.109 0a7.147 7.147 0 01-.55 2.754 7.02 7.02 0 01-.665 1.242 6.848 6.848 0 01-.894 1.09 7.091 7.091 0 01-2.332 1.562c-.438.18-.887.317-1.352.41a7.325 7.325 0 01-2.805 0 7.391 7.391 0 01-1.351-.41 7.091 7.091 0 01-2.332-1.562 6.848 6.848 0 01-.895-1.09 7.038 7.038 0 01-1.074-2.59 7.096 7.096 0 010-2.808 7.16 7.16 0 01.406-1.352 7.324 7.324 0 011.563-2.332 6.848 6.848 0 011.09-.894 7.02 7.02 0 011.242-.664c.437-.184.887-.32 1.351-.41a7.01 7.01 0 011.403-.137c.472 0 .941.043 1.402.136a7.16 7.16 0 013.684 1.969 7.236 7.236 0 012.109 5.086zm0 0" fill="#f5f5f5" stroke="#666" stroke-width=".719"/><path d="M180.934 157.91c0 .473-.047.941-.137 1.406-.094.461-.23.914-.41 1.348a7.471 7.471 0 01-.664 1.246c-.266.39-.563.754-.899 1.09a7.067 7.067 0 01-1.09.894 7.02 7.02 0 01-1.242.665c-.437.18-.887.316-1.351.41a7.325 7.325 0 01-2.805 0 7.391 7.391 0 01-1.352-.41 7.304 7.304 0 01-1.242-.665 7.215 7.215 0 01-1.984-1.984 7.194 7.194 0 01-.664-1.246 6.792 6.792 0 01-.41-1.348 7.096 7.096 0 010-2.808c.09-.461.226-.914.41-1.348a7.194 7.194 0 011.558-2.336 7.067 7.067 0 011.09-.894 7.304 7.304 0 011.242-.664c.438-.18.887-.317 1.352-.41a7.325 7.325 0 012.805 0c.464.093.914.23 1.351.41.438.18.852.402 1.242.664.395.261.758.562 1.09.894.336.336.633.7.899 1.09.261.395.48.809.664 1.246.18.434.316.887.41 1.348.09.465.137.933.137 1.402zm0 0" fill="#ffe6cc" stroke="#d79b00" stroke-width=".719"/><path d="M224.098 244.242c0 .473-.047.941-.137 1.402a7.16 7.16 0 01-1.969 3.684 7.194 7.194 0 01-2.336 1.559c-.437.183-.887.32-1.348.41a7.096 7.096 0 01-2.808 0 6.792 6.792 0 01-1.348-.41 7.194 7.194 0 01-2.336-1.559 7.16 7.16 0 01-1.969-3.684 7.325 7.325 0 010-2.804c.094-.465.231-.914.41-1.352a7.02 7.02 0 01.665-1.242 7.215 7.215 0 013.23-2.652 7.05 7.05 0 011.348-.407 7.057 7.057 0 012.808 0 7.135 7.135 0 013.684 1.97c.332.331.633.694.895 1.089.261.39.484.805.664 1.242.18.438.316.887.41 1.352.09.46.137.93.137 1.402zm57.554 0c0 .473-.047.941-.14 1.402a7.09 7.09 0 01-.407 1.352 7.178 7.178 0 01-.668 1.242 6.848 6.848 0 01-.894 1.09 6.848 6.848 0 01-1.09.895 7.02 7.02 0 01-1.242.664 6.89 6.89 0 01-1.352.41 7.028 7.028 0 01-2.804 0 7.16 7.16 0 01-3.684-1.969 7.16 7.16 0 01-1.969-3.684 7.028 7.028 0 010-2.804 6.89 6.89 0 01.41-1.352 7.02 7.02 0 01.664-1.242c.262-.395.559-.758.895-1.09a6.848 6.848 0 011.09-.894 7.075 7.075 0 012.594-1.075 7.028 7.028 0 012.804 0 7.038 7.038 0 012.594 1.074c.395.262.758.56 1.09.895.336.332.633.695.894 1.09a7.038 7.038 0 011.075 2.594c.093.46.14.93.14 1.402zm0 0" fill="#f8cecc" stroke="#b85450" stroke-width=".719"/><path d="M216.902 287.406a7.098 7.098 0 01-.547 2.754 7.02 7.02 0 01-.664 1.242 7.215 7.215 0 01-1.984 1.984 7.324 7.324 0 01-1.242.669c-.438.18-.887.316-1.352.406a7.057 7.057 0 01-2.808 0 7.038 7.038 0 01-2.59-1.074 7.056 7.056 0 01-1.094-.895 7.3 7.3 0 01-.895-1.09 7.02 7.02 0 01-.664-1.242 7.391 7.391 0 01-.41-1.352 7.325 7.325 0 010-2.804 7.16 7.16 0 013.062-4.578 7.02 7.02 0 011.243-.664c.437-.184.887-.32 1.348-.41a7.096 7.096 0 012.808 0c.465.09.914.226 1.352.41a7.215 7.215 0 013.89 3.89 7.098 7.098 0 01.547 2.754zm57.555 0c0 .473-.047.942-.137 1.402-.094.465-.23.915-.41 1.352a7.02 7.02 0 01-.664 1.242 7.215 7.215 0 01-3.23 2.652c-.438.18-.887.317-1.348.407a7.096 7.096 0 01-2.809 0 6.967 6.967 0 01-1.347-.406 7.213 7.213 0 01-4.305-5.247 7.024 7.024 0 01-.137-1.402 7 7 0 01.137-1.402 7.16 7.16 0 011.969-3.684 7.215 7.215 0 012.336-1.558c.433-.184.882-.32 1.347-.41a7.057 7.057 0 012.809 0c.46.09.91.226 1.348.41a7.194 7.194 0 012.335 1.558 7.16 7.16 0 011.969 3.684c.09.46.137.93.137 1.402zm79.137 0c0 .473-.047.942-.141 1.402a7.038 7.038 0 01-1.074 2.594 6.848 6.848 0 01-.895 1.09 6.848 6.848 0 01-1.09.895 7.038 7.038 0 01-2.593 1.074 7.028 7.028 0 01-2.805 0 7.087 7.087 0 01-1.352-.406 7.178 7.178 0 01-1.242-.668 6.848 6.848 0 01-1.09-.895 6.848 6.848 0 01-.894-1.09 7.02 7.02 0 01-.664-1.242 6.828 6.828 0 01-.41-1.352 7.028 7.028 0 010-2.804 7.16 7.16 0 011.969-3.684 7.16 7.16 0 013.684-1.969 7.028 7.028 0 012.804 0c.464.09.914.227 1.351.41.438.18.852.403 1.242.665.395.261.758.558 1.09.894.336.332.633.696.895 1.09.265.39.484.809.668 1.242.18.438.316.887.406 1.352.094.46.14.93.14 1.402zm0 0" fill="#d5e8d4" stroke="#82b366" stroke-width=".719"/><path d="M339.203 157.91a7.091 7.091 0 01-.547 2.754 7.194 7.194 0 01-1.558 2.336c-.336.332-.7.633-1.09.894a7.304 7.304 0 01-1.243.665c-.437.18-.886.316-1.351.41a7.345 7.345 0 01-2.809 0c-.46-.094-.91-.23-1.347-.41a7.288 7.288 0 01-2.336-1.559 7.719 7.719 0 01-.895-1.09 7.194 7.194 0 01-.664-1.246 7.352 7.352 0 01-.41-1.348 7.396 7.396 0 01-.137-1.406c0-.469.047-.937.137-1.402a7.23 7.23 0 011.074-2.594 7.72 7.72 0 01.895-1.09 7.288 7.288 0 012.336-1.558c.437-.18.886-.317 1.347-.41a7.39 7.39 0 011.407-.137c.472 0 .937.047 1.402.136.465.094.914.23 1.351.41.434.18.848.403 1.243.665a7.215 7.215 0 011.984 1.984c.262.395.484.809.664 1.246a7.061 7.061 0 01.547 2.75zm0 0" fill="#ffe6cc" stroke="#d79b00" stroke-width=".719"/><path d="M511.863 330.57a7.091 7.091 0 01-.547 2.754 7.158 7.158 0 01-2.648 3.231 7.261 7.261 0 01-2.594 1.074 7.345 7.345 0 01-2.809 0c-.46-.094-.91-.23-1.347-.41a7.194 7.194 0 01-1.246-.664 7.458 7.458 0 01-1.09-.895 7.719 7.719 0 01-.895-1.09 7.194 7.194 0 01-.664-1.246 7.446 7.446 0 01-.41-1.348 7.396 7.396 0 01-.137-1.406c0-.472.047-.937.137-1.402a7.261 7.261 0 011.074-2.594c.266-.39.563-.754.895-1.09a7.194 7.194 0 012.336-1.559 7.091 7.091 0 012.754-.547c.472 0 .937.044 1.402.137a7.261 7.261 0 012.594 1.075c.39.261.754.562 1.09.894a7.194 7.194 0 011.559 2.336 7.11 7.11 0 01.546 2.75zm0 0" fill="#f8cecc" stroke="#b85450" stroke-width=".719"/><path d="M569.418 201.078c0 .473-.047.938-.137 1.402a7.261 7.261 0 01-1.074 2.594c-.266.39-.563.754-.895 1.09a7.288 7.288 0 01-2.336 1.559 7.091 7.091 0 01-2.754.547c-.472 0-.937-.044-1.402-.137a7.261 7.261 0 01-2.594-1.074 7.458 7.458 0 01-1.09-.895 7.458 7.458 0 01-.894-1.09 7.194 7.194 0 01-.664-1.246 6.977 6.977 0 01-.41-1.348 7.053 7.053 0 01-.137-1.402 7.091 7.091 0 01.547-2.754 7.23 7.23 0 01.664-1.246c.262-.39.562-.754.894-1.09.336-.332.7-.629 1.09-.894a7.261 7.261 0 012.594-1.074 7.346 7.346 0 012.809-.001c.46.094.91.23 1.347.41.438.18.852.403 1.243.665a7.52 7.52 0 011.093.894c.332.336.63.7.895 1.09a7.23 7.23 0 011.211 4zm-129.496 0c0 .473-.043.938-.137 1.402a7.261 7.261 0 01-1.074 2.594 7.52 7.52 0 01-.895 1.09 7.466 7.466 0 01-1.09.895 7.194 7.194 0 01-1.246.664 7.053 7.053 0 01-2.75.547 7.091 7.091 0 01-2.754-.547 7.194 7.194 0 01-1.246-.664 7.458 7.458 0 01-1.09-.895 7.458 7.458 0 01-.894-1.09 7.261 7.261 0 01-1.074-2.594 7.355 7.355 0 01-.137-1.402c0-.473.047-.941.137-1.406a7.23 7.23 0 011.074-2.594c.262-.39.562-.754.894-1.09.336-.332.7-.629 1.09-.894a7.194 7.194 0 011.246-.664c.438-.18.887-.317 1.348-.41.465-.09.934-.137 1.406-.137.473 0 .938.047 1.403.136.46.094.914.23 1.347.41a7.163 7.163 0 012.336 1.559c.332.336.633.7.895 1.09a7.3 7.3 0 01.664 1.246 7.091 7.091 0 01.547 2.754zm0 0" fill="#ffe6cc" stroke="#d79b00" stroke-width=".719"/></svg>