<svg data-name="Layer 1" xmlns="http://www.w3.org/2000/svg" width="677.858" height="623.712" viewBox="0 0 677.858 623.712"><path d="M480.44 572H171.25a27.721 27.721 0 01-27.69-27.7V425.45c-.64.73-1.31 1.45-2 2.15v116.7a29.727 29.727 0 0029.69 29.7h310.06c-.3-.66-.59-1.33-.87-2zM143.56 132.7a27.721 27.721 0 0127.69-27.7h103.02c-.19-.67-.37-1.33-.54-2H171.25a29.727 29.727 0 00-29.69 29.7v182.2c.69.7 1.35 1.42 2 2.15zm415.16 23.36l-64.6-51.17a8.733 8.733 0 00-5.42-1.89h-57.49c-.16.67-.34 1.34-.53 2h58.02a6.796 6.796 0 014.18 1.45l64.6 51.18a5.146 5.146 0 011.96 4.06v297.83c.67.02 1.34.07 2 .12V161.69a7.137 7.137 0 00-2.72-5.63z" fill="#3f3d56"/><path d="M557.867 158.702H505.74a14.348 14.348 0 01-14.348-14.348v-38.5a.897.897 0 011.454-.702l65.576 51.95a.897.897 0 01-.556 1.6z" fill="#e6e6e6"/><path d="M557.866 159.702h-52.125a15.366 15.366 0 01-15.348-15.348v-38.5a1.897 1.897 0 013.074-1.487l65.577 51.951a1.896 1.896 0 01-1.178 3.384zm0-2zm-65.473-51.634v38.286a13.363 13.363 0 0013.348 13.348h51.829z" fill="#3f3d56"/><path d="M454.395 225.061H301.051a7.174 7.174 0 110-14.348h153.344a7.174 7.174 0 010 14.348zm29.593 24.212H301.05a7.174 7.174 0 110-14.348h182.937a7.174 7.174 0 110 14.348zm-29.593 84.295H301.051a7.174 7.174 0 010-14.348h153.344a7.174 7.174 0 010 14.348zm29.593 24.212H301.05a7.174 7.174 0 110-14.348h182.937a7.174 7.174 0 110 14.348zm-29.593 84.295H301.051a7.174 7.174 0 110-14.348h153.344a7.174 7.174 0 010 14.348zm29.593 24.212H301.05a7.174 7.174 0 110-14.348h182.937a7.174 7.174 0 110 14.348z" fill="#ccc"/><circle data-name="Ellipse 44" cx="237.194" cy="229.993" r="25.356" fill="#060606"/><path data-name="Path 395" d="M234.682 239.666a2.63 2.63 0 01-1.582-.526l-.029-.021-5.959-4.559a2.648 2.648 0 113.223-4.203l3.86 2.96 9.12-11.9a2.647 2.647 0 013.712-.49v.001l-.056.079.058-.079a2.65 2.65 0 01.49 3.712l-10.729 13.99a2.649 2.649 0 01-2.106 1.033z" fill="#fff"/><circle data-name="Ellipse 44" cx="237.194" cy="338.5" r="25.356" fill="#e6e6e6"/><path data-name="Path 395" d="M234.682 348.173a2.63 2.63 0 01-1.582-.526l-.029-.021-5.959-4.559a2.648 2.648 0 013.223-4.203l3.86 2.96 9.12-11.9a2.647 2.647 0 013.712-.49l-.056.08.058-.08a2.65 2.65 0 01.49 3.713l-10.729 13.99a2.649 2.649 0 01-2.106 1.032z" fill="#fff"/><circle data-name="Ellipse 44" cx="237.194" cy="447.007" r="25.356" fill="#e6e6e6"/><path data-name="Path 395" d="M234.682 456.68a2.63 2.63 0 01-1.582-.526l-.029-.022-5.959-4.558a2.648 2.648 0 113.223-4.203l3.86 2.96 9.12-11.9a2.647 2.647 0 013.712-.49l-.056.08.058-.08a2.65 2.65 0 01.49 3.713l-10.729 13.99a2.649 2.649 0 01-2.106 1.032z" fill="#fff"/><path d="M593.697 614.324q-2.147 1.122-4.367 2.123-2.021.914-4.107 1.717c-.508.194-1.024.388-1.541.582a82.638 82.638 0 01-12.554 3.461q-3.17.623-6.424.979-2.686.304-5.427.433a78.91 78.91 0 01-3.914.093 82.927 82.927 0 01-15.47-1.45 68.943 68.943 0 01-3.933-.84 81.945 81.945 0 01-18.156-6.7c-.517-.26-1.034-.536-1.55-.804a54.464 54.464 0 01-2.262-1.274c.36-.498.748-.987 1.145-1.467a48.953 48.953 0 0172.8-3.785 50.098 50.098 0 014.67 5.41c.378.498.739 1.005 1.09 1.522z" fill="#060606"/><circle cx="557.205" cy="533.248" r="40.53" fill="#2f2e41"/><circle cx="814.587" cy="685.51" r="30.166" transform="rotate(-28.663 413.692 1127.375)" fill="#a0616a"/><path d="M585.213 528.392a41.028 41.028 0 01-23.447 7.246 25.142 25.142 0 009.965 4.1 82.73 82.73 0 01-33.793.19 21.87 21.87 0 01-7.074-2.43 8.953 8.953 0 01-4.366-5.84c-.742-4.235 2.559-8.083 5.988-10.676a44.175 44.175 0 0137.122-7.418c4.146 1.072 8.3 2.883 10.994 6.213s3.491 8.464.925 11.893z" fill="#2f2e41"/><path d="M561.44 457.78c-.66-.05-1.33-.09-2-.12a78.8 78.8 0 00-4.08-.1A83.072 83.072 0 00478.44 572c.27.67.55 1.34.85 2a83.673 83.673 0 0032.84 37.56l.53.31c.45.27.89.53 1.33.77.75.45 1.5.87 2.26 1.28.52.27 1.04.54 1.55.8a81.774 81.774 0 0018.16 6.7c1.3.32 2.6.6 3.93.84a82.963 82.963 0 0015.47 1.45c1.31 0 2.61-.03 3.92-.09 1.82-.08 3.63-.23 5.42-.43q3.255-.36 6.43-.98a83.313 83.313 0 0012.55-3.46c.52-.2 1.04-.39 1.54-.59 1.4-.53 2.76-1.1 4.11-1.71q2.22-1.005 4.37-2.13a83.876 83.876 0 0034.19-33.2 2.432 2.432 0 01.12-.22 83.047 83.047 0 00-66.57-123.12zm73.72 98.1a80.758 80.758 0 01-8.67 23.94c-.07.13-.14.26-.21.38a81.377 81.377 0 01-33.67 32.6q-2.13 1.11-4.31 2.08a75.66 75.66 0 01-3.7 1.54c-.52.2-1.06.41-1.59.59a79.042 79.042 0 01-10.83 3.1 76.825 76.825 0 01-8.26 1.3c-1.71.19-3.44.32-5.19.38-1.12.05-2.24.08-3.37.08a80.39 80.39 0 01-14.97-1.4 77.371 77.371 0 01-8.89-2.18 81.14 81.14 0 01-12.91-5.23c-.48-.25-.96-.5-1.43-.76-.68-.36-1.36-.73-2.02-1.12-.5-.28-1-.58-1.49-.87-.29-.17-.57-.34-.86-.52A81.776 81.776 0 01481.31 574c-.3-.66-.59-1.33-.87-2a81.226 81.226 0 0174.92-112.59c1.37 0 2.73.03 4.08.11.67.02 1.34.07 2 .12a81.293 81.293 0 0173.72 96.24z" fill="#3f3d56"/><path d="M536.68 493.277c-.436-4.586-6.054-7.41-10.447-6.024s-7.277 5.809-8.15 10.332a14.821 14.821 0 002 11.189c2.22 3.196 6.3 5.19 10.107 4.379 4.345-.926 7.355-5.169 8.216-9.527s.006-8.851-.848-13.21zm61.827 6.55c-.436-4.585-6.054-7.408-10.447-6.023s-7.277 5.808-8.149 10.331a14.821 14.821 0 001.999 11.19c2.22 3.196 6.301 5.19 10.107 4.379 4.345-.926 7.355-5.169 8.216-9.527s.006-8.851-.848-13.21z" fill="#2f2e41"/><path d="M396.78 152.246a82.214 82.214 0 01-86.443 1.375 49.963 49.963 0 018.677-11.676 49.32 49.32 0 0177.452 9.756c.101.176.212.36.314.545z" fill="#060606"/><circle cx="349.95" cy="67.306" r="40.8" fill="#2f2e41"/><circle cx="610.735" cy="219.663" r="30.366" transform="rotate(-61.337 363.722 370.714)" fill="#ffb8b8"/><path d="M321.756 62.418a41.3 41.3 0 0023.603 7.295 25.31 25.31 0 01-10.032 4.127 83.28 83.28 0 0034.017.19 22.016 22.016 0 007.121-2.445 9.012 9.012 0 004.396-5.879c.746-4.263-2.576-8.137-6.029-10.747a44.468 44.468 0 00-37.368-7.468c-4.174 1.08-8.356 2.902-11.067 6.255s-3.514 8.52-.931 11.972z" fill="#2f2e41"/><path d="M352.45 0a83.173 83.173 0 00-83.08 83.07 82.299 82.299 0 002.46 19.93c.17.67.34 1.34.52 2a82.987 82.987 0 0080.1 61.15A83.104 83.104 0 00432.6 105c.18-.67.35-1.33.51-2A83.128 83.128 0 00352.45 0zm78.76 103c-.16.67-.34 1.34-.53 2a81.27 81.27 0 01-119.87 47.83A81.81 81.81 0 01274.27 105c-.19-.67-.37-1.33-.54-2a80.4 80.4 0 01-2.51-19.93A81.225 81.225 0 11431.21 103z" fill="#3f3d56"/><path d="M127.41 440.38a82.21 82.21 0 01-86.44 1.38c.14-.27.29-.54.45-.8a49.35 49.35 0 0185.52-1.37c.06.08.11.17.16.25.1.17.21.36.31.54z" fill="#060606"/><path d="M121.38 355.44a40.8 40.8 0 11-40.8-40.8 40.606 40.606 0 0140.8 40.8z" fill="#2f2e41"/><path d="M112.55 380.79a31.366 31.366 0 01-1.61 3.43 30.369 30.369 0 01-41.21 12.08 30.366 30.366 0 1129.13-53.29 30.375 30.375 0 0113.69 37.78z" fill="#a0616a"/><path d="M143.56 314.34c-.64-.7-1.31-1.39-2-2.06a83.027 83.027 0 10-13.65 128.88 83.684 83.684 0 0013.65-10.93c.68-.67 1.35-1.35 2-2.05a83.006 83.006 0 000-113.84zm-2 113.26a81.498 81.498 0 01-14.62 11.99c-.01.01-.02.01-.03.02a81.3 81.3 0 01-85.47 1.36c-.01 0-.01-.01-.02-.01A81.22 81.22 0 11141.56 314.9c.69.7 1.35 1.42 2 2.15a81.191 81.191 0 010 108.4c-.64.73-1.31 1.45-2 2.15z" fill="#3f3d56"/><path d="M113.647 321.558a21.484 21.484 0 00-19.809-10.54c-4.148.31-8.095 1.84-11.971 3.351l-19.705 7.686c-5.099 1.99-10.683 4.426-12.895 9.432-2.054 4.646-.522 10.011 1.03 14.849l7.371 22.993c1.01-5.165 2.037-10.382 4.178-15.19s5.528-9.24 10.211-11.642c5.118-2.625 11.151-2.57 16.897-2.294 8.137.391 16.985 1.427 22.767 7.166a23.648 23.648 0 016 11.72 70.54 70.54 0 011.259 13.265 109.978 109.978 0 008.399-18.005 44.549 44.549 0 003.12-14.575c.044-4.992-1.37-10.143-4.698-13.863s-8.753-5.73-13.524-4.256" fill="#2f2e41"/><path d="M51.513 211.843l-2-.024c.024-2 .081-4.03.171-6.032l1.998.09c-.089 1.98-.146 3.988-.17 5.966zm1.047-17.386l-1.988-.217c.418-3.823.965-7.678 1.626-11.46l1.97.345a178.639 178.639 0 00-1.607 11.332zm3.943-22.536l-1.944-.47a179.391 179.391 0 013.09-11.156l1.908.596a177.429 177.429 0 00-3.054 11.03zm6.822-21.852l-1.866-.718a179.687 179.687 0 014.51-10.672l1.816.838a177.684 177.684 0 00-4.46 10.552zm9.592-20.793l-1.758-.953a180.652 180.652 0 015.846-9.998l1.693 1.065a178.707 178.707 0 00-5.78 9.886zm12.184-19.38l-1.621-1.17c2.25-3.117 4.63-6.2 7.076-9.165l1.543 1.272a179.452 179.452 0 00-6.998 9.063zm14.56-17.659l-1.458-1.368c2.627-2.8 5.382-5.554 8.186-8.184l1.368 1.459a180.304 180.304 0 00-8.096 8.093zm16.69-15.653l-1.272-1.543a181.122 181.122 0 019.16-7.072l1.171 1.621a179.626 179.626 0 00-9.059 6.994zm18.546-13.391l-1.064-1.693a180.641 180.641 0 019.987-5.84l.953 1.758a178.69 178.69 0 00-9.876 5.775zm20.101-10.9l-.837-1.815a180.237 180.237 0 0110.65-4.504l.72 1.866a177.868 177.868 0 00-10.533 4.454zm21.327-8.215l-.597-1.91a179.301 179.301 0 0111.154-3.093l.472 1.944a177.513 177.513 0 00-11.03 3.06zm22.232-5.399l-.345-1.97c3.78-.662 7.635-1.21 11.458-1.63l.218 1.989c-3.781.414-7.593.956-11.331 1.611zm22.819-2.497l-.09-1.998c2.004-.09 4.033-.147 6.033-.171l.024 2c-1.978.023-3.985.08-5.967.17z" fill="#e6e6e6"/><path fill="#e6e6e6" d="M58.899 205.414l-1.429-1.401-6.894 7.051-6.53-7.391L42.547 205l7.955 9 8.397-8.586zM220.914 43.399l-1.401-1.429 7.051-6.894-7.391-6.53 1.327-1.499 9 7.955-8.586 8.397zm299.212 12.558q-2.641-1.39-5.32-2.731l.894-1.789q2.699 1.35 5.357 2.75zM656.03 425.084l-1.85-.759a295.164 295.164 0 004.3-11.132l1.88.682a296.494 296.494 0 01-4.33 11.209zm8.2-22.586l-1.907-.605a292.385 292.385 0 003.377-11.448l1.93.527a293.615 293.615 0 01-3.4 11.526zm6.324-23.183l-1.95-.447a290.62 290.62 0 002.424-11.687l1.967.366a293.271 293.271 0 01-2.441 11.768zm4.395-23.628l-1.98-.284a290.904 290.904 0 001.453-11.848l1.99.202a293.285 293.285 0 01-1.463 11.93zm2.433-23.91l-1.997-.121c.238-3.953.397-7.966.473-11.928l2 .038c-.077 3.99-.237 8.03-.476 12.01zm.457-24.031l-2 .044q-.057-2.61-.161-5.214c-.09-2.227-.206-4.486-.347-6.715l1.996-.126c.142 2.244.26 4.518.349 6.76q.105 2.623.163 5.25zm-3.504-23.776c-.412-3.94-.91-7.925-1.482-11.842l1.979-.29a295.45 295.45 0 011.492 11.924zm-3.446-23.615a294.783 294.783 0 00-2.443-11.685l1.949-.449c.896 3.89 1.724 7.847 2.46 11.765zm-5.36-23.26a294.357 294.357 0 00-3.386-11.45l1.906-.606a296.934 296.934 0 013.41 11.528zm-7.235-22.751a294.423 294.423 0 00-4.306-11.138l1.85-.76a297.908 297.908 0 014.336 11.214zm-9.062-22.093a294.374 294.374 0 00-5.199-10.752l1.783-.907a295.99 295.99 0 015.234 10.825zM638.4 170.967a293.096 293.096 0 00-6.06-10.293l1.703-1.05a295.11 295.11 0 016.1 10.364zm-12.536-20.33a292.179 292.179 0 00-6.883-9.765l1.61-1.186a294.174 294.174 0 016.931 9.832zm-14.162-19.24a291.166 291.166 0 00-7.664-9.168l1.508-1.314a293.57 293.57 0 017.717 9.23zm-15.7-18.013a290.573 290.573 0 00-8.396-8.508l1.395-1.433a293.38 293.38 0 018.453 8.565zm-17.136-16.662a290.916 290.916 0 00-9.073-7.788l1.272-1.545a293.11 293.11 0 019.134 7.842zm-18.46-15.196a291.075 291.075 0 00-9.668-7.004l1.14-1.644a292.668 292.668 0 019.734 7.053zM540.79 67.921a293.94 293.94 0 00-10.208-6.19l1.002-1.732c3.46 2.003 6.918 4.1 10.278 6.233zm107.889 373.651l-1.802-.869q1.303-2.699 2.545-5.412l1.819.833q-1.251 2.731-2.562 5.448z"/><path fill="#e6e6e6" d="M517.31 62.693l1.887-.665-3.287-9.297 9.514-2.6-.53-1.93-11.586 3.168 4.002 11.324zm125.768 368.984l1.901-.626 3.076 9.369 9.121-3.752.759 1.852-11.109 4.568-3.748-11.411z"/></svg>