<svg data-name="Layer 1" xmlns="http://www.w3.org/2000/svg" width="744.799" height="449.141" viewBox="0 0 744.799 449.141"><path d="M725.24 449.141c68.234-120.696-62.641-182.51-79.487-55.057-.853-16.448-1.757-33.16-7.22-48.698-8.298-32.233-53.385-55.589-74.92-22.961-11.384 20.217 3.713 48.577-9.38 67.734-8.257-48.215-78.262-36.904-70.891 11.473 5.534 23.242 30.09 36.767 49.69 47.282z" fill="#f2f2f2"/><path d="M493.37 372.427c34.636 11.24 77.921 30.17 81.433 71.55.1 1.64 2.668 1.652 2.566 0-.897-14.611-8.018-27.982-17.878-38.557-10.81-11.594-24.82-19.512-39.283-25.656-2.827-.654-32.263-14.58-26.839-7.337zm87.507-60.523a233.055 233.055 0 0132.74 132.906c-.095 1.65 2.472 1.645 2.567 0a235.892 235.892 0 00-19.043-106.847c-1.636-3.012-14.833-34.728-16.264-26.059zm125.617 14.743a374.884 374.884 0 00-30.951 119.957c-.144 1.645 2.424 1.635 2.566 0a372.914 372.914 0 0120.54-93.568c-.03-3.361 14.763-30.642 7.845-26.389z" fill="#fff"/><path d="M409.2 447.065c19.533-34.55-17.931-52.245-22.754-15.76-.244-4.709-.503-9.493-2.067-13.94-2.375-9.228-15.281-15.914-21.446-6.574-3.259 5.788 1.063 13.906-2.685 19.39-2.364-13.802-22.404-10.564-20.293 3.284 1.584 6.653 8.613 10.525 14.224 13.535z" fill="#f2f2f2"/><path d="M342.825 425.105c9.915 3.217 22.306 8.637 23.311 20.482.029.47.764.473.735 0a18.063 18.063 0 00-5.118-11.037 32.37 32.37 0 00-11.245-7.345c-.81-.187-9.236-4.173-7.683-2.1zm25.05-17.325a66.714 66.714 0 019.372 38.045c-.027.473.708.471.735 0a67.526 67.526 0 00-5.451-30.586c-.469-.862-4.246-9.94-4.656-7.46zm35.959 4.22a107.314 107.314 0 00-8.86 34.339c-.041.47.694.468.735 0a106.75 106.75 0 015.88-26.785c-.01-.962 4.225-8.771 2.245-7.554z" fill="#fff"/><path d="M284 19H1a1 1 0 010-2h283a1 1 0 010 2z" fill="#3f3d56"/><circle cx="225.799" cy="17" r="17" fill="#040404"/><path d="M284 83H1a1 1 0 010-2h283a1 1 0 010 2z" fill="#3f3d56"/><circle cx="67.799" cy="81" r="17" fill="#040404"/><path d="M284 147H1a1 1 0 010-2h283a1 1 0 010 2z" fill="#3f3d56"/><circle cx="134.799" cy="145" r="17" fill="#040404"/><path d="M413.564 157.166a11.259 11.259 0 01.936 1.506l52.707 5.926 7.665-10.356 17.143 9.525-15.09 25.158-64.573-16.947a11.225 11.225 0 111.212-14.812z" fill="#ffb8b8"/><path d="M488.27 172.777a4.827 4.827 0 01-1.175-.732L465.912 154.2a4.812 4.812 0 01-.31-7.077l19.223-19.302a4.787 4.787 0 016.238-.496l14.536 10.556a4.815 4.815 0 011.523 5.95l-12.575 26.59a4.817 4.817 0 01-6.278 2.356z" fill="#040404"/><path fill="#ffb8b8" d="M570.892 425.157l-12.652 3.442-19.298-47.161 18.672-5.08 13.278 48.799z"/><path d="M547.222 427.712l25.398-6.91 4.18 15.362-39.763 10.819-.271-.998a14.887 14.887 0 0110.456-18.273z" fill="#2f2e41"/><path fill="#ffb8b8" d="M462.735 434.811l-13.111-.001-6.238-50.573 19.352.001-.003 50.573z"/><path d="M439.224 431.064h26.32v15.921h-41.207v-1.034a14.887 14.887 0 0114.887-14.887z" fill="#2f2e41"/><circle cx="710.087" cy="300.062" r="26.267" transform="rotate(-45 324.17 462.085)" fill="#ffb8b8"/><path d="M461.932 398.752h-17.917a4.827 4.827 0 01-4.808-4.516c-5.34-84.875-2.216-145.758 9.828-191.6a5.002 5.002 0 01.195-.59l.96-2.399a4.79 4.79 0 014.468-3.026h36.846a4.805 4.805 0 013.654 1.68l5.005 5.84c.097.114.189.23.277.352 22.567 31.47 42.79 92.995 66.213 175.692a4.797 4.797 0 01-3.164 5.9l-19.255 6.162a4.839 4.839 0 01-5.802-2.494l-49.97-103.64a3.743 3.743 0 00-7.08 1.118l-14.681 107.36a4.831 4.831 0 01-4.769 4.161z" fill="#2f2e41"/><path d="M498.143 204.568c-.05 0-.1 0-.151-.002l-44.756-1.413a4.797 4.797 0 01-4.63-4.229c-5.673-45.925 9.887-58.228 16.84-61.385a3.7 3.7 0 002.152-2.934l.601-4.814a4.795 4.795 0 01.951-2.337c10.902-14.122 25.788-18.645 33.692-20.083a4.805 4.805 0 015.616 4.117l.901 6.912a3.808 3.808 0 00.763 1.809c22.736 29.723-2.593 73.609-7.901 82.104a4.822 4.822 0 01-4.078 2.255z" fill="#040404"/><path d="M493.968 269.844a11.49 11.49 0 001.504-17.553l8.314-100.393-24.752 3.405-.471 97.541a11.551 11.551 0 0015.405 17z" fill="#ffb8b8"/><path d="M505.403 166.354a4.827 4.827 0 01-1.37-.198l-26.571-7.816a4.812 4.812 0 01-3.13-6.354l9.833-25.404a4.787 4.787 0 015.51-2.964l17.556 3.816a4.815 4.815 0 013.788 4.836l-.816 29.402a4.817 4.817 0 01-4.8 4.682z" fill="#040404"/><path d="M727.016 449h-381a1 1 0 010-2h381a1 1 0 010 2z" fill="#3f3d56"/><path d="M511.388 58.296a108.933 108.933 0 01-4.305-18.145c-.287-3.587.632-7.446 3.244-9.92 4.888-4.631 13.193-2.426 18.304 1.957 7.388 6.335 11.073 16.069 12.465 25.7s.78 19.426 1.115 29.151 1.726 19.726 6.685 28.1 14.16 14.8 23.864 14.088a16.795 16.795 0 0010.514-4.455 12.19 12.19 0 003.662-10.586c4.96 8.882 2.445 20.92-4.954 27.903s-18.78 8.957-28.507 5.976-17.732-10.457-22.514-19.437-6.535-19.353-6.28-29.524c.194-7.81 1.522-15.684.202-23.384s-6.139-15.519-13.738-17.332z" fill="#2f2e41"/><path d="M477.261 68.42c-1.295 4.328-6.251 6.997-10.71 6.265s-8.123-4.403-9.478-8.713a17.938 17.938 0 011.402-13.15 20.479 20.479 0 0111.717-10.438 16.814 16.814 0 0115.289 2.443 5.623 5.623 0 013.93-4.109 10.745 10.745 0 015.896.087 24.296 24.296 0 0113.522 9.837 39.535 39.535 0 016.129 15.798c1.509 8.469.952 17.723-3.804 24.89s-14.487 11.4-22.381 7.983c-.492-2.517.674-5.05 2.023-7.231s2.948-4.305 3.466-6.816-.475-5.583-2.904-6.404c-2.073-.7-4.282.434-6.465.571a7.084 7.084 0 01-6.796-10.207z" fill="#2f2e41"/></svg>