<svg data-name="Layer 1" xmlns="http://www.w3.org/2000/svg" width="949.651" height="482.323" viewBox="0 0 949.651 482.323"><path d="M910.323 462.903c-27.641 19.913-63.462 20.913-98.087 18.467a717.75 717.75 0 01-14.392-1.173c-.029-.008-.067-.005-.096-.013a19.363 19.363 0 00-.676-.056l-2.936-.276.23.438.72 1.36c-.259-.455-.518-.9-.777-1.356-.076-.136-.161-.272-.237-.41-8.97-15.608-17.866-31.79-20.136-49.615-2.345-18.5 4.247-39.448 20.53-48.541a32.856 32.856 0 016.741-2.824 35.499 35.499 0 012.96-.748 35.217 35.217 0 0140.954 45.78c13.805-14.155 11.23-37.119 6.468-56.31-4.771-19.192-10.547-40.547-.843-57.784 5.394-9.595 14.88-15.548 25.526-17.946.327-.07.653-.14.98-.202a51.397 51.397 0 0136.926 6.47c20.356 12.828 30.81 37.149 34.204 60.973 5.467 38.338-6.632 81.125-38.059 103.766z" fill="#f2f2f2"/><path d="M901.399 401.446a87.37 87.37 0 01-6.03 24.621 75.866 75.866 0 01-11.78 19.24c-9.934 11.951-23.07 20.936-37.337 26.923a139.897 139.897 0 01-34.016 9.14 717.75 717.75 0 01-14.392-1.173c-.029-.008-.067-.005-.096-.013a19.363 19.363 0 00-.676-.056l-2.936-.276.23.438.72 1.36c-.259-.455-.518-.9-.777-1.356-.076-.136-.161-.272-.237-.41a77.332 77.332 0 0021.673-67.647 77.995 77.995 0 00-14.538-33.333 35.499 35.499 0 012.96-.748 80.865 80.865 0 017.376 12.217 79.236 79.236 0 016.836 49.293 81.01 81.01 0 01-20.525 40.407c.924-.065 1.856-.14 2.769-.224 17.283-1.464 34.532-5.18 50.209-12.79a90.428 90.428 0 0033.875-27.796c9.495-13.094 13.678-28.844 14.397-44.852.762-17.138-1.462-34.577-5.373-51.243a215.082 215.082 0 00-18.073-49.23 1.546 1.546 0 01.614-2.042 1.315 1.315 0 01.98-.202 1.145 1.145 0 01.756.648 235.262 235.262 0 012.891 5.81 217.523 217.523 0 0117.028 51.075c3.436 17.04 5.27 34.866 3.472 52.22z" fill="#fff"/><path d="M540.482 471.702c14.12 10.172 32.418 10.683 50.105 9.433a366.65 366.65 0 007.351-.6c.015-.003.034-.002.05-.005.116-.011.233-.023.345-.03l1.5-.14-.118.224-.368.695c.132-.233.265-.46.397-.693.039-.07.083-.14.121-.21 4.582-7.973 9.127-16.24 10.286-25.344 1.198-9.45-2.17-20.151-10.487-24.796a16.784 16.784 0 00-3.444-1.442 18.257 18.257 0 00-1.511-.383 17.99 17.99 0 00-20.92 23.386c-7.053-7.23-5.737-18.961-3.305-28.765 2.437-9.803 5.388-20.712.43-29.517a19.465 19.465 0 00-13.038-9.167 17.922 17.922 0 00-.501-.103 26.254 26.254 0 00-18.862 3.305c-10.398 6.553-15.74 18.976-17.472 31.146-2.793 19.584 3.387 41.44 19.44 53.006z" fill="#f2f2f2"/><path d="M545.04 440.309a44.631 44.631 0 003.08 12.577 38.754 38.754 0 006.018 9.828 49.653 49.653 0 0019.072 13.752 71.462 71.462 0 0017.377 4.67 366.65 366.65 0 007.351-.6c.015-.004.034-.003.05-.006.116-.011.233-.023.345-.03l1.5-.14-.118.224-.368.695c.132-.233.265-.46.397-.693.039-.07.083-.14.121-.21a39.503 39.503 0 01-11.07-34.555 39.841 39.841 0 017.425-17.027 18.257 18.257 0 00-1.511-.383 41.308 41.308 0 00-3.768 6.241 40.475 40.475 0 00-3.492 25.18 41.381 41.381 0 0010.484 20.64 69.186 69.186 0 01-1.414-.114 72.56 72.56 0 01-25.648-6.533 46.192 46.192 0 01-17.304-14.199c-4.85-6.689-6.987-14.734-7.354-22.911a96.69 96.69 0 012.744-26.176 109.868 109.868 0 019.232-25.148.79.79 0 00-.313-1.043.672.672 0 00-.501-.103.585.585 0 00-.386.331c-.505.985-1 1.97-1.477 2.968a111.115 111.115 0 00-8.698 26.09 89.455 89.455 0 00-1.774 26.675z" fill="#fff"/><path d="M164 13.223H17a17.024 17.024 0 00-17 17v231a17.024 17.024 0 0017 17h147a17.024 17.024 0 0017-17v-231a17.024 17.024 0 00-17-17zm15 248a15.018 15.018 0 01-15 15H17a15.018 15.018 0 01-15-15v-231a15.018 15.018 0 0115-15h147a15.018 15.018 0 0115 15zm300 17H332a17.02 17.02 0 01-17-17v-231a17.02 17.02 0 0117-17h147a17.02 17.02 0 0117 17v231a17.02 17.02 0 01-17 17zm-147-263a15.017 15.017 0 00-15 15v231a15.017 15.017 0 0015 15h147a15.017 15.017 0 0015-15v-231a15.017 15.017 0 00-15-15zm-64 132h-61a1 1 0 010-2h61a1 1 0 010 2z" fill="#3f3d56"/><path d="M255 174.649a1 1 0 01-.606-1.796l31.824-24.244a3 3 0 000-4.772l-31.824-24.244a1 1 0 011.212-1.591l31.823 24.244a5 5 0 010 7.954l-31.823 24.244a.994.994 0 01-.605.205zm327-27.426h-61a1 1 0 010-2h61a1 1 0 010 2z" fill="#3f3d56"/><path d="M569 174.649a1 1 0 01-.606-1.796l31.823-24.244a3 3 0 000-4.772l-31.823-24.244a1 1 0 011.212-1.591l31.823 24.244a5 5 0 010 7.954l-31.823 24.244a.994.994 0 01-.605.205z" fill="#3f3d56"/><path d="M423.5 106.723h-35a8.51 8.51 0 01-8.5-8.5v-34a8.51 8.51 0 018.5-8.5h35a8.51 8.51 0 018.5 8.5v34a8.51 8.51 0 01-8.5 8.5z" fill="#040404"/><path d="M430 106.223a.996.996 0 01-.707-.293l-48-48a1 1 0 111.414-1.414l48 48a1 1 0 01-.707 1.707z" fill="#fff"/><path d="M382 106.223a1 1 0 01-.707-1.707l48-48a1 1 0 111.414 1.414l-48 48a.996.996 0 01-.707.293z" fill="#fff"/><path d="M438 159.223h-65a12.5 12.5 0 010-25h65a12.5 12.5 0 010 25zm-65-23a10.5 10.5 0 000 21h65a10.5 10.5 0 000-21zm65 61h-65a12.5 12.5 0 010-25h65a12.5 12.5 0 010 25zm-65-23a10.5 10.5 0 000 21h65a10.5 10.5 0 000-21zm65 61h-65a12.5 12.5 0 010-25h65a12.5 12.5 0 010 25zm-65-23a10.5 10.5 0 000 21h65a10.5 10.5 0 000-21zM780.831.23L635.815 24.3a17.024 17.024 0 00-13.987 19.554l37.82 227.882a17.024 17.024 0 0019.555 13.988l145.016-24.068a17.024 17.024 0 0013.987-19.554l-37.82-227.883A17.024 17.024 0 00780.83.231zm55.402 242.198a15.018 15.018 0 01-12.341 17.254L678.875 283.75a15.018 15.018 0 01-17.253-12.342L623.8 43.525a15.018 15.018 0 0112.342-17.253L781.159 2.204a15.018 15.018 0 0117.253 12.341z" fill="#3f3d56"/><path d="M755.286 93.674l-64.123 10.642a12.5 12.5 0 01-4.093-24.662l64.123-10.642a12.5 12.5 0 014.093 24.662zm-67.889-12.047a10.5 10.5 0 003.439 20.716l64.122-10.642a10.5 10.5 0 00-3.438-20.716zm75.42 57.426l-64.123 10.643a12.5 12.5 0 11-4.093-24.663l64.123-10.642a12.5 12.5 0 014.093 24.662zm-67.888-12.047a10.5 10.5 0 003.438 20.717l64.123-10.643a10.5 10.5 0 00-3.438-20.716zm75.42 57.427l-64.123 10.642a12.5 12.5 0 11-4.093-24.663l64.123-10.642a12.5 12.5 0 014.093 24.663zm-67.889-12.048a10.5 10.5 0 103.438 20.717l64.123-10.642a10.5 10.5 0 10-3.438-20.717zm75.42 57.427l-64.123 10.642a12.5 12.5 0 01-4.093-24.662l64.123-10.643a12.5 12.5 0 014.093 24.663zm-67.888-12.047a10.5 10.5 0 103.438 20.716l64.123-10.642a10.5 10.5 0 00-3.439-20.717z" fill="#ccc"/><path d="M801.592 27.595L625.007 56.902a1 1 0 11-.327-1.973l176.584-29.307a1 1 0 11.328 1.973z" fill="#3f3d56"/><circle cx="644.19" cy="38.114" r="7" fill="#040404"/><path d="M783.619 10.919l-19.73 3.274a1 1 0 01-.328-1.973l19.73-3.274a1 1 0 01.328 1.973zm.982 5.919l-19.73 3.274a1 1 0 01-.327-1.973l19.73-3.274a1 1 0 01.327 1.973zm.983 5.919l-19.73 3.274a1 1 0 11-.328-1.973l19.73-3.274a1 1 0 11.328 1.973z" fill="#3f3d56"/><path d="M128 163.723H53a8.51 8.51 0 01-8.5-8.5v-76a8.51 8.51 0 018.5-8.5h75a8.51 8.51 0 018.5 8.5v76a8.51 8.51 0 01-8.5 8.5z" fill="#040404"/><path d="M122.5 220.223h-65a12.5 12.5 0 110-25h65a12.5 12.5 0 110 25zm-65-23a10.5 10.5 0 100 21h65a10.5 10.5 0 100-21z" fill="#3f3d56"/><path d="M134.5 162.223a.997.997 0 01-.707-.293l-88-88a1 1 0 111.414-1.414l88 88a1 1 0 01-.707 1.707z" fill="#fff"/><path d="M46.5 162.223a1 1 0 01-.707-1.707l88-88a1 1 0 111.414 1.414l-88 88a.997.997 0 01-.707.293z" fill="#fff"/><path d="M819.054 264.413a10.743 10.743 0 00-8.95-13.83L758.77 190.6l-11.973 12.571 51.131 57.514a10.8 10.8 0 0021.125 3.728z" fill="#a0616a"/><path d="M773.64 203.237l-18.348 13.41a4.5 4.5 0 01-6.639-1.538l-10.544-20.056a12.497 12.497 0 0120.223-14.69l15.859 16.082a4.5 4.5 0 01-.55 6.792z" fill="#040404"/><circle cx="738.233" cy="138.601" r="24.561" fill="#a0616a"/><path d="M748.902 249.41a4.56 4.56 0 01-.76-.064l-43.096-7.254a4.492 4.492 0 01-3.752-4.367c-.132-9.86.606-34.748 10.265-52.876a26.49 26.49 0 0149.197 18.385 392.997 392.997 0 00-7.402 42.21 4.497 4.497 0 01-4.452 3.965z" fill="#2f2e41"/><path d="M658.548 168.538a10.526 10.526 0 01.24 1.64l42.957 24.782 10.441-6.01 11.132 14.571-17.45 12.438a8 8 0 01-9.599-.234l-44.296-34.946a10.497 10.497 0 116.575-12.241z" fill="#a0616a"/><path d="M702.335 192.483a4.495 4.495 0 012.212-3.025l19.713-11.023a12.497 12.497 0 0115.326 19.744l-15.717 16.322a4.5 4.5 0 01-6.804-.373l-13.884-17.994a4.495 4.495 0 01-.846-3.651z" fill="#040404"/><path fill="#a0616a" d="M681.537 469.689h-12.26l-2.886-47.135 15.148-.153-.002 47.288z"/><path d="M684.663 481.573l-39.53-.001v-.5a15.386 15.386 0 0115.386-15.387h.001l24.144.001z" fill="#2f2e41"/><path fill="#a0616a" d="M798.537 469.689h-12.26l-5.832-47.288h18.094l-.002 47.288z"/><path d="M801.663 481.573l-39.53-.001v-.5a15.386 15.386 0 0115.386-15.387h.001l24.144.001zm-17.064-36.406a4.523 4.523 0 01-4.253-3.014l-39.07-111.627a2.5 2.5 0 00-4.36-.673l-38.11 50.813a3.535 3.535 0 00-.615 1.335l-12.144 54.18a4.508 4.508 0 01-4.187 3.51l-14.545.662a4.448 4.448 0 01-3.395-1.323 4.506 4.506 0 01-1.303-3.402l2.536-49.452a115.4 115.4 0 0112.103-45.972 259.338 259.338 0 0027.135-102.178l.031-.553 44.752 7.12 6.718 9.302a128.631 128.631 0 009.725 12.015c8.556 9.277 11.124 21.683 11.772 30.456a253.547 253.547 0 004.57 32.09l22.194 109.06a4.5 4.5 0 01-3.763 5.63l-15.215 1.984a4.418 4.418 0 01-.576.037zM765.39 121.554a108.931 108.931 0 01-4.304-18.146c-.287-3.586.631-7.445 3.243-9.92 4.888-4.63 13.193-2.425 18.305 1.958 7.388 6.334 11.072 16.069 12.465 25.7s.78 19.425 1.115 29.15 1.726 19.727 6.684 28.1 14.16 14.801 23.865 14.089a16.795 16.795 0 0010.514-4.456 12.19 12.19 0 003.661-10.586c4.96 8.883 2.446 20.921-4.953 27.904s-18.78 8.956-28.507 5.975-17.733-10.457-22.515-19.436-6.534-19.354-6.28-29.524c.195-7.81 1.523-15.684.203-23.385s-6.14-15.519-13.738-17.332z" fill="#2f2e41"/><path d="M731.264 131.678c-1.296 4.328-6.251 6.997-10.71 6.265s-8.124-4.404-9.478-8.714a17.938 17.938 0 011.401-13.15 20.478 20.478 0 0111.718-10.437 16.814 16.814 0 0115.289 2.443 5.623 5.623 0 013.929-4.11 10.745 10.745 0 015.897.088 24.296 24.296 0 0113.522 9.837 39.536 39.536 0 016.129 15.798c1.508 8.468.952 17.722-3.804 24.89s-14.487 11.4-22.381 7.982c-.493-2.516.673-5.05 2.023-7.23s2.948-4.305 3.466-6.817-.476-5.583-2.905-6.404c-2.072-.7-4.281.435-6.464.572a7.084 7.084 0 01-6.796-10.208z" fill="#2f2e41"/><path d="M911.815 482.223h-381a1 1 0 010-2h381a1 1 0 010 2z" fill="#ccc"/></svg>